<svg width="35" height="35" viewBox="0 0 35 35" fill="none" xmlns="http://www.w3.org/2000/svg">
<path d="M4.37517 24.7917H30.6252C30.9969 24.7922 31.3544 24.9345 31.6247 25.1897C31.895 25.4448 32.0576 25.7936 32.0794 26.1646C32.1012 26.5357 31.9804 26.9011 31.7419 27.1861C31.5033 27.4711 31.1649 27.6543 30.7958 27.6982L30.6252 27.7084H4.37517C4.00348 27.708 3.64596 27.5657 3.37568 27.3105C3.1054 27.0553 2.94275 26.7066 2.92097 26.3355C2.89918 25.9645 3.01991 25.5991 3.25848 25.3141C3.49705 25.029 3.83545 24.8459 4.20455 24.802L4.37517 24.7917ZM4.37517 16.0417L30.6252 16.0388C30.9969 16.0392 31.3544 16.1816 31.6247 16.4367C31.895 16.6919 32.0576 17.0406 32.0794 17.4117C32.1012 17.7828 31.9804 18.1481 31.7419 18.4332C31.5033 18.7182 31.1649 18.9014 30.7958 18.9453L30.6252 18.9555L4.37517 18.9584C4.00348 18.958 3.64596 18.8157 3.37568 18.5605C3.1054 18.3053 2.94275 17.9566 2.92097 17.5855C2.89918 17.2145 3.01991 16.8491 3.25848 16.5641C3.49705 16.279 3.83545 16.0959 4.20455 16.052L4.37517 16.0417ZM4.37517 7.29175H30.6252C30.9969 7.29216 31.3544 7.43449 31.6247 7.68965C31.895 7.94481 32.0576 8.29355 32.0794 8.66462C32.1012 9.03568 31.9804 9.40105 31.7419 9.68609C31.5033 9.97112 31.1649 10.1543 30.7958 10.1982L30.6252 10.2084H4.37517C4.00348 10.208 3.64596 10.0657 3.37568 9.81051C3.1054 9.55535 2.94275 9.20661 2.92097 8.83555C2.89918 8.46449 3.01991 8.09911 3.25848 7.81408C3.49705 7.52904 3.83545 7.34586 4.20455 7.30196L4.37517 7.29175Z" fill="white"/>
</svg>
