<svg width="217" height="34" viewBox="0 0 217 34" fill="none" xmlns="http://www.w3.org/2000/svg">
<path fill-rule="evenodd" clip-rule="evenodd" d="M214.501 4.52041C214.648 4.35226 214.76 4.1568 214.832 3.94519C214.903 3.73357 214.932 3.50995 214.917 3.28708C214.902 3.06421 214.844 2.84646 214.745 2.64627C214.646 2.44607 214.508 2.26735 214.34 2.12031C214.172 1.97327 213.976 1.86078 213.765 1.78928C213.553 1.71778 213.329 1.68865 213.107 1.70358C212.884 1.7185 212.666 1.77717 212.466 1.87624C212.265 1.97532 212.087 2.11285 211.94 2.281L203.251 12.2113L195.876 2.37962C195.718 2.16844 195.512 1.99703 195.276 1.87898C195.04 1.76092 194.78 1.69946 194.516 1.69946H187.714C187.399 1.69946 187.089 1.7874 186.82 1.95341C186.552 2.11943 186.335 2.35697 186.193 2.63941C186.052 2.92186 185.992 3.23805 186.021 3.55256C186.049 3.86706 186.165 4.16746 186.354 4.42008L197.299 19.0128L188.134 29.4872C187.987 29.6553 187.875 29.8508 187.803 30.0624C187.732 30.274 187.703 30.4977 187.718 30.7205C187.732 30.9434 187.791 31.1611 187.89 31.3613C187.989 31.5615 188.127 31.7403 188.295 31.8873C188.463 32.0343 188.659 32.1468 188.87 32.2183C189.082 32.2898 189.305 32.319 189.528 32.304C189.751 32.2891 189.969 32.2304 190.169 32.1314C190.369 32.0323 190.548 31.8948 190.695 31.7266L199.384 21.7946L206.759 31.6263C206.917 31.8375 207.122 32.0089 207.359 32.1269C207.595 32.245 207.855 32.3064 208.119 32.3064H214.921C215.236 32.3064 215.546 32.2185 215.814 32.0525C216.083 31.8865 216.3 31.6489 216.441 31.3665C216.583 31.0841 216.642 30.7679 216.614 30.4534C216.586 30.1388 216.47 29.8385 216.281 29.5858L205.335 14.9931L214.501 4.52041ZM208.969 28.9057L191.115 5.10024H193.666L211.52 28.9057H208.969Z" fill="white"/>
<path d="M34.0078 17.0039C34.0078 7.61774 26.39 0 17.0039 0C7.61774 0 0 7.61774 0 17.0039C0 25.2338 5.84934 32.0863 13.6031 33.6677V22.105H10.2023V17.0039H13.6031V12.7529C13.6031 9.47116 16.2727 6.80155 19.5545 6.80155H23.8054V11.9027H20.4047C19.4694 11.9027 18.7043 12.6679 18.7043 13.6031V17.0039H23.8054V22.105H18.7043V33.9227C27.2912 33.0725 34.0078 25.8289 34.0078 17.0039Z" fill="white"/>
<path d="M110.427 3.40063C111.335 3.40574 113.606 3.42784 116.021 3.52476L116.878 3.56217C119.308 3.6761 121.736 3.87334 122.941 4.20832C124.548 4.66062 125.81 5.97672 126.237 7.6465C126.917 10.2991 127.002 15.4717 127.012 16.7249L127.014 16.9833V17.2792C127.002 18.5324 126.917 23.7067 126.237 26.3576C125.805 28.0325 124.542 29.3503 122.941 29.7958C121.736 30.1307 119.308 30.328 116.878 30.4419L116.021 30.481C113.606 30.5762 111.335 30.6 110.427 30.6034L110.027 30.6051H109.593C107.672 30.5932 99.6359 30.5065 97.0785 29.7958C95.4734 29.3435 94.21 28.0274 93.7832 26.3576C93.103 23.705 93.018 18.5324 93.0078 17.2792V16.7249C93.018 15.4717 93.103 10.2974 93.7832 7.6465C94.2151 5.97162 95.4785 4.65382 97.0802 4.21002C99.6359 3.49756 107.674 3.41084 109.595 3.40063H110.427ZM106.609 11.0524V22.9551L116.812 17.0037L106.609 11.0524Z" fill="white"/>
</svg>
