<svg width="217" height="34" viewBox="0 0 217 34" fill="none" xmlns="http://www.w3.org/2000/svg">
<path fill-rule="evenodd" clip-rule="evenodd" d="M214.501 4.52016C214.648 4.35202 214.76 4.15656 214.832 3.94494C214.903 3.73333 214.932 3.5097 214.917 3.28683C214.902 3.06396 214.844 2.84622 214.745 2.64602C214.646 2.44583 214.508 2.26711 214.34 2.12006C214.172 1.97302 213.976 1.86054 213.765 1.78904C213.553 1.71753 213.329 1.68841 213.107 1.70333C212.884 1.71825 212.666 1.77693 212.466 1.876C212.265 1.97507 212.087 2.11261 211.94 2.28075L203.251 12.211L195.876 2.37937C195.718 2.16819 195.512 1.99679 195.276 1.87873C195.04 1.76068 194.78 1.69922 194.516 1.69922H187.714C187.399 1.69922 187.089 1.78715 186.82 1.95317C186.552 2.11919 186.335 2.35673 186.193 2.63917C186.052 2.92161 185.992 3.2378 186.021 3.55231C186.049 3.86682 186.165 4.16721 186.354 4.41984L197.299 19.0126L188.134 29.487C187.987 29.6551 187.875 29.8506 187.803 30.0622C187.732 30.2738 187.703 30.4974 187.718 30.7203C187.732 30.9432 187.791 31.1609 187.89 31.3611C187.989 31.5613 188.127 31.74 188.295 31.8871C188.463 32.0341 188.659 32.1466 188.87 32.2181C189.082 32.2896 189.305 32.3187 189.528 32.3038C189.751 32.2889 189.969 32.2302 190.169 32.1311C190.369 32.032 190.548 31.8945 190.695 31.7264L199.384 21.7944L206.759 31.626C206.917 31.8372 207.122 32.0086 207.359 32.1267C207.595 32.2447 207.855 32.3062 208.119 32.3062H214.921C215.236 32.3062 215.546 32.2183 215.814 32.0522C216.083 31.8862 216.3 31.6487 216.441 31.3663C216.583 31.0838 216.642 30.7676 216.614 30.4531C216.586 30.1386 216.47 29.8382 216.281 29.5856L205.335 14.9929L214.501 4.52016ZM208.969 28.9054L191.115 5.09999H193.666L211.52 28.9054H208.969Z" fill="white"/>
<path d="M34.0078 17.0039C34.0078 7.61774 26.39 0 17.0039 0C7.61774 0 0 7.61774 0 17.0039C0 25.2338 5.84934 32.0863 13.6031 33.6677V22.105H10.2023V17.0039H13.6031V12.7529C13.6031 9.47116 16.2727 6.80155 19.5545 6.80155H23.8054V11.9027H20.4047C19.4694 11.9027 18.7043 12.6679 18.7043 13.6031V17.0039H23.8054V22.105H18.7043V33.9227C27.2912 33.0725 34.0078 25.8289 34.0078 17.0039Z" fill="white"/>
<path d="M110.427 3.40039C111.335 3.40549 113.606 3.4276 116.021 3.52452L116.878 3.56193C119.308 3.67585 121.736 3.8731 122.941 4.20807C124.548 4.66038 125.81 5.97648 126.237 7.64626C126.917 10.2989 127.002 15.4714 127.012 16.7246L127.014 16.9831V17.279C127.002 18.5321 126.917 23.7064 126.237 26.3573C125.805 28.0322 124.542 29.35 122.941 29.7955C121.736 30.1305 119.308 30.3277 116.878 30.4417L116.021 30.4808C113.606 30.576 111.335 30.5998 110.427 30.6032L110.027 30.6049H109.593C107.672 30.593 99.6359 30.5063 97.0785 29.7955C95.4734 29.3432 94.21 28.0271 93.7832 26.3573C93.103 23.7047 93.018 18.5321 93.0078 17.279V16.7246C93.018 15.4714 93.103 10.2972 93.7832 7.64626C94.2151 5.97138 95.4785 4.65358 97.0802 4.20978C99.6359 3.49731 107.674 3.41059 109.595 3.40039H110.427ZM106.609 11.0521V22.9549L116.812 17.0035L106.609 11.0521Z" fill="white"/>
</svg>
