<svg width="1164" height="1775" viewBox="0 0 1164 1775" fill="none" xmlns="http://www.w3.org/2000/svg">
<g filter="url(#filter0_f_315_342)">
<circle cx="882" cy="893" r="478" fill="#1A267B"/>
</g>
<g style="mix-blend-mode:overlay" clip-path="url(#clip0_315_342)">
<path opacity="0.5" d="M822.486 940.185L908.527 989.942L908.527 1089.43L908.183 1089.63L822.486 1139.18L736.445 1089.43L736.445 989.942L736.788 989.741L822.486 940.185ZM907.181 990.716L822.486 941.762L737.79 990.716L737.79 1088.62L822.486 1137.58L907.181 1088.62L907.181 990.716Z" fill="#D0D9DD"/>
<path opacity="0.5" d="M1078.58 1186.96L1164.62 1236.72L1164.62 1336.2L1164.27 1336.4L1078.58 1385.96L992.535 1336.2L992.535 1236.72L992.879 1236.52L1078.58 1186.96ZM1163.27 1237.49L1078.58 1188.54L993.881 1237.49L993.881 1335.4L1078.58 1384.36L1163.27 1335.4L1163.27 1237.49Z" fill="#D0D9DD"/>
<path opacity="0.5" d="M1078.58 890.83L1164.62 940.586L1164.62 1040.07L1164.27 1040.27L1078.58 1089.83L992.535 1040.07L992.535 940.586L992.879 940.386L1078.58 890.83ZM1163.27 941.36L1078.58 892.406L993.881 941.36L993.881 1039.27L1078.58 1088.22L1163.27 1039.27L1163.27 941.36Z" fill="#D0D9DD"/>
<path opacity="0.5" d="M1078.58 496.044L1078.92 496.244L1164.62 545.8L1164.62 645.285L1164.27 645.486L1078.58 695.042L992.535 645.285L992.535 545.8L992.879 545.6L1078.58 496.044ZM1163.27 546.574L1078.58 497.62L993.881 546.574L993.881 644.482L1078.58 693.437L1163.27 644.482L1163.27 546.574Z" fill="#D0D9DD"/>
<path opacity="0.5" d="M993.222 1236.32L1079.26 1286.07L1079.26 1385.53L1078.92 1385.73L993.222 1435.29L907.181 1385.53L907.181 1286.05L907.525 1285.85L993.222 1236.29L993.222 1236.32ZM1077.92 1286.85L993.222 1237.89L908.527 1286.85L908.527 1384.76L993.222 1433.71L1077.92 1384.76L1077.92 1286.85Z" fill="#D0D9DD"/>
<path opacity="0.5" d="M993.222 1038.9L1079.26 1088.65L1079.26 1188.14L1078.92 1188.34L993.222 1237.89L907.181 1188.14L907.181 1088.65L907.525 1088.45L993.222 1038.9ZM1077.92 1089.43L993.222 1040.47L908.527 1089.43L908.527 1187.33L993.222 1236.29L1077.92 1187.33L1077.92 1089.43Z" fill="#D0D9DD"/>
<path opacity="0.5" d="M993.222 841.503L1079.26 891.26L1079.26 990.744L1078.92 990.945L993.222 1040.5L907.181 990.744L907.181 891.26L907.525 891.059L993.222 841.503ZM1077.92 892.033L993.222 843.079L908.527 892.033L908.527 989.942L993.222 1038.9L1077.92 989.942L1077.92 892.033Z" fill="#D0D9DD"/>
<path opacity="0.5" d="M993.222 742.792L1079.26 792.549L1079.26 892.034L1078.92 892.234L993.222 941.79L907.181 892.034L907.181 792.549L907.525 792.348L993.222 742.792ZM1077.92 793.323L993.222 744.369L908.527 793.323L908.527 891.231L993.222 940.185L1077.92 891.231L1077.92 793.323Z" fill="#D0D9DD"/>
<path opacity="0.5" d="M822.486 742.792L908.527 792.549L908.527 892.034L908.183 892.234L822.486 941.79L736.445 892.034L736.445 792.549L736.788 792.348L822.486 742.792ZM907.181 793.323L822.486 744.369L737.79 793.323L737.79 891.231L822.486 940.185L907.181 891.231L907.181 793.323Z" fill="#D0D9DD"/>
<path opacity="0.5" d="M993.222 446.688L993.566 446.889L1079.26 496.445L1079.26 595.93L1078.92 596.13L993.222 645.686L907.181 595.93L907.181 496.445L907.525 496.244L993.222 446.688ZM1077.92 497.219L993.222 448.265L908.527 497.219L908.527 595.127L993.222 644.081L1077.92 595.127L1077.92 497.219Z" fill="#D0D9DD"/>
<path opacity="0.5" d="M1163.96 446.688L1164.3 446.889L1250 496.416L1250 595.901L1249.66 596.102L1163.96 645.658L1077.92 595.901L1077.92 496.416L1078.26 496.216L1163.96 446.66L1163.96 446.688ZM1248.63 497.219L1163.93 448.265L1079.23 497.219L1079.23 595.127L1163.93 644.081L1248.63 595.127L1248.63 497.219Z" fill="#D0D9DD"/>
<path opacity="0.5" d="M907.868 1186.96L993.909 1236.72L993.909 1336.2L993.566 1336.4L907.868 1385.96L821.827 1336.2L821.827 1236.72L822.171 1236.52L907.868 1186.96ZM992.564 1237.49L907.868 1188.54L823.173 1237.49L823.173 1335.4L907.868 1384.36L992.564 1335.4L992.564 1237.49Z" fill="#D0D9DD"/>
<path opacity="0.5" d="M907.868 693.437L993.909 743.193L993.909 842.678L993.566 842.879L907.868 892.435L821.827 842.678L821.827 743.193L822.171 742.993L907.868 693.437ZM992.564 743.967L907.868 695.013L823.173 743.967L823.173 841.876L907.868 890.83L992.564 841.876L992.564 743.967Z" fill="#D0D9DD"/>
<path opacity="0.5" d="M822.486 1137.61L908.527 1187.36L908.527 1286.85L908.183 1287.05L822.486 1336.6L736.445 1286.85L736.445 1187.36L736.788 1187.16L822.486 1137.61ZM907.181 1188.14L822.486 1139.18L737.79 1188.14L737.79 1286.05L822.486 1335L907.181 1286.05L907.181 1188.14Z" fill="#D0D9DD"/>
<path opacity="0.5" d="M737.132 989.54L823.173 1039.3L823.173 1138.78L822.829 1138.98L737.132 1188.54L651.091 1138.78L651.091 1039.3L651.434 1039.1L737.132 989.54ZM821.827 1040.07L737.132 991.117L652.436 1040.07L652.436 1137.98L737.132 1186.93L821.827 1137.98L821.827 1040.07Z" fill="#D0D9DD"/>
<path opacity="0.5" d="M481.041 1137.61L567.082 1187.36L567.082 1286.85L566.738 1287.05L481.041 1336.6L395 1286.85L395 1187.36L395.343 1187.16L481.041 1137.61ZM565.737 1188.14L481.041 1139.18L396.345 1188.14L396.345 1286.05L481.041 1335L565.737 1286.05L565.737 1188.14Z" fill="#D0D9DD"/>
<path opacity="0.5" d="M1078.58 199.911L1078.92 200.112L1164.62 249.668L1164.62 349.152L1164.27 349.353L1078.58 398.909L1078.23 398.709L992.535 349.152L992.535 249.668L992.879 249.467L1078.58 199.911ZM1163.27 250.442L1078.58 201.487L993.881 250.442L993.881 348.35L1078.58 397.304L1163.27 348.35L1163.27 250.442Z" fill="#D0D9DD"/>
<path opacity="0.5" d="M993.222 347.433L993.566 347.633L1079.26 397.189L1079.26 496.674L1078.92 496.875L993.222 546.431L992.879 546.23L907.181 496.674L907.181 397.189L907.525 396.989L993.222 347.433ZM1077.92 397.963L993.222 349.009L908.527 397.963L908.527 495.872L993.222 544.826L1077.92 495.872L1077.92 397.963Z" fill="#D0D9DD"/>
<path opacity="0.5" d="M993.222 644.081L1079.26 693.838L1079.26 793.323L1078.92 793.523L993.222 843.079L907.181 793.323L907.181 693.838L907.525 693.637L993.222 644.081ZM1077.92 694.612L993.222 645.658L908.527 694.612L908.527 792.52L993.222 841.474L1077.92 792.52L1077.92 694.612Z" fill="#D0D9DD"/>
<path d="M737.132 792.52L823.516 842.449L823.516 942.335L823.001 942.621L737.132 992.263L650.747 942.335L650.747 842.449L651.262 842.162L737.132 792.52ZM821.484 843.653L737.132 794.899L652.779 843.653L652.779 941.16L737.132 989.913L821.484 941.16L821.484 843.653Z" fill="white"/>
<path d="M1078.58 693.036L1164.96 742.964L1164.96 842.85L1164.45 843.137L1078.58 892.779L992.192 842.85L992.192 742.964L992.707 742.678L1078.58 693.036ZM1162.93 744.168L1078.58 695.414L994.224 744.168L994.224 841.675L1078.58 890.429L1162.93 841.675L1162.93 744.168Z" fill="white"/>
<path d="M1078.58 298.192L1079.09 298.479L1164.96 348.121L1164.96 448.007L1164.45 448.293L1078.58 497.935L1078.06 497.649L992.192 448.007L992.192 348.121L992.707 347.834L1078.58 298.192ZM1162.93 349.324L1078.58 300.571L994.224 349.324L994.224 446.832L1078.58 495.585L1162.93 446.832L1162.93 349.324Z" fill="white"/>
<path d="M1078.58 989.139L1164.96 1039.07L1164.96 1138.95L1164.45 1139.24L1078.58 1188.88L992.192 1138.95L992.192 1039.07L992.707 1038.78L1078.58 989.139ZM1162.93 1040.27L1078.58 991.518L994.224 1040.27L994.224 1137.78L1078.58 1186.53L1162.93 1137.78L1162.93 1040.27Z" fill="white"/>
<path d="M993.222 1137.21L1079.61 1187.13L1079.61 1287.02L1079.09 1287.31L993.222 1336.95L906.838 1287.02L906.838 1187.13L907.353 1186.85L993.222 1137.21ZM1077.57 1188.34L993.222 1139.58L908.87 1188.34L908.87 1285.85L993.222 1334.6L1077.57 1285.85L1077.57 1188.34Z" fill="white"/>
<path d="M907.868 890.457L994.253 940.386L994.253 1040.27L993.737 1040.56L907.868 1090.2L821.484 1040.27L821.484 940.386L821.999 940.099L907.868 890.457ZM992.22 941.59L907.868 892.836L823.516 941.59L823.516 1039.1L907.868 1087.85L992.22 1039.1L992.22 941.59Z" fill="white"/>
<path d="M907.868 594.353L908.383 594.64L994.253 644.282L994.253 744.168L993.737 744.454L907.868 794.096L821.484 744.168L821.484 644.282L821.999 643.995L907.868 594.353ZM992.22 645.486L907.868 596.732L823.516 645.486L823.516 742.993L907.868 791.746L992.22 742.993L992.22 645.486Z" fill="white"/>
<path d="M907.868 396.932L908.384 397.218L994.253 446.86L994.253 546.746L993.738 547.033L907.868 596.675L907.353 596.388L821.484 546.746L821.484 446.86L821.999 446.574L907.868 396.932ZM992.221 448.064L907.868 399.31L823.516 448.064L823.516 545.571L907.868 594.325L992.221 545.571L992.221 448.064Z" fill="white"/>
<path d="M822.486 1038.49L908.87 1088.42L908.87 1188.31L908.355 1188.6L822.486 1238.24L736.101 1188.31L736.101 1088.42L736.616 1088.14L822.486 1038.49ZM906.838 1089.63L822.486 1040.87L738.133 1089.63L738.133 1187.13L822.486 1235.89L906.838 1187.13L906.838 1089.63Z" fill="white"/>
<path d="M651.778 1137.21L738.162 1187.13L738.162 1287.02L737.647 1287.31L651.778 1336.95L565.393 1287.02L565.393 1187.13L565.908 1186.85L651.778 1137.21ZM736.13 1188.34L651.778 1139.58L567.425 1188.34L567.425 1285.84L651.778 1334.6L736.13 1285.84L736.13 1188.34Z" fill="white"/>
<path d="M566.395 1186.56L652.779 1236.49L652.779 1336.38L652.264 1336.66L566.395 1386.3L480.01 1336.38L480.01 1236.49L480.526 1236.2L566.395 1186.56ZM650.747 1237.69L566.395 1188.94L482.043 1237.69L482.043 1335.2L566.395 1383.95L650.747 1335.2L650.747 1237.69Z" fill="white"/>
<path opacity="0.5" d="M1072.45 10.6335L1072.45 3.55404L1078.58 1.94892e-05L1084.73 3.55404L1084.73 10.6335L1078.58 14.1875L1072.45 10.6335Z" fill="#D0D9DD"/>
<path opacity="0.5" d="M987.097 1147.04L987.097 1139.96L993.222 1136.44L999.348 1139.96L999.348 1147.04L993.222 1150.59L987.097 1147.04Z" fill="#D0D9DD"/>
<path opacity="0.5" d="M990.704 1046.35L990.704 1043.46L993.222 1042L995.741 1043.46L995.741 1046.35L993.222 1047.81L990.704 1046.35Z" fill="#D0D9DD"/>
<path opacity="0.5" d="M986.839 851.367L986.839 843.972L993.222 840.303L999.605 843.972L999.605 851.367L993.222 855.064L986.839 851.367Z" fill="#D0D9DD"/>
<path opacity="0.5" d="M986.639 752.856L986.639 745.261L993.222 741.478L999.806 745.261L999.806 752.856L993.222 756.668L986.639 752.856Z" fill="#D0D9DD"/>
<path opacity="0.5" d="M1069.27 606.022L1069.27 595.246L1078.58 589.857L1087.91 595.246L1087.91 606.022L1078.58 611.411L1069.27 606.022Z" fill="#D0D9DD"/>
<path opacity="0.5" d="M1154.63 557.241L1154.63 546.464L1163.96 541.075L1173.26 546.464L1173.26 557.241L1163.96 562.629L1154.63 557.241Z" fill="#D0D9DD"/>
<path opacity="0.5" d="M1070.91 999.863L1070.91 990.978L1078.58 986.507L1086.28 990.978L1086.28 999.863L1078.58 1004.31L1070.91 999.863Z" fill="#D0D9DD"/>
<path opacity="0.5" d="M903.518 1195.36L903.518 1190.35L907.868 1187.85L912.19 1190.35L912.19 1195.36L907.868 1197.86L903.518 1195.36Z" fill="#D0D9DD"/>
<path opacity="0.5" d="M817.219 1146.55L817.219 1140.45L822.486 1137.41L827.781 1140.45L827.781 1146.55L822.486 1149.62L817.219 1146.55Z" fill="#D0D9DD"/>
<path opacity="0.5" d="M817.362 653.429L817.362 647.496L822.486 644.515L827.638 647.496L827.638 653.429L822.486 656.41L817.362 653.429Z" fill="#D0D9DD"/>
<path opacity="0.5" d="M817.906 554.489L817.906 549.187L822.486 546.55L827.094 549.187L827.094 554.489L822.486 557.155L817.906 554.489Z" fill="#D0D9DD"/>
<path opacity="0.5" d="M813.784 359.647L813.784 349.586L822.486 344.571L831.216 349.586L831.216 359.647L822.486 364.691L813.784 359.647Z" fill="#D0D9DD"/>
<path opacity="0.5" d="M905.464 1095.71L905.464 1092.93L907.868 1091.52L910.273 1092.93L910.273 1095.71L907.868 1097.08L905.464 1095.71Z" fill="#D0D9DD"/>
<path opacity="0.5" d="M903.346 702.727L903.346 697.511L907.868 694.903L912.391 697.511L912.391 702.727L907.868 705.364L903.346 702.727Z" fill="#D0D9DD"/>
<path opacity="0.5" d="M905.722 504.274L905.722 501.78L907.868 500.547L910.015 501.78L910.015 504.274L907.868 505.535L905.722 504.274Z" fill="#D0D9DD"/>
<path opacity="0.5" d="M901.657 309.518L901.657 302.352L907.868 298.769L914.051 302.352L914.051 309.518L907.868 313.1L901.657 309.518Z" fill="#D0D9DD"/>
<path opacity="0.5" d="M648.228 1046.95L648.228 1042.86L651.777 1040.79L655.327 1042.86L655.327 1046.95L651.777 1049.02L648.228 1046.95Z" fill="#D0D9DD"/>
<path opacity="0.5" d="M645.939 949.676L645.939 942.912L651.778 939.53L657.617 942.912L657.617 949.676L651.778 953.058L645.939 949.676Z" fill="#D0D9DD"/>
<path opacity="0.5" d="M645.423 851.338L645.423 844L651.778 840.36L658.103 844L658.103 851.338L651.778 855.007L645.423 851.338Z" fill="#D0D9DD"/>
<path opacity="0.5" d="M729.718 1098.6L729.718 1090.03L737.132 1085.73L744.545 1090.03L744.545 1098.6L737.132 1102.87L729.718 1098.6Z" fill="#D0D9DD"/>
<path opacity="0.5" d="M731.064 999.29L731.064 992.239L737.132 988.742L743.2 992.239L743.2 999.29L737.132 1002.79L731.064 999.29Z" fill="#D0D9DD"/>
<path opacity="0.5" d="M732.638 604.188L732.638 598.972L737.132 596.392L741.625 598.972L741.625 604.188L737.132 606.768L732.638 604.188Z" fill="#D0D9DD"/>
<path opacity="0.5" d="M562.073 1195.36L562.073 1190.35L566.395 1187.85L570.717 1190.35L570.717 1195.36L566.395 1197.86L562.073 1195.36Z" fill="#D0D9DD"/>
<path opacity="0.5" d="M473.255 950.794L473.255 941.794L481.041 937.266L488.826 941.794L488.826 950.794L481.041 955.294L473.255 950.794Z" fill="#D0D9DD"/>
<path opacity="0.5" d="M557.694 1000.81L557.694 990.72L566.395 985.675L575.125 990.72L575.125 1000.81L566.395 1005.85L557.694 1000.81Z" fill="#D0D9DD"/>
<path opacity="0.5" d="M1155.54 161.336L1155.54 151.62L1163.96 146.776L1172.37 151.62L1172.37 161.336L1163.96 166.209L1155.54 161.336Z" fill="#D0D9DD"/>
<path d="M990.16 356.408L990.16 352.854L993.222 351.048L996.314 352.854L996.314 356.408L993.222 358.185L990.16 356.408Z" fill="white"/>
<path d="M987.097 654.002L987.097 646.923L993.222 643.369L999.348 646.923L999.348 654.002L993.222 657.556L987.097 654.002Z" fill="white"/>
<path d="M901.743 604.647L901.743 597.567L907.868 594.013L913.994 597.567L913.994 604.647L907.868 608.201L901.743 604.647Z" fill="white"/>
<path d="M1157.83 752.684L1157.83 745.605L1163.96 742.051L1170.08 745.605L1170.08 752.684L1163.96 756.239L1157.83 752.684Z" fill="white"/>
<path d="M983.92 458.615L983.92 447.839L993.222 442.45L1002.55 447.839L1002.55 458.615L993.222 464.004L983.92 458.615Z" fill="white"/>
<path d="M988.299 258.872L988.299 253.169L993.222 250.303L998.146 253.169L998.146 258.872L993.222 261.71L988.299 258.872Z" fill="white"/>
<path d="M818.908 751.137L818.908 746.981L822.486 744.917L826.092 746.981L826.092 751.137L822.486 753.229L818.908 751.137Z" fill="white"/>
<path d="M1072.37 1196.45L1072.37 1189.26L1078.58 1185.65L1084.82 1189.26L1084.82 1196.45L1078.58 1200.06L1072.37 1196.45Z" fill="white"/>
<path d="M1157.72 1147.1L1157.72 1139.9L1163.96 1136.32L1170.17 1139.9L1170.17 1147.1L1163.96 1150.71L1157.72 1147.1Z" fill="white"/>
<path d="M1074.17 407.053L1074.17 401.923L1078.58 399.372L1083.01 401.923L1083.01 407.053L1078.58 409.604L1074.17 407.053Z" fill="white"/>
<path d="M818.908 1046.98L818.908 1042.83L822.486 1040.76L826.092 1042.83L826.092 1046.98L822.486 1049.05L818.908 1046.98Z" fill="white"/>
<path d="M817.791 949.017L817.791 943.571L822.485 940.848L827.208 943.571L827.208 949.017L822.485 951.711L817.791 949.017Z" fill="white"/>
<path d="M816.275 456.839L816.275 449.645L822.486 446.033L828.726 449.645L828.726 456.839L822.486 460.421L816.275 456.839Z" fill="white"/>
<path d="M899.224 1000.75L899.224 990.777L907.868 985.761L916.512 990.777L916.512 1000.75L907.868 1005.77L899.224 1000.75Z" fill="white"/>
<path d="M901.428 900.923L901.428 893.499L907.868 889.773L914.28 893.499L914.28 900.923L907.868 904.649L901.428 900.923Z" fill="white"/>
<path d="M1157.52 949.992L1157.52 942.568L1163.96 938.842L1170.37 942.568L1170.37 949.992L1163.96 953.718L1157.52 949.992Z" fill="white"/>
<path d="M900.884 802.699L900.884 794.645L907.868 790.604L914.824 794.645L914.824 802.699L907.868 806.74L900.884 802.699Z" fill="white"/>
<path d="M903.632 406.938L903.632 402.037L907.868 399.601L912.076 402.037L912.076 406.938L907.868 409.375L903.632 406.938Z" fill="white"/>
<path d="M903.06 210.176L903.06 204.616L907.868 201.864L912.648 204.616L912.648 210.176L907.868 212.928L903.06 210.176Z" fill="white"/>
<path d="M645.652 1147.04L645.652 1139.96L651.777 1136.44L657.903 1139.96L657.903 1147.04L651.777 1150.59L645.652 1147.04Z" fill="white"/>
<path d="M648.715 750.821L648.715 747.296L651.777 745.548L654.812 747.296L654.812 750.821L651.777 752.57L648.715 750.821Z" fill="white"/>
<path d="M730.005 901.353L730.005 893.098L737.132 888.971L744.259 893.098L744.259 901.353L737.132 905.451L730.005 901.353Z" fill="white"/>
<path d="M733.811 800.607L733.811 796.737L737.132 794.817L740.452 796.737L740.452 800.607L737.132 802.527L733.811 800.607Z" fill="white"/>
<path d="M476.461 1047.56L476.461 1042.25L481.041 1039.62L485.621 1042.25L485.621 1047.56L481.041 1050.19L476.461 1047.56Z" fill="white"/>
</g>
<defs>
<filter id="filter0_f_315_342" x="0" y="11" width="1764" height="1764" filterUnits="userSpaceOnUse" color-interpolation-filters="sRGB">
<feFlood flood-opacity="0" result="BackgroundImageFix"/>
<feBlend mode="normal" in="SourceGraphic" in2="BackgroundImageFix" result="shape"/>
<feGaussianBlur stdDeviation="202" result="effect1_foregroundBlur_315_342"/>
</filter>
<clipPath id="clip0_315_342">
<rect width="855" height="1243" fill="white" transform="translate(1250 1243) rotate(-180)"/>
</clipPath>
</defs>
</svg>
