<svg width="423" height="588" viewBox="0 0 423 588" fill="none" xmlns="http://www.w3.org/2000/svg">
<g opacity="0.7" filter="url(#filter0_f_346_587)">
<circle cx="129.497" cy="293.825" r="132.497" fill="#B95DFE"/>
</g>
<g style="mix-blend-mode:overlay" clip-path="url(#clip0_346_587)">
<path opacity="0.5" d="M72.1138 273.59L95.6856 259.963L95.6855 232.718L95.5915 232.663L72.1138 219.092L48.5421 232.718L48.5421 259.963L48.6362 260.018L72.1138 273.59ZM95.317 259.751L72.1138 273.158L48.9106 259.751L48.9106 232.938L72.1138 219.531L95.317 232.938L95.317 259.751Z" fill="#D0D9DD"/>
<path opacity="0.5" d="M142.272 206.007L165.844 192.38L165.844 165.135L165.75 165.08L142.272 151.509L118.7 165.135L118.7 192.38L118.794 192.435L142.272 206.007ZM165.475 192.168L142.272 205.575L119.069 192.168L119.069 165.355L142.272 151.948L165.475 165.355L165.475 192.168Z" fill="#D0D9DD"/>
<path opacity="0.5" d="M142.272 287.106L165.844 273.48L165.844 246.235L165.75 246.18L142.272 232.608L118.7 246.235L118.7 273.48L118.794 273.535L142.272 287.106ZM165.475 273.268L142.272 286.674L119.069 273.268L119.069 246.454L142.272 233.048L165.475 246.454L165.475 273.268Z" fill="#D0D9DD"/>
<path opacity="0.5" d="M142.272 395.223L142.366 395.168L165.844 381.596L165.844 354.351L165.75 354.296L142.272 340.725L118.7 354.351L118.7 381.596L118.794 381.651L142.272 395.223ZM165.475 381.384L142.272 394.791L119.069 381.384L119.069 354.571L142.272 341.164L165.475 354.571L165.475 381.384Z" fill="#D0D9DD"/>
<path opacity="0.5" d="M118.889 192.49L142.46 178.864L142.46 151.626L142.366 151.572L118.889 138L95.317 151.626L95.317 178.872L95.4111 178.926L118.889 192.498L118.889 192.49ZM142.092 178.652L118.889 192.058L95.6855 178.652L95.6855 151.838L118.889 138.432L142.092 151.838L142.092 178.652Z" fill="#D0D9DD"/>
<path opacity="0.5" d="M118.889 246.556L142.46 232.93L142.46 205.685L142.366 205.63L118.889 192.058L95.317 205.685L95.317 232.93L95.4111 232.985L118.889 246.556ZM142.092 232.718L118.889 246.125L95.6855 232.718L95.6855 205.905L118.889 192.498L142.092 205.905L142.092 232.718Z" fill="#D0D9DD"/>
<path opacity="0.5" d="M118.889 300.615L142.46 286.988L142.46 259.743L142.366 259.688L118.889 246.117L95.317 259.743L95.317 286.988L95.4111 287.043L118.889 300.615ZM142.092 286.776L118.889 300.183L95.6855 286.776L95.6855 259.963L118.889 246.556L142.092 259.963L142.092 286.776Z" fill="#D0D9DD"/>
<path opacity="0.5" d="M118.889 327.648L142.46 314.021L142.46 286.776L142.366 286.721L118.889 273.15L95.317 286.776L95.317 314.021L95.4111 314.076L118.889 327.648ZM142.092 313.809L118.889 327.216L95.6855 313.809L95.6855 286.996L118.889 273.589L142.092 286.996L142.092 313.809Z" fill="#D0D9DD"/>
<path opacity="0.5" d="M72.1138 327.648L95.6856 314.021L95.6855 286.776L95.5915 286.721L72.1138 273.15L48.5421 286.776L48.5421 314.021L48.6362 314.076L72.1138 327.648ZM95.317 313.809L72.1138 327.216L48.9106 313.809L48.9106 286.996L72.1138 273.589L95.317 286.996L95.317 313.809Z" fill="#D0D9DD"/>
<path opacity="0.5" d="M118.889 408.739L118.983 408.684L142.46 395.113L142.46 367.868L142.366 367.813L118.889 354.241L95.317 367.868L95.317 395.113L95.4111 395.168L118.889 408.739ZM142.092 394.901L118.889 408.308L95.6855 394.901L95.6855 368.088L118.889 354.681L142.092 368.088L142.092 394.901Z" fill="#D0D9DD"/>
<path opacity="0.5" d="M165.664 408.739L165.758 408.684L189.235 395.121L189.235 367.876L189.141 367.821L165.664 354.249L142.092 367.876L142.092 395.121L142.186 395.176L165.664 408.747L165.664 408.739ZM188.859 394.901L165.656 408.308L142.453 394.901L142.453 368.088L165.656 354.681L188.859 368.088L188.859 394.901Z" fill="#D0D9DD"/>
<path opacity="0.5" d="M95.5054 206.007L119.077 192.38L119.077 165.135L118.983 165.08L95.5054 151.509L71.9337 165.135L71.9337 192.38L72.0278 192.435L95.5054 206.007ZM118.709 192.168L95.5054 205.575L72.3022 192.168L72.3022 165.355L95.5054 151.948L118.709 165.355L118.709 192.168Z" fill="#D0D9DD"/>
<path opacity="0.5" d="M95.5049 341.164L119.077 327.538L119.077 300.293L118.983 300.238L95.5049 286.667L71.9332 300.293L71.9332 327.538L72.0273 327.593L95.5049 341.164ZM118.708 327.326L95.5049 340.733L72.3017 327.326L72.3017 300.513L95.5049 287.106L118.708 300.513L118.708 327.326Z" fill="#D0D9DD"/>
<path opacity="0.5" d="M72.1138 219.523L95.6856 205.897L95.6855 178.652L95.5915 178.597L72.1138 165.025L48.5421 178.652L48.5421 205.897L48.6362 205.952L72.1138 219.523ZM95.317 205.685L72.1138 219.091L48.9106 205.685L48.9106 178.871L72.1138 165.465L95.317 178.871L95.317 205.685Z" fill="#D0D9DD"/>
<path opacity="0.5" d="M48.7305 260.073L72.3022 246.446L72.3022 219.201L72.2081 219.146L48.7305 205.575L25.1588 219.201L25.1588 246.446L25.2529 246.501L48.7305 260.073ZM71.9337 246.235L48.7305 259.641L25.5273 246.235L25.5273 219.421L48.7305 206.015L71.9337 219.421L71.9337 246.235Z" fill="#D0D9DD"/>
<path opacity="0.5" d="M-21.4282 219.523L2.14356 205.897L2.14356 178.652L2.04945 178.597L-21.4282 165.025L-44.9999 178.652L-44.9999 205.897L-44.9058 205.952L-21.4282 219.523ZM1.775 205.685L-21.4282 219.091L-44.6314 205.685L-44.6314 178.871L-21.4282 165.465L1.775 178.871L1.775 205.685Z" fill="#D0D9DD"/>
<path opacity="0.5" d="M142.272 476.322L142.366 476.267L165.844 462.696L165.844 435.451L165.75 435.396L142.272 421.824L142.178 421.879L118.7 435.451L118.7 462.696L118.794 462.751L142.272 476.322ZM165.475 462.484L142.272 475.89L119.069 462.484L119.069 435.67L142.272 422.264L165.475 435.67L165.475 462.484Z" fill="#D0D9DD"/>
<path opacity="0.5" d="M118.889 435.922L118.983 435.867L142.46 422.295L142.46 395.05L142.366 394.995L118.889 381.424L118.795 381.479L95.317 395.05L95.317 422.295L95.4111 422.35L118.889 435.922ZM142.092 422.083L118.889 435.49L95.6855 422.083L95.6855 395.27L118.889 381.863L142.092 395.27L142.092 422.083Z" fill="#D0D9DD"/>
<path opacity="0.5" d="M118.889 354.681L142.46 341.054L142.46 313.809L142.366 313.754L118.889 300.183L95.317 313.809L95.317 341.055L95.4111 341.109L118.889 354.681ZM142.092 340.843L118.889 354.249L95.6855 340.843L95.6855 314.029L118.889 300.623L142.092 314.029L142.092 340.843Z" fill="#D0D9DD"/>
<path d="M48.7302 314.029L72.396 300.356L72.396 273.001L72.2549 272.922L48.7302 259.327L25.0643 273.001L25.0643 300.356L25.2055 300.434L48.7302 314.029ZM71.8392 300.026L48.7302 313.378L25.6211 300.026L25.6211 273.323L48.7302 259.971L71.8392 273.323L71.8392 300.026Z" fill="white"/>
<path d="M142.273 341.274L165.938 327.601L165.938 300.246L165.797 300.167L142.273 286.572L118.607 300.246L118.607 327.601L118.748 327.679L142.273 341.274ZM165.382 327.271L142.273 340.623L119.164 327.271L119.164 300.568L142.273 287.216L165.382 300.568L165.382 327.271Z" fill="white"/>
<path d="M142.273 449.407L142.414 449.328L165.938 435.733L165.938 408.378L165.797 408.3L142.273 394.705L142.131 394.783L118.607 408.378L118.607 435.733L118.748 435.812L142.273 449.407ZM165.382 435.404L142.273 448.755L119.164 435.404L119.164 408.7L142.273 395.348L165.382 408.7L165.382 435.404Z" fill="white"/>
<path d="M142.273 260.183L165.938 246.509L165.938 219.154L165.797 219.076L142.273 205.481L118.607 219.154L118.607 246.509L118.748 246.588L142.273 260.183ZM165.382 246.18L142.273 259.531L119.164 246.18L119.164 219.476L142.273 206.124L165.382 219.476L165.382 246.18Z" fill="white"/>
<path d="M118.889 219.633L142.555 205.96L142.555 178.605L142.414 178.526L118.889 164.931L95.223 178.605L95.223 205.96L95.3642 206.038L118.889 219.633ZM141.998 205.63L118.889 218.982L95.7798 205.63L95.7798 178.927L118.889 165.575L141.998 178.927L141.998 205.63Z" fill="white"/>
<path d="M95.5051 287.208L119.171 273.535L119.171 246.18L119.03 246.101L95.5051 232.506L71.8392 246.18L71.8392 273.535L71.9804 273.613L95.5051 287.208ZM118.614 273.205L95.5051 286.557L72.396 273.205L72.396 246.501L95.5051 233.15L118.614 246.501L118.614 273.205Z" fill="white"/>
<path d="M95.5051 368.3L95.6462 368.221L119.171 354.626L119.171 327.271L119.03 327.193L95.5051 313.598L71.8392 327.271L71.8392 354.626L71.9804 354.705L95.5051 368.3ZM118.614 354.296L95.5051 367.648L72.396 354.296L72.396 327.593L95.5051 314.241L118.614 327.593L118.614 354.296Z" fill="white"/>
<path d="M95.5051 422.366L95.6462 422.287L119.171 408.692L119.171 381.337L119.03 381.259L95.5051 367.664L95.3639 367.742L71.8392 381.337L71.8392 408.692L71.9804 408.771L95.5051 422.366ZM118.614 408.363L95.5051 421.714L72.396 408.363L72.396 381.659L95.5051 368.307L118.614 381.659L118.614 408.363Z" fill="white"/>
<path d="M72.114 246.666L95.7798 232.993L95.7798 205.638L95.6386 205.559L72.1139 191.964L48.4481 205.638L48.4481 232.993L48.5893 233.071L72.114 246.666ZM95.223 232.663L72.114 246.015L49.0049 232.663L49.0049 205.959L72.1139 192.608L95.223 205.959L95.223 232.663Z" fill="white"/>
<path d="M25.3469 219.633L49.0127 205.96L49.0127 178.605L48.8716 178.526L25.3469 164.931L1.68104 178.605L1.68104 205.96L1.82218 206.038L25.3469 219.633ZM48.456 205.63L25.3469 218.982L2.23778 205.63L2.23778 178.927L25.3469 165.575L48.456 178.927L48.456 205.63Z" fill="white"/>
<path d="M1.95526 206.117L25.6211 192.443L25.6211 165.088L25.4799 165.01L1.95525 151.415L-21.7106 165.088L-21.7106 192.443L-21.5694 192.522L1.95526 206.117ZM25.0643 192.113L1.95526 205.465L-21.1538 192.113L-21.1538 165.41L1.95525 152.058L25.0643 165.41L25.0643 192.113Z" fill="white"/>
<path opacity="0.5" d="M140.594 475.498L140.594 477.437L142.272 478.41L143.958 477.437L143.958 475.498L142.272 474.525L140.594 475.498Z" fill="#D0D9DD"/>
<path opacity="0.5" d="M117.211 164.279L117.211 166.218L118.889 167.184L120.567 166.218L120.567 164.279L118.889 163.306L117.211 164.279Z" fill="#D0D9DD"/>
<path opacity="0.5" d="M118.199 191.854L118.199 192.647L118.889 193.047L119.579 192.647L119.579 191.854L118.889 191.454L118.199 191.854Z" fill="#D0D9DD"/>
<path opacity="0.5" d="M117.14 245.253L117.14 247.278L118.889 248.283L120.638 247.278L120.638 245.253L118.889 244.241L117.14 245.253Z" fill="#D0D9DD"/>
<path opacity="0.5" d="M117.085 272.231L117.085 274.312L118.889 275.348L120.692 274.312L120.692 272.231L118.889 271.188L117.085 272.231Z" fill="#D0D9DD"/>
<path opacity="0.5" d="M139.724 312.444L139.724 315.395L142.272 316.871L144.829 315.395L144.829 312.444L142.272 310.968L139.724 312.444Z" fill="#D0D9DD"/>
<path opacity="0.5" d="M163.108 325.803L163.108 328.755L165.664 330.23L168.212 328.755L168.212 325.803L165.664 324.328L163.108 325.803Z" fill="#D0D9DD"/>
<path opacity="0.5" d="M140.171 204.586L140.171 207.019L142.272 208.244L144.382 207.019L144.382 204.586L142.272 203.369L140.171 204.586Z" fill="#D0D9DD"/>
<path opacity="0.5" d="M94.3135 151.045L94.3135 152.419L95.5054 153.102L96.6895 152.419L96.6895 151.045L95.5054 150.363L94.3135 151.045Z" fill="#D0D9DD"/>
<path opacity="0.5" d="M70.6709 164.413L70.6709 166.085L72.1138 166.917L73.5645 166.085L73.5645 164.413L72.1138 163.573L70.6709 164.413Z" fill="#D0D9DD"/>
<path opacity="0.5" d="M70.7103 299.461L70.7103 301.086L72.1139 301.902L73.5254 301.086L73.5254 299.461L72.1139 298.645L70.7103 299.461Z" fill="#D0D9DD"/>
<path opacity="0.5" d="M70.8588 326.557L70.8588 328.009L72.1135 328.731L73.376 328.009L73.376 326.557L72.1135 325.827L70.8588 326.557Z" fill="#D0D9DD"/>
<path opacity="0.5" d="M69.7304 379.917L69.7304 382.672L72.1142 384.045L74.5059 382.672L74.5059 379.917L72.1142 378.535L69.7304 379.917Z" fill="#D0D9DD"/>
<path opacity="0.5" d="M94.8462 178.338L94.8462 179.099L95.5049 179.484L96.1636 179.099L96.1636 178.338L95.5049 177.961L94.8462 178.338Z" fill="#D0D9DD"/>
<path opacity="0.5" d="M94.2662 285.96L94.2662 287.389L95.5052 288.103L96.7441 287.389L96.7441 285.96L95.5052 285.238L94.2662 285.96Z" fill="#D0D9DD"/>
<path opacity="0.5" d="M94.917 340.309L94.917 340.992L95.5051 341.329L96.0933 340.992L96.0933 340.309L95.5051 339.964L94.917 340.309Z" fill="#D0D9DD"/>
<path opacity="0.5" d="M93.8033 393.645L93.8033 395.607L95.505 396.589L97.1987 395.607L97.1987 393.645L95.505 392.664L93.8033 393.645Z" fill="#D0D9DD"/>
<path opacity="0.5" d="M24.3746 191.689L24.3746 192.812L25.347 193.377L26.3193 192.812L26.3193 191.689L25.347 191.124L24.3746 191.689Z" fill="#D0D9DD"/>
<path opacity="0.5" d="M23.7469 218.33L23.7469 220.182L25.3466 221.109L26.9463 220.182L26.9463 218.33L25.3466 217.404L23.7469 218.33Z" fill="#D0D9DD"/>
<path opacity="0.5" d="M23.6058 245.261L23.6058 247.271L25.3466 248.267L27.0796 247.271L27.0796 245.261L25.3466 244.256L23.6058 245.261Z" fill="#D0D9DD"/>
<path opacity="0.5" d="M46.6993 177.545L46.6993 179.892L48.7303 181.069L50.7612 179.892L50.7612 177.545L48.7303 176.375L46.6993 177.545Z" fill="#D0D9DD"/>
<path opacity="0.5" d="M47.0678 204.743L47.0678 206.674L48.7302 207.632L50.3926 206.674L50.3926 204.743L48.7302 203.785L47.0678 204.743Z" fill="#D0D9DD"/>
<path opacity="0.5" d="M47.4992 312.946L47.4992 314.375L48.7303 315.081L49.9614 314.375L49.9614 312.946L48.7303 312.24L47.4992 312.946Z" fill="#D0D9DD"/>
<path opacity="0.5" d="M0.771505 151.046L0.771505 152.419L1.95558 153.102L3.13965 152.419L3.13965 151.046L1.95558 150.363L0.771505 151.046Z" fill="#D0D9DD"/>
<path opacity="0.5" d="M-0.428341 204.327L-0.428341 207.09L1.95549 208.471L4.34717 207.09L4.34717 204.327L1.95549 202.946L-0.428341 204.327Z" fill="#D0D9DD"/>
<path opacity="0.5" d="M163.358 434.226L163.358 436.887L165.664 438.214L167.969 436.887L167.969 434.226L165.664 432.892L163.358 434.226Z" fill="#D0D9DD"/>
<path d="M118.049 380.804L118.049 381.777L118.888 382.271L119.735 381.777L119.735 380.804L118.888 380.317L118.049 380.804Z" fill="white"/>
<path d="M117.211 299.304L117.211 301.243L118.889 302.216L120.567 301.243L120.567 299.304L118.889 298.331L117.211 299.304Z" fill="white"/>
<path d="M93.8269 312.82L93.8269 314.759L95.505 315.733L97.1831 314.759L97.1831 312.82L95.505 311.847L93.8269 312.82Z" fill="white"/>
<path d="M163.986 272.279L163.986 274.217L165.664 275.191L167.342 274.217L167.342 272.279L165.664 271.305L163.986 272.279Z" fill="white"/>
<path d="M116.34 352.813L116.34 355.764L118.888 357.24L121.445 355.764L121.445 352.813L118.888 351.337L116.34 352.813Z" fill="white"/>
<path d="M117.54 407.515L117.54 409.077L118.889 409.862L120.237 409.077L120.237 407.515L118.889 406.738L117.54 407.515Z" fill="white"/>
<path d="M71.1338 272.702L71.1338 273.841L72.114 274.406L73.1021 273.841L73.1021 272.702L72.114 272.129L71.1338 272.702Z" fill="white"/>
<path d="M140.57 150.747L140.57 152.718L142.272 153.707L143.981 152.718L143.981 150.747L142.272 149.758L140.57 150.747Z" fill="white"/>
<path d="M163.954 164.264L163.954 166.234L165.664 167.215L167.365 166.234L167.365 164.264L165.664 163.275L163.954 164.264Z" fill="white"/>
<path d="M141.065 366.934L141.065 368.339L142.272 369.037L143.488 368.339L143.488 366.934L142.272 366.235L141.065 366.934Z" fill="white"/>
<path d="M71.1338 191.682L71.1338 192.82L72.114 193.385L73.1021 192.82L73.1021 191.682L72.114 191.116L71.1338 191.682Z" fill="white"/>
<path d="M70.8278 218.511L70.8278 220.002L72.1139 220.748L73.4077 220.002L73.4077 218.511L72.1139 217.773L70.8278 218.511Z" fill="white"/>
<path d="M70.4122 353.299L70.4122 355.27L72.1138 356.259L73.8232 355.27L73.8232 353.299L72.1138 352.318L70.4122 353.299Z" fill="white"/>
<path d="M93.1372 204.343L93.1372 207.074L95.5054 208.448L97.8735 207.074L97.8735 204.343L95.5054 202.969L93.1372 204.343Z" fill="white"/>
<path d="M93.7409 231.682L93.7409 233.715L95.5052 234.735L97.2617 233.715L97.2617 231.682L95.5052 230.661L93.7409 231.682Z" fill="white"/>
<path d="M163.9 218.244L163.9 220.277L165.664 221.297L167.42 220.277L167.42 218.244L165.664 217.223L163.9 218.244Z" fill="white"/>
<path d="M93.5918 258.582L93.5918 260.787L95.5051 261.894L97.4106 260.787L97.4106 258.582L95.5051 257.475L93.5918 258.582Z" fill="white"/>
<path d="M94.3445 366.965L94.3445 368.307L95.505 368.975L96.6577 368.307L96.6577 366.965L95.505 366.298L94.3445 366.965Z" fill="white"/>
<path d="M94.188 420.851L94.188 422.374L95.5054 423.127L96.8149 422.374L96.8149 420.851L95.5054 420.097L94.188 420.851Z" fill="white"/>
<path d="M23.6687 164.279L23.6687 166.218L25.3468 167.184L27.0249 166.218L27.0249 164.279L25.3468 163.306L23.6687 164.279Z" fill="white"/>
<path d="M24.5075 272.789L24.5075 273.754L25.3465 274.233L26.1777 273.754L26.1777 272.789L25.3465 272.31L24.5075 272.789Z" fill="white"/>
<path d="M46.778 231.564L46.778 233.825L48.7306 234.955L50.6831 233.825L50.6831 231.564L48.7306 230.442L46.778 231.564Z" fill="white"/>
<path d="M47.8209 259.155L47.8209 260.214L48.7305 260.74L49.6401 260.214L49.6401 259.155L48.7305 258.629L47.8209 259.155Z" fill="white"/>
</g>
<defs>
<filter id="filter0_f_346_587" x="-163.889" y="0.439499" width="586.771" height="586.771" filterUnits="userSpaceOnUse" color-interpolation-filters="sRGB">
<feFlood flood-opacity="0" result="BackgroundImageFix"/>
<feBlend mode="normal" in="SourceGraphic" in2="BackgroundImageFix" result="shape"/>
<feGaussianBlur stdDeviation="80.4444" result="effect1_foregroundBlur_346_587"/>
</filter>
<clipPath id="clip0_346_587">
<rect width="234.235" height="340.41" fill="white" transform="matrix(-1 8.74228e-08 8.74228e-08 1 189.235 138)"/>
</clipPath>
</defs>
</svg>
