<svg width="51" height="51" viewBox="0 0 51 51" fill="none" xmlns="http://www.w3.org/2000/svg">
<rect x="0.449219" y="0.620483" width="50.049" height="50.049" rx="9.648" fill="url(#paint0_linear_24_70)"/>
<path d="M24.2666 15.9977C24.2666 15.3317 24.8065 14.7917 25.4726 14.7917C26.1387 14.7917 26.6786 15.3317 26.6786 15.9977V35.2938C26.6786 35.9598 26.1387 36.4998 25.4726 36.4998C24.8065 36.4998 24.2666 35.9598 24.2666 35.2937V15.9977Z" fill="#6F6C90"/>
<path d="M14.6187 25.6457C14.6187 24.9796 15.1586 24.4397 15.8247 24.4397H35.1207C35.7867 24.4397 36.3267 24.9796 36.3267 25.6457C36.3267 26.3118 35.7867 26.8517 35.1207 26.8517H15.8247C15.1586 26.8517 14.6187 26.3118 14.6187 25.6457Z" fill="#6F6C90"/>
<defs>
<linearGradient id="paint0_linear_24_70" x1="25.4737" y1="0.620483" x2="25.4737" y2="50.6695" gradientUnits="userSpaceOnUse">
<stop stop-color="#F7F7FF"/>
<stop offset="0.43" stop-color="#CDCDD3"/>
<stop offset="1" stop-color="#949499"/>
</linearGradient>
</defs>
</svg>
