<svg width="3204" height="2171" viewBox="0 0 3204 2171" fill="none" xmlns="http://www.w3.org/2000/svg">
<g opacity="0.5" filter="url(#filter0_f_24_12)">
<circle cx="2451.5" cy="1418.5" r="348.5" fill="#1A267B"/>
</g>
<g opacity="0.7" filter="url(#filter1_f_24_12)">
<circle cx="896.5" cy="896.5" r="352.5" fill="#B95DFE"/>
</g>
<g style="mix-blend-mode:overlay" clip-path="url(#clip0_24_12)">
<path opacity="0.5" d="M2408.49 1452.53L2471.18 1488.75L2471.18 1561.19L2470.93 1561.33L2408.49 1597.41L2345.8 1561.19L2345.8 1488.75L2346.05 1488.61L2408.49 1452.53ZM2470.2 1489.32L2408.49 1453.68L2346.78 1489.32L2346.78 1560.6L2408.49 1596.24L2470.2 1560.6L2470.2 1489.32Z" fill="#D0D9DD"/>
<path opacity="0.5" d="M2595.09 1632.2L2657.79 1668.43L2657.79 1740.86L2657.54 1741.01L2595.09 1777.09L2532.4 1740.86L2532.4 1668.43L2532.65 1668.28L2595.09 1632.2ZM2656.81 1668.99L2595.09 1633.35L2533.38 1668.99L2533.38 1740.28L2595.09 1775.92L2656.81 1740.28L2656.81 1668.99Z" fill="#D0D9DD"/>
<path opacity="0.5" d="M2595.09 1416.59L2657.79 1452.82L2657.79 1525.25L2657.54 1525.4L2595.09 1561.48L2532.4 1525.25L2532.4 1452.82L2532.65 1452.67L2595.09 1416.59ZM2656.81 1453.38L2595.09 1417.74L2533.38 1453.38L2533.38 1524.67L2595.09 1560.31L2656.81 1524.67L2656.81 1453.38Z" fill="#D0D9DD"/>
<path opacity="0.5" d="M2595.09 1129.16L2595.34 1129.3L2657.79 1165.38L2657.79 1237.82L2657.54 1237.96L2595.09 1274.04L2532.4 1237.82L2532.4 1165.38L2532.65 1165.24L2595.09 1129.16ZM2656.81 1165.95L2595.09 1130.31L2533.38 1165.95L2533.38 1237.23L2595.09 1272.88L2656.81 1237.23L2656.81 1165.95Z" fill="#D0D9DD"/>
<path opacity="0.5" d="M2532.9 1668.13L2595.59 1704.36L2595.59 1776.77L2595.34 1776.92L2532.9 1813L2470.2 1776.77L2470.2 1704.34L2470.45 1704.19L2532.9 1668.11L2532.9 1668.13ZM2594.61 1704.93L2532.9 1669.28L2471.18 1704.93L2471.18 1776.21L2532.9 1811.85L2594.61 1776.21L2594.61 1704.93Z" fill="#D0D9DD"/>
<path opacity="0.5" d="M2532.9 1524.4L2595.59 1560.62L2595.59 1633.06L2595.34 1633.2L2532.9 1669.28L2470.2 1633.06L2470.2 1560.62L2470.45 1560.48L2532.9 1524.4ZM2594.61 1561.19L2532.9 1525.54L2471.18 1561.19L2471.18 1632.47L2532.9 1668.11L2594.61 1632.47L2594.61 1561.19Z" fill="#D0D9DD"/>
<path opacity="0.5" d="M2532.9 1380.68L2595.59 1416.91L2595.59 1489.34L2595.34 1489.48L2532.9 1525.57L2470.2 1489.34L2470.2 1416.91L2470.45 1416.76L2532.9 1380.68ZM2594.61 1417.47L2532.9 1381.83L2471.18 1417.47L2471.18 1488.75L2532.9 1524.4L2594.61 1488.75L2594.61 1417.47Z" fill="#D0D9DD"/>
<path opacity="0.5" d="M2532.9 1308.81L2595.59 1345.04L2595.59 1417.47L2595.34 1417.62L2532.9 1453.7L2470.2 1417.47L2470.2 1345.04L2470.45 1344.89L2532.9 1308.81ZM2594.61 1345.6L2532.9 1309.96L2471.18 1345.6L2471.18 1416.89L2532.9 1452.53L2594.61 1416.89L2594.61 1345.6Z" fill="#D0D9DD"/>
<path opacity="0.5" d="M2408.49 1308.81L2471.18 1345.04L2471.18 1417.47L2470.93 1417.62L2408.49 1453.7L2345.8 1417.47L2345.8 1345.04L2346.05 1344.89L2408.49 1308.81ZM2470.2 1345.6L2408.49 1309.96L2346.78 1345.6L2346.78 1416.89L2408.49 1452.53L2470.2 1416.89L2470.2 1345.6Z" fill="#D0D9DD"/>
<path opacity="0.5" d="M2532.9 1093.22L2533.15 1093.37L2595.59 1129.45L2595.59 1201.88L2595.34 1202.03L2532.9 1238.11L2470.2 1201.88L2470.2 1129.45L2470.45 1129.3L2532.9 1093.22ZM2594.61 1130.01L2532.9 1094.37L2471.18 1130.01L2471.18 1201.3L2532.9 1236.94L2594.61 1201.3L2594.61 1130.01Z" fill="#D0D9DD"/>
<path opacity="0.5" d="M2657.31 1093.22L2657.56 1093.37L2720 1129.43L2720 1201.86L2719.75 1202.01L2657.31 1238.09L2594.61 1201.86L2594.61 1129.43L2594.86 1129.28L2657.31 1093.2L2657.31 1093.22ZM2719 1130.01L2657.28 1094.37L2595.57 1130.01L2595.57 1201.3L2657.28 1236.94L2719 1201.3L2719 1130.01Z" fill="#D0D9DD"/>
<path opacity="0.5" d="M2470.7 1632.2L2533.4 1668.43L2533.4 1740.86L2533.15 1741.01L2470.7 1777.09L2408.01 1740.86L2408.01 1668.43L2408.26 1668.28L2470.7 1632.2ZM2532.42 1668.99L2470.7 1633.35L2408.99 1668.99L2408.99 1740.28L2470.7 1775.92L2532.42 1740.28L2532.42 1668.99Z" fill="#D0D9DD"/>
<path opacity="0.5" d="M2470.7 1272.88L2533.4 1309.1L2533.4 1381.53L2533.15 1381.68L2470.7 1417.76L2408.01 1381.53L2408.01 1309.1L2408.26 1308.96L2470.7 1272.88ZM2532.42 1309.67L2470.7 1274.02L2408.99 1309.67L2408.99 1380.95L2470.7 1416.59L2532.42 1380.95L2532.42 1309.67Z" fill="#D0D9DD"/>
<path opacity="0.5" d="M2408.49 1596.27L2471.18 1632.49L2471.18 1704.93L2470.93 1705.07L2408.49 1741.15L2345.8 1704.93L2345.8 1632.49L2346.05 1632.35L2408.49 1596.27ZM2470.2 1633.06L2408.49 1597.41L2346.78 1633.06L2346.78 1704.34L2408.49 1739.98L2470.2 1704.34L2470.2 1633.06Z" fill="#D0D9DD"/>
<path opacity="0.5" d="M2346.3 1488.46L2408.99 1524.69L2408.99 1597.12L2408.74 1597.27L2346.3 1633.35L2283.6 1597.12L2283.6 1524.69L2283.85 1524.54L2346.3 1488.46ZM2408.01 1525.25L2346.3 1489.61L2284.58 1525.25L2284.58 1596.54L2346.3 1632.18L2408.01 1596.54L2408.01 1525.25Z" fill="#D0D9DD"/>
<path opacity="0.5" d="M2159.69 1596.27L2222.39 1632.49L2222.39 1704.93L2222.14 1705.07L2159.69 1741.15L2097 1704.93L2097 1632.49L2097.25 1632.35L2159.69 1596.27ZM2221.41 1633.06L2159.69 1597.41L2097.98 1633.06L2097.98 1704.34L2159.69 1739.98L2221.41 1704.34L2221.41 1633.06Z" fill="#D0D9DD"/>
<path opacity="0.5" d="M2595.09 913.551L2595.34 913.697L2657.79 949.778L2657.79 1022.21L2657.54 1022.36L2595.09 1058.44L2594.84 1058.29L2532.4 1022.21L2532.4 949.778L2532.65 949.632L2595.09 913.551ZM2656.81 950.341L2595.09 914.699L2533.38 950.341L2533.38 1021.63L2595.09 1057.27L2656.81 1021.63L2656.81 950.341Z" fill="#D0D9DD"/>
<path opacity="0.5" d="M2532.9 1020.96L2533.15 1021.1L2595.59 1057.18L2595.59 1129.62L2595.34 1129.76L2532.9 1165.84L2532.65 1165.7L2470.2 1129.62L2470.2 1057.18L2470.45 1057.04L2532.9 1020.96ZM2594.61 1057.75L2532.9 1022.11L2471.18 1057.75L2471.18 1129.03L2532.9 1164.68L2594.61 1129.03L2594.61 1057.75Z" fill="#D0D9DD"/>
<path opacity="0.5" d="M2532.9 1236.94L2595.59 1273.17L2595.59 1345.6L2595.34 1345.75L2532.9 1381.83L2470.2 1345.6L2470.2 1273.17L2470.45 1273.02L2532.9 1236.94ZM2594.61 1273.73L2532.9 1238.09L2471.18 1273.73L2471.18 1345.02L2532.9 1380.66L2594.61 1345.02L2594.61 1273.73Z" fill="#D0D9DD"/>
<path d="M2346.3 1345.02L2409.24 1381.37L2409.24 1454.09L2408.87 1454.3L2346.3 1490.44L2283.35 1454.09L2283.35 1381.37L2283.73 1381.16L2346.3 1345.02ZM2407.76 1382.24L2346.3 1346.75L2284.83 1382.24L2284.83 1453.24L2346.3 1488.73L2407.76 1453.24L2407.76 1382.24Z" fill="white"/>
<path d="M2595.09 1272.58L2658.04 1308.94L2658.04 1381.66L2657.66 1381.87L2595.09 1418.01L2532.15 1381.66L2532.15 1308.94L2532.52 1308.73L2595.09 1272.58ZM2656.55 1309.81L2595.09 1274.32L2533.63 1309.81L2533.63 1380.8L2595.09 1416.3L2656.55 1380.8L2656.55 1309.81Z" fill="white"/>
<path d="M2595.09 985.107L2595.47 985.316L2658.04 1021.46L2658.04 1094.18L2657.66 1094.39L2595.09 1130.54L2594.72 1130.33L2532.15 1094.18L2532.15 1021.46L2532.52 1021.25L2595.09 985.107ZM2656.55 1022.34L2595.09 986.839L2533.63 1022.34L2533.63 1093.33L2595.09 1128.82L2656.55 1093.33L2656.55 1022.34Z" fill="white"/>
<path d="M2595.09 1488.17L2658.04 1524.52L2658.04 1597.25L2657.66 1597.46L2595.09 1633.6L2532.15 1597.25L2532.15 1524.52L2532.52 1524.31L2595.09 1488.17ZM2656.55 1525.4L2595.09 1489.9L2533.63 1525.4L2533.63 1596.39L2595.09 1631.89L2656.55 1596.39L2656.55 1525.4Z" fill="white"/>
<path d="M2532.9 1595.97L2595.84 1632.33L2595.84 1705.05L2595.47 1705.26L2532.9 1741.4L2469.95 1705.05L2469.95 1632.33L2470.33 1632.12L2532.9 1595.97ZM2594.36 1633.2L2532.9 1597.71L2471.43 1633.2L2471.43 1704.19L2532.9 1739.69L2594.36 1704.19L2594.36 1633.2Z" fill="white"/>
<path d="M2470.7 1416.32L2533.65 1452.67L2533.65 1525.4L2533.27 1525.61L2470.7 1561.75L2407.76 1525.4L2407.76 1452.67L2408.13 1452.46L2470.7 1416.32ZM2532.17 1453.55L2470.7 1418.05L2409.24 1453.55L2409.24 1524.54L2470.7 1560.04L2532.17 1524.54L2532.17 1453.55Z" fill="white"/>
<path d="M2470.7 1200.74L2471.08 1200.94L2533.65 1237.09L2533.65 1309.81L2533.27 1310.02L2470.7 1346.16L2407.76 1309.81L2407.76 1237.09L2408.13 1236.88L2470.7 1200.74ZM2532.17 1237.96L2470.7 1202.47L2409.24 1237.96L2409.24 1308.96L2470.7 1344.45L2532.17 1308.96L2532.17 1237.96Z" fill="white"/>
<path d="M2470.7 1057L2471.08 1057.21L2533.65 1093.35L2533.65 1166.07L2533.27 1166.28L2470.7 1202.43L2470.33 1202.22L2407.76 1166.07L2407.76 1093.35L2408.13 1093.14L2470.7 1057ZM2532.17 1094.23L2470.7 1058.73L2409.24 1094.23L2409.24 1165.22L2470.7 1200.71L2532.17 1165.22L2532.17 1094.23Z" fill="white"/>
<path d="M2408.49 1524.1L2471.43 1560.46L2471.43 1633.18L2471.06 1633.39L2408.49 1669.53L2345.55 1633.18L2345.55 1560.46L2345.92 1560.25L2408.49 1524.1ZM2469.95 1561.33L2408.49 1525.84L2347.03 1561.33L2347.03 1632.33L2408.49 1667.82L2469.95 1632.33L2469.95 1561.33Z" fill="white"/>
<path d="M2284.1 1595.97L2347.05 1632.33L2347.05 1705.05L2346.67 1705.26L2284.1 1741.4L2221.16 1705.05L2221.16 1632.33L2221.53 1632.12L2284.1 1595.97ZM2345.57 1633.2L2284.1 1597.71L2222.64 1633.2L2222.64 1704.19L2284.1 1739.69L2345.57 1704.19L2345.57 1633.2Z" fill="white"/>
<path d="M2221.89 1631.91L2284.83 1668.26L2284.83 1740.98L2284.46 1741.19L2221.89 1777.34L2158.94 1740.98L2158.94 1668.26L2159.32 1668.05L2221.89 1631.91ZM2283.35 1669.14L2221.89 1633.64L2160.42 1669.14L2160.42 1740.13L2221.89 1775.63L2283.35 1740.13L2283.35 1669.14Z" fill="white"/>
<path opacity="0.5" d="M2590.63 775.742L2590.63 770.588L2595.09 768L2599.58 770.588L2599.58 775.742L2595.09 778.33L2590.63 775.742Z" fill="#D0D9DD"/>
<path opacity="0.5" d="M2528.43 1603.13L2528.43 1597.98L2532.9 1595.41L2537.36 1597.98L2537.36 1603.13L2532.9 1605.72L2528.43 1603.13Z" fill="#D0D9DD"/>
<path opacity="0.5" d="M2531.06 1529.83L2531.06 1527.72L2532.9 1526.65L2534.73 1527.72L2534.73 1529.83L2532.9 1530.89L2531.06 1529.83Z" fill="#D0D9DD"/>
<path opacity="0.5" d="M2528.25 1387.86L2528.25 1382.48L2532.9 1379.81L2537.55 1382.48L2537.55 1387.86L2532.9 1390.55L2528.25 1387.86Z" fill="#D0D9DD"/>
<path opacity="0.5" d="M2528.1 1316.14L2528.1 1310.61L2532.9 1307.85L2537.69 1310.61L2537.69 1316.14L2532.9 1318.91L2528.1 1316.14Z" fill="#D0D9DD"/>
<path opacity="0.5" d="M2588.31 1209.23L2588.31 1201.38L2595.09 1197.46L2601.89 1201.38L2601.89 1209.23L2595.09 1213.15L2588.31 1209.23Z" fill="#D0D9DD"/>
<path opacity="0.5" d="M2650.51 1173.71L2650.51 1165.87L2657.31 1161.94L2664.08 1165.87L2664.08 1173.71L2657.31 1177.64L2650.51 1173.71Z" fill="#D0D9DD"/>
<path opacity="0.5" d="M2589.5 1495.98L2589.5 1489.51L2595.09 1486.25L2600.7 1489.51L2600.7 1495.98L2595.09 1499.21L2589.5 1495.98Z" fill="#D0D9DD"/>
<path opacity="0.5" d="M2467.53 1638.32L2467.53 1634.67L2470.7 1632.85L2473.85 1634.67L2473.85 1638.32L2470.7 1640.13L2467.53 1638.32Z" fill="#D0D9DD"/>
<path opacity="0.5" d="M2404.65 1602.78L2404.65 1598.33L2408.49 1596.12L2412.35 1598.33L2412.35 1602.78L2408.49 1605.01L2404.65 1602.78Z" fill="#D0D9DD"/>
<path opacity="0.5" d="M2404.76 1243.75L2404.76 1239.43L2408.49 1237.26L2412.24 1239.43L2412.24 1243.75L2408.49 1245.92L2404.76 1243.75Z" fill="#D0D9DD"/>
<path opacity="0.5" d="M2405.15 1171.71L2405.15 1167.85L2408.49 1165.93L2411.85 1167.85L2411.85 1171.71L2408.49 1173.65L2405.15 1171.71Z" fill="#D0D9DD"/>
<path opacity="0.5" d="M2402.15 1029.85L2402.15 1022.53L2408.49 1018.87L2414.85 1022.53L2414.85 1029.85L2408.49 1033.52L2402.15 1029.85Z" fill="#D0D9DD"/>
<path opacity="0.5" d="M2468.95 1565.76L2468.95 1563.74L2470.7 1562.71L2472.46 1563.74L2472.46 1565.76L2470.7 1566.76L2468.95 1565.76Z" fill="#D0D9DD"/>
<path opacity="0.5" d="M2467.41 1279.64L2467.41 1275.84L2470.7 1273.94L2474 1275.84L2474 1279.64L2470.7 1281.56L2467.41 1279.64Z" fill="#D0D9DD"/>
<path opacity="0.5" d="M2469.14 1135.15L2469.14 1133.33L2470.7 1132.44L2472.27 1133.33L2472.27 1135.15L2470.7 1136.07L2469.14 1135.15Z" fill="#D0D9DD"/>
<path opacity="0.5" d="M2466.18 993.353L2466.18 988.136L2470.7 985.527L2475.21 988.136L2475.21 993.353L2470.7 995.961L2466.18 993.353Z" fill="#D0D9DD"/>
<path opacity="0.5" d="M2281.52 1530.26L2281.52 1527.28L2284.1 1525.78L2286.69 1527.28L2286.69 1530.26L2284.1 1531.77L2281.52 1530.26Z" fill="#D0D9DD"/>
<path opacity="0.5" d="M2279.85 1459.44L2279.85 1454.51L2284.1 1452.05L2288.36 1454.51L2288.36 1459.44L2284.1 1461.9L2279.85 1459.44Z" fill="#D0D9DD"/>
<path opacity="0.5" d="M2279.47 1387.84L2279.47 1382.5L2284.1 1379.85L2288.71 1382.5L2288.71 1387.84L2284.1 1390.51L2279.47 1387.84Z" fill="#D0D9DD"/>
<path opacity="0.5" d="M2340.89 1567.87L2340.89 1561.63L2346.3 1558.5L2351.7 1561.63L2351.7 1567.87L2346.3 1570.98L2340.89 1567.87Z" fill="#D0D9DD"/>
<path opacity="0.5" d="M2341.87 1495.56L2341.87 1490.43L2346.3 1487.88L2350.72 1490.43L2350.72 1495.56L2346.3 1498.11L2341.87 1495.56Z" fill="#D0D9DD"/>
<path opacity="0.5" d="M2343.02 1207.9L2343.02 1204.1L2346.3 1202.22L2349.57 1204.1L2349.57 1207.9L2346.3 1209.77L2343.02 1207.9Z" fill="#D0D9DD"/>
<path opacity="0.5" d="M2218.74 1638.32L2218.74 1634.67L2221.89 1632.85L2225.04 1634.67L2225.04 1638.32L2221.89 1640.13L2218.74 1638.32Z" fill="#D0D9DD"/>
<path opacity="0.5" d="M2154.02 1460.25L2154.02 1453.7L2159.69 1450.4L2165.37 1453.7L2165.37 1460.25L2159.69 1463.53L2154.02 1460.25Z" fill="#D0D9DD"/>
<path opacity="0.5" d="M2215.55 1496.67L2215.55 1489.32L2221.89 1485.65L2228.25 1489.32L2228.25 1496.67L2221.89 1500.34L2215.55 1496.67Z" fill="#D0D9DD"/>
<path opacity="0.5" d="M2651.17 885.466L2651.17 878.391L2657.31 874.865L2663.44 878.391L2663.44 885.466L2657.31 889.013L2651.17 885.466Z" fill="#D0D9DD"/>
<path d="M2530.67 1027.49L2530.67 1024.91L2532.9 1023.59L2535.15 1024.91L2535.15 1027.49L2532.9 1028.79L2530.67 1027.49Z" fill="white"/>
<path d="M2528.43 1244.16L2528.43 1239.01L2532.9 1236.42L2537.36 1239.01L2537.36 1244.16L2532.9 1246.75L2528.43 1244.16Z" fill="white"/>
<path d="M2466.24 1208.23L2466.24 1203.08L2470.7 1200.49L2475.17 1203.08L2475.17 1208.23L2470.7 1210.82L2466.24 1208.23Z" fill="white"/>
<path d="M2652.84 1316.01L2652.84 1310.86L2657.31 1308.27L2661.77 1310.86L2661.77 1316.01L2657.31 1318.6L2652.84 1316.01Z" fill="white"/>
<path d="M2526.12 1101.91L2526.12 1094.06L2532.9 1090.14L2539.7 1094.06L2539.7 1101.91L2532.9 1105.83L2526.12 1101.91Z" fill="white"/>
<path d="M2529.31 956.479L2529.31 952.326L2532.9 950.24L2536.48 952.326L2536.48 956.479L2532.9 958.545L2529.31 956.479Z" fill="white"/>
<path d="M2405.88 1314.89L2405.88 1311.86L2408.49 1310.36L2411.12 1311.86L2411.12 1314.89L2408.49 1316.41L2405.88 1314.89Z" fill="white"/>
<path d="M2590.57 1639.11L2590.57 1633.87L2595.09 1631.24L2599.64 1633.87L2599.64 1639.11L2595.09 1641.74L2590.57 1639.11Z" fill="white"/>
<path d="M2652.76 1603.18L2652.76 1597.94L2657.31 1595.33L2661.83 1597.94L2661.83 1603.18L2657.31 1605.81L2652.76 1603.18Z" fill="white"/>
<path d="M2591.88 1064.37L2591.88 1060.63L2595.09 1058.77L2598.32 1060.63L2598.32 1064.37L2595.09 1066.22L2591.88 1064.37Z" fill="white"/>
<path d="M2405.88 1530.28L2405.88 1527.26L2408.49 1525.76L2411.12 1527.26L2411.12 1530.28L2408.49 1531.79L2405.88 1530.28Z" fill="white"/>
<path d="M2405.07 1458.96L2405.07 1454.99L2408.49 1453.01L2411.93 1454.99L2411.93 1458.96L2408.49 1460.92L2405.07 1458.96Z" fill="white"/>
<path d="M2403.96 1100.61L2403.96 1095.38L2408.49 1092.75L2413.04 1095.38L2413.04 1100.61L2408.49 1103.22L2403.96 1100.61Z" fill="white"/>
<path d="M2464.41 1496.62L2464.41 1489.36L2470.7 1485.71L2477 1489.36L2477 1496.62L2470.7 1500.28L2464.41 1496.62Z" fill="white"/>
<path d="M2466.01 1423.94L2466.01 1418.54L2470.7 1415.82L2475.38 1418.54L2475.38 1423.94L2470.7 1426.65L2466.01 1423.94Z" fill="white"/>
<path d="M2652.61 1459.67L2652.61 1454.26L2657.31 1451.55L2661.98 1454.26L2661.98 1459.67L2657.31 1462.38L2652.61 1459.67Z" fill="white"/>
<path d="M2465.61 1352.43L2465.61 1346.56L2470.7 1343.62L2475.77 1346.56L2475.77 1352.43L2470.7 1355.37L2465.61 1352.43Z" fill="white"/>
<path d="M2467.62 1064.28L2467.62 1060.71L2470.7 1058.94L2473.77 1060.71L2473.77 1064.28L2470.7 1066.06L2467.62 1064.28Z" fill="white"/>
<path d="M2467.2 921.024L2467.2 916.976L2470.7 914.973L2474.19 916.976L2474.19 921.024L2470.7 923.028L2467.2 921.024Z" fill="white"/>
<path d="M2279.64 1603.13L2279.64 1597.98L2284.1 1595.41L2288.57 1597.98L2288.57 1603.13L2284.1 1605.72L2279.64 1603.13Z" fill="white"/>
<path d="M2281.87 1314.66L2281.87 1312.09L2284.1 1310.82L2286.31 1312.09L2286.31 1314.66L2284.1 1315.93L2281.87 1314.66Z" fill="white"/>
<path d="M2341.1 1424.25L2341.1 1418.24L2346.3 1415.24L2351.49 1418.24L2351.49 1424.25L2346.3 1427.24L2341.1 1424.25Z" fill="white"/>
<path d="M2343.88 1350.9L2343.88 1348.09L2346.3 1346.69L2348.72 1348.09L2348.72 1350.9L2346.3 1352.3L2343.88 1350.9Z" fill="white"/>
<path d="M2156.36 1530.7L2156.36 1526.84L2159.69 1524.92L2163.03 1526.84L2163.03 1530.7L2159.69 1532.62L2156.36 1530.7Z" fill="white"/>
</g>
<g style="mix-blend-mode:overlay" clip-path="url(#clip1_24_12)">
<path opacity="0.5" d="M907.49 737.472L970.184 701.246L970.184 628.813L969.934 628.667L907.49 592.586L844.795 628.813L844.795 701.246L845.046 701.392L907.49 737.472ZM969.204 700.682L907.49 736.325L845.776 700.682L845.776 629.398L907.49 593.755L969.204 629.397L969.204 700.682Z" fill="#D0D9DD"/>
<path opacity="0.5" d="M1094.09 557.8L1156.79 521.573L1156.79 449.14L1156.54 448.994L1094.09 412.914L1031.4 449.14L1031.4 521.573L1031.65 521.719L1094.09 557.8ZM1155.81 521.01L1094.09 556.652L1032.38 521.01L1032.38 449.725L1094.09 414.082L1155.81 449.725L1155.81 521.01Z" fill="#D0D9DD"/>
<path opacity="0.5" d="M1094.09 773.407L1156.79 737.18L1156.79 664.748L1156.54 664.602L1094.09 628.521L1031.4 664.748L1031.4 737.18L1031.65 737.326L1094.09 773.407ZM1155.81 736.617L1094.09 772.259L1032.38 736.617L1032.38 665.332L1094.09 629.69L1155.81 665.332L1155.81 736.617Z" fill="#D0D9DD"/>
<path opacity="0.5" d="M1094.09 1060.84L1094.34 1060.7L1156.79 1024.62L1156.79 952.182L1156.54 952.036L1094.09 915.956L1031.4 952.183L1031.4 1024.62L1031.65 1024.76L1094.09 1060.84ZM1155.81 1024.05L1094.09 1059.69L1032.38 1024.05L1032.38 952.767L1094.09 917.124L1155.81 952.767L1155.81 1024.05Z" fill="#D0D9DD"/>
<path opacity="0.5" d="M1031.9 521.865L1094.59 485.638L1094.59 413.227L1094.34 413.081L1031.9 377L969.203 413.227L969.203 485.659L969.454 485.805L1031.9 521.886L1031.9 521.865ZM1093.61 485.075L1031.9 520.717L970.184 485.075L970.184 413.79L1031.9 378.148L1093.61 413.79L1093.61 485.075Z" fill="#D0D9DD"/>
<path opacity="0.5" d="M1031.9 665.603L1094.59 629.377L1094.59 556.944L1094.34 556.798L1031.9 520.717L969.203 556.944L969.203 629.377L969.454 629.523L1031.9 665.603ZM1093.61 628.813L1031.9 664.456L970.184 628.813L970.184 557.528L1031.9 521.886L1093.61 557.528L1093.61 628.813Z" fill="#D0D9DD"/>
<path opacity="0.5" d="M1031.9 809.321L1094.59 773.094L1094.59 700.661L1094.34 700.515L1031.9 664.435L969.203 700.661L969.203 773.094L969.454 773.24L1031.9 809.321ZM1093.61 772.531L1031.9 808.173L970.184 772.531L970.184 701.246L1031.9 665.603L1093.61 701.246L1093.61 772.531Z" fill="#D0D9DD"/>
<path opacity="0.5" d="M1031.9 881.19L1094.59 844.963L1094.59 772.531L1094.34 772.384L1031.9 736.304L969.203 772.531L969.203 844.963L969.454 845.109L1031.9 881.19ZM1093.61 844.4L1031.9 880.042L970.184 844.4L970.184 773.115L1031.9 737.472L1093.61 773.115L1093.61 844.4Z" fill="#D0D9DD"/>
<path opacity="0.5" d="M907.49 881.19L970.184 844.963L970.184 772.531L969.934 772.385L907.49 736.304L844.795 772.531L844.795 844.963L845.046 845.109L907.49 881.19ZM969.204 844.4L907.49 880.042L845.776 844.4L845.776 773.115L907.49 737.472L969.204 773.115L969.204 844.4Z" fill="#D0D9DD"/>
<path opacity="0.5" d="M1031.9 1096.78L1032.15 1096.63L1094.59 1060.55L1094.59 988.117L1094.34 987.971L1031.9 951.89L969.203 988.117L969.203 1060.55L969.454 1060.7L1031.9 1096.78ZM1093.61 1059.99L1031.9 1095.63L970.184 1059.99L970.184 988.701L1031.9 953.059L1093.61 988.701L1093.61 1059.99Z" fill="#D0D9DD"/>
<path opacity="0.5" d="M1156.31 1096.78L1156.56 1096.63L1219 1060.57L1219 988.138L1218.75 987.992L1156.31 951.911L1093.61 988.138L1093.61 1060.57L1093.86 1060.72L1156.31 1096.8L1156.31 1096.78ZM1218 1059.99L1156.28 1095.63L1094.57 1059.99L1094.57 988.701L1156.28 953.059L1218 988.701L1218 1059.99Z" fill="#D0D9DD"/>
<path opacity="0.5" d="M969.704 557.8L1032.4 521.573L1032.4 449.14L1032.15 448.994L969.704 412.914L907.01 449.14L907.01 521.573L907.26 521.719L969.704 557.8ZM1031.42 521.01L969.704 556.652L907.99 521.01L907.99 449.725L969.704 414.082L1031.42 449.725L1031.42 521.01Z" fill="#D0D9DD"/>
<path opacity="0.5" d="M969.704 917.124L1032.4 880.898L1032.4 808.465L1032.15 808.319L969.704 772.238L907.01 808.465L907.01 880.898L907.26 881.044L969.704 917.124ZM1031.42 880.334L969.704 915.977L907.99 880.334L907.99 809.049L969.704 773.407L1031.42 809.049L1031.42 880.334Z" fill="#D0D9DD"/>
<path opacity="0.5" d="M907.49 593.734L970.184 557.508L970.184 485.075L969.934 484.929L907.49 448.848L844.795 485.075L844.795 557.508L845.046 557.654L907.49 593.734ZM969.204 556.944L907.49 592.586L845.776 556.944L845.776 485.659L907.49 450.017L969.204 485.659L969.204 556.944Z" fill="#D0D9DD"/>
<path opacity="0.5" d="M845.296 701.538L907.99 665.311L907.99 592.879L907.74 592.733L845.296 556.652L782.602 592.879L782.602 665.311L782.852 665.457L845.296 701.538ZM907.01 664.748L845.296 700.39L783.582 664.748L783.582 593.463L845.296 557.821L907.01 593.463L907.01 664.748Z" fill="#D0D9DD"/>
<path opacity="0.5" d="M658.694 593.734L721.388 557.508L721.388 485.075L721.138 484.929L658.694 448.848L596 485.075L596 557.508L596.25 557.654L658.694 593.734ZM720.408 556.944L658.694 592.586L596.98 556.944L596.98 485.659L658.694 450.017L720.408 485.659L720.408 556.944Z" fill="#D0D9DD"/>
<path opacity="0.5" d="M1094.09 1276.45L1094.34 1276.3L1156.79 1240.22L1156.79 1167.79L1156.54 1167.64L1094.09 1131.56L1093.84 1131.71L1031.4 1167.79L1031.4 1240.22L1031.65 1240.37L1094.09 1276.45ZM1155.81 1239.66L1094.09 1275.3L1032.38 1239.66L1032.38 1168.37L1094.09 1132.73L1155.81 1168.37L1155.81 1239.66Z" fill="#D0D9DD"/>
<path opacity="0.5" d="M1031.9 1169.04L1032.15 1168.9L1094.59 1132.82L1094.59 1060.38L1094.34 1060.24L1031.9 1024.16L1031.65 1024.3L969.204 1060.38L969.204 1132.82L969.454 1132.96L1031.9 1169.04ZM1093.61 1132.25L1031.9 1167.89L970.184 1132.25L970.184 1060.97L1031.9 1025.32L1093.61 1060.97L1093.61 1132.25Z" fill="#D0D9DD"/>
<path opacity="0.5" d="M1031.9 953.059L1094.59 916.832L1094.59 844.4L1094.34 844.254L1031.9 808.173L969.203 844.4L969.203 916.832L969.454 916.978L1031.9 953.059ZM1093.61 916.269L1031.9 951.911L970.184 916.269L970.184 844.984L1031.9 809.342L1093.61 844.984L1093.61 916.269Z" fill="#D0D9DD"/>
<path d="M845.296 844.984L908.24 808.632L908.24 735.907L907.865 735.699L845.296 699.555L782.352 735.907L782.352 808.632L782.727 808.841L845.296 844.984ZM906.76 807.756L845.296 843.252L783.832 807.756L783.832 736.763L845.296 701.267L906.76 736.763L906.76 807.756Z" fill="white"/>
<path d="M1094.09 917.416L1157.04 881.065L1157.04 808.34L1156.66 808.131L1094.09 771.988L1031.15 808.34L1031.15 881.065L1031.52 881.273L1094.09 917.416ZM1155.56 880.188L1094.09 915.684L1032.63 880.188L1032.63 809.195L1094.09 773.699L1155.56 809.195L1155.56 880.188Z" fill="white"/>
<path d="M1094.09 1204.89L1094.47 1204.68L1157.04 1168.54L1157.04 1095.82L1156.66 1095.61L1094.09 1059.46L1093.72 1059.67L1031.15 1095.82L1031.15 1168.54L1031.52 1168.75L1094.09 1204.89ZM1155.56 1167.66L1094.09 1203.16L1032.63 1167.66L1032.63 1096.67L1094.09 1061.18L1155.56 1096.67L1155.56 1167.66Z" fill="white"/>
<path d="M1094.09 701.83L1157.04 665.478L1157.04 592.753L1156.66 592.545L1094.09 556.401L1031.15 592.753L1031.15 665.478L1031.52 665.687L1094.09 701.83ZM1155.56 664.602L1094.09 700.098L1032.63 664.602L1032.63 593.609L1094.09 558.113L1155.56 593.609L1155.56 664.602Z" fill="white"/>
<path d="M1031.9 594.026L1094.84 557.674L1094.84 484.95L1094.47 484.741L1031.9 448.598L968.953 484.95L968.953 557.674L969.329 557.883L1031.9 594.026ZM1093.36 556.798L1031.9 592.294L970.434 556.798L970.434 485.805L1031.9 450.309L1093.36 485.805L1093.36 556.798Z" fill="white"/>
<path d="M969.704 773.678L1032.65 737.326L1032.65 664.602L1032.27 664.393L969.704 628.25L906.759 664.602L906.759 737.326L907.135 737.535L969.704 773.678ZM1031.17 736.45L969.704 771.946L908.24 736.45L908.24 665.457L969.704 629.961L1031.17 665.457L1031.17 736.45Z" fill="white"/>
<path d="M969.704 989.265L970.079 989.056L1032.65 952.913L1032.65 880.188L1032.27 879.98L969.704 843.836L906.759 880.188L906.759 952.913L907.135 953.122L969.704 989.265ZM1031.17 952.036L969.704 987.533L908.24 952.036L908.24 881.044L969.704 845.547L1031.17 881.044L1031.17 952.036Z" fill="white"/>
<path d="M969.704 1133L970.079 1132.79L1032.65 1096.65L1032.65 1023.93L1032.27 1023.72L969.704 987.574L969.329 987.783L906.759 1023.93L906.759 1096.65L907.135 1096.86L969.704 1133ZM1031.17 1095.77L969.704 1131.27L908.24 1095.77L908.24 1024.78L969.704 989.286L1031.17 1024.78L1031.17 1095.77Z" fill="white"/>
<path d="M907.49 665.896L970.434 629.544L970.434 556.819L970.059 556.61L907.49 520.467L844.545 556.819L844.545 629.544L844.921 629.752L907.49 665.896ZM968.953 628.667L907.49 664.163L846.026 628.667L846.026 557.674L907.49 522.178L968.953 557.674L968.953 628.667Z" fill="white"/>
<path d="M783.102 594.026L846.047 557.674L846.047 484.95L845.671 484.741L783.102 448.598L720.158 484.95L720.158 557.674L720.533 557.883L783.102 594.026ZM844.566 556.798L783.102 592.294L721.639 556.798L721.639 485.805L783.102 450.309L844.566 485.805L844.566 556.798Z" fill="white"/>
<path d="M720.888 558.092L783.832 521.74L783.832 449.015L783.457 448.807L720.888 412.663L657.943 449.015L657.943 521.74L658.319 521.949L720.888 558.092ZM782.351 520.864L720.888 556.36L659.424 520.864L659.424 449.871L720.888 414.375L782.351 449.871L782.351 520.864Z" fill="white"/>
<path opacity="0.5" d="M1089.63 1274.26L1089.63 1279.41L1094.09 1282L1098.58 1279.41L1098.58 1274.26L1094.09 1271.67L1089.63 1274.26Z" fill="#D0D9DD"/>
<path opacity="0.5" d="M1027.43 446.866L1027.43 452.02L1031.9 454.587L1036.36 452.02L1036.36 446.866L1031.9 444.278L1027.43 446.866Z" fill="#D0D9DD"/>
<path opacity="0.5" d="M1030.06 520.175L1030.06 522.282L1031.9 523.347L1033.73 522.282L1033.73 520.175L1031.9 519.111L1030.06 520.175Z" fill="#D0D9DD"/>
<path opacity="0.5" d="M1027.25 662.139L1027.25 667.523L1031.9 670.194L1036.55 667.523L1036.55 662.139L1031.9 659.447L1027.25 662.139Z" fill="#D0D9DD"/>
<path opacity="0.5" d="M1027.1 733.862L1027.1 739.392L1031.9 742.147L1036.69 739.392L1036.69 733.862L1031.9 731.087L1027.1 733.862Z" fill="#D0D9DD"/>
<path opacity="0.5" d="M1087.31 840.769L1087.31 848.615L1094.09 852.538L1100.89 848.615L1100.89 840.769L1094.09 836.845L1087.31 840.769Z" fill="#D0D9DD"/>
<path opacity="0.5" d="M1149.51 876.286L1149.51 884.132L1156.31 888.055L1163.08 884.132L1163.08 876.286L1156.31 872.363L1149.51 876.286Z" fill="#D0D9DD"/>
<path opacity="0.5" d="M1088.5 554.023L1088.5 560.492L1094.09 563.747L1099.7 560.492L1099.7 554.023L1094.09 550.788L1088.5 554.023Z" fill="#D0D9DD"/>
<path opacity="0.5" d="M966.534 411.683L966.534 415.334L969.704 417.15L972.854 415.334L972.854 411.683L969.704 409.867L966.534 411.683Z" fill="#D0D9DD"/>
<path opacity="0.5" d="M903.652 447.221L903.652 451.665L907.49 453.877L911.348 451.665L911.348 447.221L907.49 444.988L903.652 447.221Z" fill="#D0D9DD"/>
<path opacity="0.5" d="M903.756 806.253L903.756 810.573L907.49 812.743L911.244 810.573L911.244 806.253L907.49 804.083L903.756 806.253Z" fill="#D0D9DD"/>
<path opacity="0.5" d="M904.153 878.289L904.153 882.15L907.49 884.07L910.848 882.15L910.848 878.289L907.49 876.348L904.153 878.289Z" fill="#D0D9DD"/>
<path opacity="0.5" d="M901.149 1020.15L901.149 1027.47L907.49 1031.13L913.851 1027.47L913.851 1020.15L907.49 1016.48L901.149 1020.15Z" fill="#D0D9DD"/>
<path opacity="0.5" d="M967.952 484.24L967.952 486.264L969.704 487.287L971.456 486.264L971.456 484.24L969.704 483.239L967.952 484.24Z" fill="#D0D9DD"/>
<path opacity="0.5" d="M966.409 770.36L966.409 774.158L969.704 776.057L973 774.158L973 770.36L969.704 768.44L966.409 770.36Z" fill="#D0D9DD"/>
<path opacity="0.5" d="M968.14 914.85L968.14 916.665L969.704 917.563L971.268 916.665L971.268 914.85L969.704 913.932L968.14 914.85Z" fill="#D0D9DD"/>
<path opacity="0.5" d="M965.178 1056.65L965.178 1061.86L969.704 1064.47L974.209 1061.86L974.209 1056.65L969.704 1054.04L965.178 1056.65Z" fill="#D0D9DD"/>
<path opacity="0.5" d="M780.516 519.737L780.516 522.721L783.102 524.223L785.688 522.721L785.688 519.737L783.102 518.234L780.516 519.737Z" fill="#D0D9DD"/>
<path opacity="0.5" d="M778.848 590.562L778.848 595.487L783.102 597.95L787.357 595.487L787.357 590.562L783.102 588.1L778.848 590.562Z" fill="#D0D9DD"/>
<path opacity="0.5" d="M778.472 662.16L778.472 667.502L783.102 670.153L787.712 667.502L787.712 662.16L783.102 659.489L778.472 662.16Z" fill="#D0D9DD"/>
<path opacity="0.5" d="M839.894 482.133L839.894 488.372L845.296 491.502L850.698 488.372L850.698 482.133L845.296 479.023L839.894 482.133Z" fill="#D0D9DD"/>
<path opacity="0.5" d="M840.874 554.44L840.874 559.573L845.296 562.119L849.718 559.573L849.718 554.44L845.296 551.894L840.874 554.44Z" fill="#D0D9DD"/>
<path opacity="0.5" d="M842.022 842.104L842.022 845.902L845.296 847.78L848.571 845.902L848.571 842.104L845.296 840.226L842.022 842.104Z" fill="#D0D9DD"/>
<path opacity="0.5" d="M717.739 411.683L717.739 415.334L720.888 417.15L724.037 415.334L724.037 411.683L720.888 409.867L717.739 411.683Z" fill="#D0D9DD"/>
<path opacity="0.5" d="M653.021 589.748L653.021 596.301L658.694 599.598L664.367 596.301L664.367 589.748L658.694 586.472L653.021 589.748Z" fill="#D0D9DD"/>
<path opacity="0.5" d="M714.548 553.334L714.548 560.679L720.888 564.352L727.249 560.679L727.249 553.334L720.888 549.661L714.548 553.334Z" fill="#D0D9DD"/>
<path opacity="0.5" d="M1150.17 1164.53L1150.17 1171.61L1156.31 1175.14L1162.44 1171.61L1162.44 1164.53L1156.31 1160.99L1150.17 1164.53Z" fill="#D0D9DD"/>
<path d="M1029.67 1022.51L1029.67 1025.09L1031.9 1026.41L1034.15 1025.09L1034.15 1022.51L1031.9 1021.21L1029.67 1022.51Z" fill="white"/>
<path d="M1027.43 805.836L1027.43 810.99L1031.9 813.578L1036.36 810.99L1036.36 805.836L1031.9 803.248L1027.43 805.836Z" fill="white"/>
<path d="M965.241 841.77L965.241 846.925L969.704 849.512L974.167 846.925L974.167 841.77L969.704 839.183L965.241 841.77Z" fill="white"/>
<path d="M1151.84 733.988L1151.84 739.142L1156.31 741.73L1160.77 739.142L1160.77 733.988L1156.31 731.4L1151.84 733.988Z" fill="white"/>
<path d="M1025.12 948.092L1025.12 955.939L1031.9 959.862L1038.7 955.939L1038.7 948.092L1031.9 944.169L1025.12 948.092Z" fill="white"/>
<path d="M1028.31 1093.52L1028.31 1097.67L1031.9 1099.76L1035.49 1097.67L1035.49 1093.52L1031.9 1091.45L1028.31 1093.52Z" fill="white"/>
<path d="M904.882 735.114L904.882 738.14L907.49 739.643L910.117 738.14L910.117 735.114L907.49 733.591L904.882 735.114Z" fill="white"/>
<path d="M1089.57 410.889L1089.57 416.127L1094.09 418.757L1098.64 416.127L1098.64 410.889L1094.09 408.26L1089.57 410.889Z" fill="white"/>
<path d="M1151.76 446.824L1151.76 452.062L1156.31 454.67L1160.83 452.062L1160.83 446.824L1156.31 444.195L1151.76 446.824Z" fill="white"/>
<path d="M1090.88 985.634L1090.88 989.369L1094.09 991.226L1097.32 989.369L1097.32 985.634L1094.09 983.776L1090.88 985.634Z" fill="white"/>
<path d="M904.882 519.716L904.882 522.742L907.49 524.244L910.117 522.742L910.117 519.716L907.49 518.213L904.882 519.716Z" fill="white"/>
<path d="M904.069 591.042L904.069 595.007L907.49 596.99L910.931 595.007L910.931 591.042L907.49 589.081L904.069 591.042Z" fill="white"/>
<path d="M902.964 949.386L902.964 954.624L907.49 957.253L912.036 954.624L912.036 949.386L907.49 946.778L902.964 949.386Z" fill="white"/>
<path d="M963.405 553.376L963.405 560.638L969.704 564.29L976.003 560.638L976.003 553.376L969.704 549.724L963.405 553.376Z" fill="white"/>
<path d="M965.011 626.059L965.011 631.463L969.704 634.176L974.376 631.463L974.376 626.059L969.704 623.346L965.011 626.059Z" fill="white"/>
<path d="M1151.61 590.333L1151.61 595.738L1156.31 598.45L1160.98 595.738L1160.98 590.333L1156.31 587.62L1151.61 590.333Z" fill="white"/>
<path d="M964.615 697.573L964.615 703.437L969.704 706.379L974.772 703.437L974.772 697.573L969.704 694.631L964.615 697.573Z" fill="white"/>
<path d="M966.617 985.717L966.617 989.286L969.704 991.059L972.77 989.286L972.77 985.717L969.704 983.943L966.617 985.717Z" fill="white"/>
<path d="M966.2 1128.98L966.2 1133.02L969.704 1135.03L973.187 1133.02L973.187 1128.98L969.704 1126.97L966.2 1128.98Z" fill="white"/>
<path d="M778.639 446.866L778.639 452.02L783.102 454.587L787.566 452.02L787.566 446.866L783.102 444.278L778.639 446.866Z" fill="white"/>
<path d="M780.871 735.344L780.871 737.911L783.102 739.184L785.313 737.911L785.313 735.344L783.102 734.071L780.871 735.344Z" fill="white"/>
<path d="M840.103 625.746L840.103 631.756L845.296 634.761L850.489 631.756L850.489 625.746L845.296 622.761L840.103 625.746Z" fill="white"/>
<path d="M842.877 699.096L842.877 701.914L845.296 703.312L847.715 701.914L847.715 699.096L845.296 697.698L842.877 699.096Z" fill="white"/>
<path d="M655.357 519.298L655.357 523.159L658.694 525.079L662.031 523.159L662.031 519.298L658.694 517.379L655.357 519.298Z" fill="white"/>
</g>
<defs>
<filter id="filter0_f_24_12" x="1699" y="666" width="1505" height="1505" filterUnits="userSpaceOnUse" color-interpolation-filters="sRGB">
<feFlood flood-opacity="0" result="BackgroundImageFix"/>
<feBlend mode="normal" in="SourceGraphic" in2="BackgroundImageFix" result="shape"/>
<feGaussianBlur stdDeviation="202" result="effect1_foregroundBlur_24_12"/>
</filter>
<filter id="filter1_f_24_12" x="0" y="0" width="1793" height="1793" filterUnits="userSpaceOnUse" color-interpolation-filters="sRGB">
<feFlood flood-opacity="0" result="BackgroundImageFix"/>
<feBlend mode="normal" in="SourceGraphic" in2="BackgroundImageFix" result="shape"/>
<feGaussianBlur stdDeviation="272" result="effect1_foregroundBlur_24_12"/>
</filter>
<clipPath id="clip0_24_12">
<rect width="623" height="905" fill="white" transform="translate(2720 1673) rotate(-180)"/>
</clipPath>
<clipPath id="clip1_24_12">
<rect width="623" height="905" fill="white" transform="matrix(-1 8.74228e-08 8.74228e-08 1 1219 377)"/>
</clipPath>
</defs>
</svg>
