<svg width="44" height="44" viewBox="0 0 44 44" fill="none" xmlns="http://www.w3.org/2000/svg">
<rect x="0.671875" y="0.481445" width="43.0476" height="43.0476" rx="21.5238" fill="white"/>
<path d="M19.703 21.9119C18.9935 21.9119 18.3 22.1223 17.71 22.5165C17.1201 22.9107 16.6603 23.4709 16.3888 24.1264C16.1173 24.7819 16.0462 25.5032 16.1847 26.1991C16.3231 26.8949 16.6647 27.5341 17.1664 28.0358C17.6681 28.5375 18.3073 28.8792 19.0032 29.0176C19.699 29.156 20.4203 29.085 21.0758 28.8134C21.7313 28.5419 22.2916 28.0821 22.6858 27.4922C23.0799 26.9023 23.2903 26.2087 23.2903 25.4992V14.7373C23.2903 15.9266 23.7628 17.0671 24.6037 17.9081C25.4446 18.749 26.5852 19.2214 27.7745 19.2214" stroke="#282828" stroke-width="1.34524" stroke-linecap="round" stroke-linejoin="round"/>
</svg>
