<svg width="44" height="44" viewBox="0 0 44 44" fill="none" xmlns="http://www.w3.org/2000/svg">
<rect x="0.671875" y="0.481445" width="43.0476" height="43.0476" rx="21.5238" fill="white"/>
<path d="M18.6082 29.1798L22.1955 21.1084" stroke="#282828" stroke-width="1.34524" stroke-linecap="round" stroke-linejoin="round"/>
<path d="M21.0297 23.7989C21.4216 24.9316 22.3121 25.5926 23.3166 25.5926C25.1739 25.5926 26.6797 24.1989 26.6797 22.0053C26.6804 21.3504 26.5378 20.7034 26.2617 20.1096C25.9856 19.5158 25.5829 18.9896 25.0817 18.5681C24.5805 18.1467 23.9931 17.8401 23.3608 17.6699C22.7284 17.4997 22.0665 17.4701 21.4215 17.5832C20.7765 17.6962 20.164 17.9492 19.6273 18.3242C19.0905 18.6993 18.6423 19.1874 18.3144 19.7542C17.9864 20.321 17.7865 20.9527 17.7289 21.605C17.6712 22.2573 17.7571 22.9143 17.9805 23.5299" stroke="#282828" stroke-width="1.34524" stroke-linecap="round" stroke-linejoin="round"/>
<path d="M22.1955 30.0767C26.6532 30.0767 30.2669 26.463 30.2669 22.0053C30.2669 17.5475 26.6532 13.9338 22.1955 13.9338C17.7377 13.9338 14.124 17.5475 14.124 22.0053C14.124 26.463 17.7377 30.0767 22.1955 30.0767Z" stroke="#282828" stroke-width="1.34524" stroke-linecap="round" stroke-linejoin="round"/>
</svg>
