<svg width="44" height="44" viewBox="0 0 44 44" fill="none" xmlns="http://www.w3.org/2000/svg">
<rect x="0.492188" y="0.481445" width="43.0476" height="43.0476" rx="21.5238" fill="#F2F4F7"/>
<path d="M30.6584 14.7464C29.7616 15.1858 28.8827 15.3643 27.968 15.6343C26.9626 14.4998 25.4721 14.437 24.0399 14.9733C22.6076 15.5096 21.6696 16.8208 21.6902 18.3247V19.2216C18.78 19.296 16.1882 17.9705 14.5156 15.6343C14.5156 15.6343 10.7651 22.3004 18.1029 25.4993C16.424 26.6177 14.7496 27.3719 12.7219 27.293C15.6886 28.91 18.9217 29.466 21.7207 28.6535C24.9313 27.7208 27.5698 25.3146 28.5823 21.7103C28.8843 20.614 29.0343 19.4815 29.028 18.3445C29.0262 18.1212 30.3822 15.8585 30.6584 14.7455V14.7464Z" stroke="#282828" stroke-width="1.34524" stroke-linecap="round" stroke-linejoin="round"/>
</svg>
