<svg width="25" height="24" viewBox="0 0 25 24" fill="none" xmlns="http://www.w3.org/2000/svg">
<path d="M12.4726 15.1269L9.05757 11.7128L9.74077 11.018L11.9901 13.2674V4.92029H12.9551V13.2674L15.2035 11.019L15.8877 11.7128L12.4726 15.1269ZM7.27718 18.43C6.83265 18.43 6.46177 18.2814 6.16456 17.9842C5.86735 17.687 5.71842 17.3158 5.71777 16.8706V14.5324H6.68275V16.8706C6.68275 17.0192 6.74451 17.1556 6.86803 17.2797C6.99155 17.4039 7.12761 17.4657 7.27622 17.465H17.669C17.817 17.465 17.9531 17.4033 18.0772 17.2797C18.2014 17.1562 18.2632 17.0198 18.2625 16.8706V14.5324H19.2275V16.8706C19.2275 17.3151 19.0789 17.686 18.7817 17.9832C18.4845 18.2804 18.1133 18.4294 17.6681 18.43H7.27718Z" fill="white"/>
</svg>
