<svg width="50" height="50" viewBox="0 0 50 50" fill="none" xmlns="http://www.w3.org/2000/svg">
<path d="M25.0001 32.4521L17.6272 25.0812L19.1022 23.5812L23.9584 28.4375V10.4167H26.0417V28.4375L30.8959 23.5833L32.373 25.0812L25.0001 32.4521ZM13.7834 39.5833C12.8237 39.5833 12.023 39.2625 11.3813 38.6208C10.7397 37.9792 10.4181 37.1778 10.4167 36.2167V31.1687H12.5001V36.2167C12.5001 36.5375 12.6334 36.8319 12.9001 37.1C13.1667 37.3681 13.4605 37.5014 13.7813 37.5H36.2188C36.5383 37.5 36.832 37.3667 37.1001 37.1C37.3681 36.8333 37.5015 36.5389 37.5001 36.2167V31.1687H39.5834V36.2167C39.5834 37.1764 39.2626 37.9771 38.6209 38.6187C37.9792 39.2604 37.1779 39.5819 36.2167 39.5833H13.7834Z" fill="white"/>
</svg>
