<svg width="1507" height="176" viewBox="0 0 1507 176" fill="none" xmlns="http://www.w3.org/2000/svg">
<path fill-rule="evenodd" clip-rule="evenodd" d="M58.298 61.469C56.997 61.469 55.8587 60.9811 54.883 60.0054C54.0699 59.0297 53.6634 57.9727 53.6634 56.8344C53.6634 55.8587 53.826 54.883 54.1513 53.9073L72.4456 6.82989C73.2587 5.20372 74.3157 3.65887 75.6166 2.19532C76.9175 0.731774 78.8689 0 81.4708 0H98.3016C99.7652 0 100.985 0.56916 101.96 1.70748C102.936 2.68317 103.261 3.9841 102.936 5.61027L95.6184 53.1756C95.4558 55.127 94.6427 56.997 93.1792 58.7858C91.7156 60.5746 89.6016 61.469 86.8371 61.469H58.298ZM4.63457 61.469C3.33364 61.469 2.19532 60.9811 1.21962 60.0054C0.406541 59.0297 0 57.9727 0 56.8344C0 55.8587 0.162616 54.883 0.487849 53.9073L18.7822 6.82989C19.4327 5.20372 20.4084 3.65887 21.7093 2.19532C23.1728 0.731774 25.2055 0 27.8074 0H44.6382C46.1017 0 47.3214 0.56916 48.2971 1.70748C49.2728 2.68317 49.598 3.9841 49.2728 5.61027L41.955 53.1756C41.6298 55.127 40.7354 56.997 39.2719 58.7858C37.9709 60.5746 35.9382 61.469 33.1737 61.469H4.63457ZM134.947 173.186C133.159 173.186 131.695 172.617 130.557 171.479C129.419 170.341 128.849 168.877 128.849 167.088V121.571L172.512 109.871V141.476H206.661C213.654 141.476 218.939 139.444 222.516 135.378C226.094 131.313 227.883 126.678 227.883 121.474C227.883 115.783 226.013 110.986 222.272 107.083C218.695 103.18 213.491 101.229 206.661 101.229H196.146L187.846 70.2503H204.466C211.133 70.2503 216.093 68.5428 219.345 65.1279C222.76 61.7129 224.468 57.3223 224.468 51.9559C224.468 46.7522 222.76 42.5242 219.345 39.2719C216.093 35.8569 211.133 34.1494 204.466 34.1494H172.512V65.6787L128.849 77.378V8.53737C128.849 6.74858 129.419 5.28503 130.557 4.14672C131.695 3.0084 133.159 2.43924 134.947 2.43924H209.344C223.329 2.43924 234.794 4.39064 243.738 8.29343C252.682 12.1962 259.268 17.8065 263.496 25.1242C267.886 32.2794 270.082 40.8167 270.082 50.7363C270.082 56.5905 268.943 61.7942 266.667 66.3475C264.553 70.7381 261.87 74.397 258.617 77.3241C255.527 80.2512 252.6 82.3652 249.836 83.6661C256.015 86.5932 261.463 91.3904 266.179 98.0577C271.057 104.725 273.497 112.531 273.497 121.474C273.497 132.207 271.057 141.476 266.179 149.282C261.463 156.925 254.471 162.86 245.201 167.088C236.095 171.154 224.874 173.186 211.54 173.186H134.947ZM306.695 173.186C304.906 173.186 303.443 172.617 302.304 171.479C301.166 170.341 300.597 168.877 300.597 167.088V84.6827L345.479 110.595V167.088C345.479 168.877 344.91 170.341 343.772 171.479C342.633 172.617 341.17 173.186 339.381 173.186H306.695ZM300.597 8.53737V37.163L301.364 35.8349L345.479 61.3049V8.53737C345.479 6.74858 344.91 5.28503 343.772 4.14672C342.633 3.0084 341.17 2.43924 339.381 2.43924H306.695C304.906 2.43924 303.443 3.0084 302.304 4.14672C301.166 5.28503 300.597 6.74858 300.597 8.53737ZM376.387 109.835L374.544 113.029C375.572 126.176 378.91 137.285 384.56 146.355C390.74 156.112 399.358 163.429 410.416 168.308C421.474 173.186 434.484 175.626 449.444 175.626C464.405 175.626 477.414 173.186 488.472 168.308C499.53 163.429 508.149 156.112 514.328 146.355C520.43 136.56 523.836 124.387 524.547 109.835H479.116C478.516 120.184 475.618 127.804 470.422 132.695C465.056 137.899 458.063 140.501 449.444 140.501C440.826 140.501 433.833 137.899 428.467 132.695C423.423 127.804 420.534 120.184 419.8 109.835H376.387ZM524.576 67.1485L524.573 67.0793C524.085 52.4438 520.67 40.1662 514.328 30.2466C507.986 20.1644 499.205 12.6028 487.984 7.56167C476.927 2.52056 464.08 0 449.444 0C434.646 0 421.718 2.52056 410.66 7.56167C399.602 12.6028 390.902 20.1644 384.56 30.2466C378.381 40.1662 374.966 52.4438 374.316 67.0793L374.314 67.1485H419.717C420.097 59.8102 421.55 53.8516 424.076 49.2728C426.678 44.3943 430.174 40.8167 434.565 38.5401C438.956 36.2635 443.915 35.1251 449.444 35.1251C455.136 35.1251 460.177 36.2635 464.568 38.5401C468.958 40.8167 472.373 44.3943 474.812 49.2728C477.339 53.8516 478.792 59.8102 479.172 67.1485H524.576ZM647.856 173.186C645.091 173.186 642.896 172.455 641.27 170.991C639.644 169.528 638.506 167.82 637.855 165.869L588.094 9.75699C587.769 8.94391 587.607 8.21213 587.607 7.56167C587.607 6.26073 588.094 5.12242 589.07 4.14672C590.208 3.0084 591.509 2.43924 592.973 2.43924H623.22C625.821 2.43924 627.854 3.17102 629.318 4.63456C630.781 6.09811 631.676 7.48035 632.001 8.78129L666.394 121.474L701.032 8.78129C701.519 7.48035 702.414 6.09811 703.715 4.63456C705.178 3.17102 707.211 2.43924 709.813 2.43924H740.059C741.523 2.43924 742.743 3.0084 743.718 4.14672C744.857 5.12242 745.426 6.26073 745.426 7.56167C745.426 8.21213 745.263 8.94391 744.938 9.75699L695.177 165.869C694.527 167.82 693.389 169.528 691.762 170.991C690.299 172.455 688.104 173.186 685.176 173.186H647.856ZM774.297 173.186C772.508 173.186 771.044 172.617 769.906 171.479C768.768 170.341 768.198 168.877 768.198 167.088V71H885.322C886.038 71.3251 886.675 71.807 887.234 72.4456C888.372 73.5839 888.941 75.0475 888.941 76.8362V98.0577C888.941 99.6838 888.372 101.147 887.234 102.448C886.095 103.587 884.632 104.156 882.843 104.156H810.397V138.061H890.161C891.95 138.061 893.413 138.63 894.551 139.769C895.69 140.907 896.259 142.371 896.259 144.159V167.088C896.259 168.877 895.69 170.341 894.551 171.479C893.413 172.617 891.95 173.186 890.161 173.186H774.297ZM890.972 37H768.198V8.53737C768.198 6.74858 768.768 5.28503 769.906 4.14672C771.044 3.0084 772.508 2.43924 774.297 2.43924H888.209C889.998 2.43924 891.462 3.0084 892.6 4.14672C893.738 5.28503 894.307 6.74858 894.307 8.53737V31.4663C894.307 33.255 893.738 34.7186 892.6 35.8569C892.116 36.3408 891.573 36.7218 890.972 37ZM930.084 173.186C928.296 173.186 926.832 172.617 925.694 171.479C924.555 170.341 923.986 168.877 923.986 167.088V8.53737C923.986 6.74858 924.555 5.28503 925.694 4.14672C926.832 3.0084 928.296 2.43924 930.084 2.43924H996.432C1017.41 2.43924 1033.91 7.31773 1045.95 17.0747C1058.14 26.6691 1064.24 40.3289 1064.24 58.054C1064.24 69.5998 1061.4 79.3568 1055.71 87.325C1050.18 95.2932 1042.86 101.31 1033.75 105.375L1067.41 165.381C1067.9 166.357 1068.15 167.251 1068.15 168.064C1068.15 169.365 1067.58 170.585 1066.44 171.723C1065.46 172.699 1064.24 173.186 1062.78 173.186H1030.58C1027.49 173.186 1025.21 172.455 1023.75 170.991C1022.29 169.365 1021.23 167.901 1020.58 166.6L1010.49 147.126V74.9869C1011.41 74.3801 1012.26 73.6956 1013.02 72.9334C1016.92 69.1933 1018.87 64.0709 1018.87 57.5662C1018.87 51.2242 1017 46.1017 1013.26 42.199C1009.69 38.2962 1003.91 36.3448 995.944 36.3448H967.649V78.5437H967.802V112.937H967.649V167.088C967.649 168.877 967.08 170.341 965.941 171.479C964.803 172.617 963.339 173.186 961.551 173.186H930.084ZM1156.3 175.626C1140.04 175.626 1126.54 173.349 1115.81 168.796C1105.08 164.08 1096.95 157.982 1091.42 150.501C1085.89 143.021 1082.96 135.053 1082.64 126.597C1082.64 125.296 1083.12 124.158 1084.1 123.182C1085.24 122.044 1086.54 121.474 1088 121.474H1118.74C1121.01 121.474 1122.72 121.881 1123.86 122.694C1125.16 123.507 1126.3 124.564 1127.27 125.865C1128.58 128.304 1130.36 130.662 1132.64 132.939C1135.08 135.216 1138.17 137.086 1141.91 138.549C1145.81 139.85 1150.61 140.501 1156.3 140.501C1165.73 140.501 1172.81 139.037 1177.52 136.11C1182.4 133.183 1184.84 129.199 1184.84 124.158C1184.84 120.58 1183.54 117.653 1180.94 115.376C1178.34 112.937 1174.11 110.823 1168.25 109.034C1162.56 107.083 1154.92 105.131 1145.32 103.18C1132.97 100.578 1122.4 97.2446 1113.61 93.1792C1105 88.9512 1098.41 83.5035 1093.86 76.8362C1089.3 70.0064 1087.03 61.5503 1087.03 51.4681C1087.03 41.5485 1089.79 32.6859 1095.32 24.8803C1101.01 17.0747 1108.9 10.9766 1118.98 6.58597C1129.06 2.19532 1141.02 0 1154.84 0C1166.06 0 1175.9 1.46355 1184.35 4.39064C1192.97 7.31774 1200.21 11.2205 1206.06 16.099C1211.92 20.9775 1216.31 26.1812 1219.23 31.7102C1222.32 37.0765 1223.95 42.3616 1224.11 47.5653C1224.11 48.8662 1223.62 50.0858 1222.65 51.2242C1221.67 52.1999 1220.45 52.6877 1218.99 52.6877H1186.79C1185 52.6877 1183.46 52.3625 1182.16 51.712C1180.86 51.0615 1179.72 50.0045 1178.74 48.541C1177.77 44.9634 1175.17 41.8737 1170.94 39.2719C1166.87 36.5074 1161.51 35.1251 1154.84 35.1251C1147.68 35.1251 1142.07 36.4261 1138.01 39.0279C1134.1 41.4672 1132.15 45.2887 1132.15 50.4924C1132.15 53.7447 1133.21 56.5905 1135.32 59.0297C1137.6 61.469 1141.26 63.583 1146.3 65.3718C1151.5 67.1606 1158.58 69.0307 1167.52 70.982C1182.32 73.7465 1194.27 77.2428 1203.38 81.4708C1212.49 85.5362 1219.15 90.9026 1223.38 97.5698C1227.61 104.074 1229.72 112.287 1229.72 122.206C1229.72 133.264 1226.55 142.858 1220.21 150.989C1214.03 158.958 1205.41 165.056 1194.35 169.284C1183.3 173.512 1170.61 175.626 1156.3 175.626ZM1260.24 173.186C1258.45 173.186 1256.99 172.617 1255.85 171.479C1254.71 170.341 1254.14 168.877 1254.14 167.088V146.424H1382.2V167.088C1382.2 168.877 1381.63 170.341 1380.49 171.479C1379.36 172.617 1377.89 173.186 1376.1 173.186H1260.24ZM1254.14 8.53737V103.738H1371.2C1371.94 103.453 1372.6 103.023 1373.18 102.448C1374.32 101.147 1374.88 99.6838 1374.88 98.0577V76.8362C1374.88 75.0475 1374.32 73.5839 1373.18 72.4456C1372.04 71.1447 1370.58 70.4942 1368.79 70.4942H1296.34V37.5644H1374.15C1375.94 37.5644 1377.41 36.9952 1378.54 35.8569C1379.68 34.7186 1380.25 33.255 1380.25 31.4663V8.53737C1380.25 6.74858 1379.68 5.28503 1378.54 4.14672C1377.41 3.0084 1375.94 2.43924 1374.15 2.43924H1260.24C1258.45 2.43924 1256.99 3.0084 1255.85 4.14672C1254.71 5.28503 1254.14 6.74858 1254.14 8.53737ZM1461.4 61.469C1459.93 61.469 1458.71 60.9811 1457.74 60.0054C1456.93 58.8671 1456.6 57.4849 1456.76 55.8587L1464.08 8.29343C1464.41 6.17942 1465.22 4.30934 1466.52 2.68316C1467.98 0.894388 1470.1 0 1472.86 0H1501.4C1502.7 0 1503.76 0.487848 1504.57 1.46354C1505.55 2.43925 1506.04 3.57756 1506.04 4.87849C1506.04 5.85419 1505.87 6.74858 1505.55 7.56167L1487.25 54.6391C1486.6 56.2653 1485.63 57.8101 1484.33 59.2737C1483.03 60.7372 1480.99 61.469 1478.23 61.469H1461.4ZM1407.73 61.469C1406.27 61.469 1405.05 60.9811 1404.08 60.0054C1403.26 58.8671 1402.94 57.4849 1403.1 55.8587L1410.42 8.29343C1410.74 6.17942 1411.56 4.30934 1412.86 2.68316C1414.32 0.894388 1416.43 0 1419.2 0H1447.74C1449.04 0 1450.1 0.487848 1450.91 1.46354C1451.88 2.43925 1452.37 3.57756 1452.37 4.87849C1452.37 5.85419 1452.21 6.74858 1451.88 7.56167L1433.59 54.6391C1432.94 56.2653 1431.96 57.8101 1430.66 59.2737C1429.36 60.7372 1427.33 61.469 1424.57 61.469H1407.73Z" fill="url(#paint0_linear_15_47)"/>
<defs>
<linearGradient id="paint0_linear_15_47" x1="-2.47957e-07" y1="27.6797" x2="1506.04" y2="147.946" gradientUnits="userSpaceOnUse">
<stop stop-color="#8A56F6"/>
<stop offset="0.24" stop-color="#DE78F8"/>
<stop offset="0.555" stop-color="#3080BD"/>
<stop offset="1" stop-color="#14F9A5"/>
</linearGradient>
</defs>
</svg>
