<svg width="14" height="19" viewBox="0 0 14 19" fill="none" xmlns="http://www.w3.org/2000/svg">
<path d="M13.0665 10.4335C12.7782 10.0973 12.4347 9.80044 12.0373 9.54174C11.6387 9.28304 11.2113 9.047 10.7512 8.83479C10.2912 8.62259 9.81107 8.43065 9.30715 8.26137C8.80323 8.09208 8.29555 7.93352 7.78411 7.78689C7.33785 7.65575 6.91164 7.52223 6.5055 7.38752C6.09935 7.2528 5.73959 7.10379 5.42746 6.94165C5.11408 6.77952 4.86714 6.59355 4.68413 6.38492C4.50111 6.17629 4.4096 5.93309 4.4096 5.65532C4.4096 5.4002 4.46976 5.16057 4.59261 4.93645C4.7142 4.71232 4.89346 4.518 5.12912 4.3511C5.36479 4.18539 5.65686 4.05425 6.0066 3.95769C6.35633 3.86112 6.75746 3.81225 7.21249 3.81225C7.56975 3.81225 7.92074 3.86589 8.26672 3.97438C8.61269 4.08286 8.93485 4.214 9.23569 4.36779C9.53654 4.52277 9.80856 4.68848 10.0517 4.86611C10.2949 5.04374 10.4942 5.20587 10.6484 5.35251L10.6722 5.36443C10.7863 5.44908 10.8879 5.51702 10.9769 5.56709C11.0659 5.61717 11.1636 5.6422 11.2689 5.6422C11.3416 5.6422 11.4319 5.60763 11.5372 5.53729C11.6425 5.46695 11.7603 5.38112 11.8907 5.27621C12.0198 5.17249 12.1502 5.05447 12.2805 4.92334C12.4096 4.7922 12.5362 4.66464 12.6578 4.54065V4.55258L13.0239 4.18181C13.0966 4.10432 13.158 4.01729 13.2069 3.92073C13.2558 3.82416 13.2796 3.72998 13.2796 3.637C13.2796 3.53685 13.2244 3.41526 13.1154 3.2722C13.0063 3.12914 12.8659 2.9825 12.6954 2.83229C12.525 2.68208 12.3382 2.53306 12.1351 2.38643C11.932 2.23979 11.7327 2.10866 11.5384 1.99302C10.8891 1.60676 10.1821 1.30395 9.4187 1.0834C8.6553 0.862854 7.90319 0.753174 7.16486 0.753174C6.18961 0.753174 5.30838 0.8712 4.52116 1.10605C3.73269 1.3421 3.05954 1.66994 2.49796 2.09078C1.93763 2.51161 1.50517 3.01827 1.20056 3.60839C0.895951 4.19969 0.743017 4.85419 0.743017 5.57306C0.743017 6.21444 0.867111 6.79144 1.11406 7.30526C1.36226 7.81908 1.7333 8.28283 2.2297 8.69531C2.72485 9.10899 3.3441 9.48094 4.08745 9.81355C4.83079 10.1462 5.69698 10.4549 6.68852 10.741C7.11974 10.8567 7.54719 10.9807 7.97465 11.1118C8.40085 11.2429 8.78568 11.3991 9.12538 11.5815C9.46634 11.7627 9.74212 11.9749 9.95397 12.2193C10.1646 12.4625 10.2711 12.7546 10.2711 13.0944C10.2711 13.4341 10.1896 13.7429 10.0279 14.0219C9.86498 14.2996 9.64183 14.5381 9.35728 14.7348C9.07273 14.9315 8.73554 15.0841 8.34569 15.1926C7.95584 15.301 7.53716 15.3547 7.0909 15.3547C6.76624 15.3547 6.419 15.3022 6.04921 15.1985C5.67942 15.0936 5.30839 14.9517 4.93483 14.7693C4.56128 14.5881 4.19775 14.3807 3.84425 14.1494C3.49076 13.9181 3.17236 13.6749 2.88781 13.4198H2.90034L2.85147 13.3733C2.78628 13.3113 2.70605 13.2458 2.60827 13.1766C2.5105 13.1075 2.4052 13.0729 2.29113 13.0729C2.21842 13.0729 2.12316 13.1075 2.00533 13.1766C1.8875 13.2458 1.75963 13.3316 1.62174 13.4317C1.48386 13.5319 1.34596 13.6439 1.20807 13.7679C1.07018 13.8919 0.939818 14.004 0.818225 14.1041L0.415847 14.4868C0.318071 14.5798 0.245366 14.6644 0.196479 14.7419C0.147591 14.8194 0.123779 14.9005 0.123779 14.9851C0.123779 15.1472 0.212767 15.3249 0.392022 15.518L0.417101 15.5645V15.5526C0.814471 16.0008 1.26825 16.4038 1.77593 16.7638C2.28361 17.1227 2.82137 17.4302 3.39048 17.6853C3.95832 17.9405 4.55251 18.1372 5.16924 18.2767C5.78598 18.4161 6.40773 18.4853 7.03325 18.4853C8.00849 18.4853 8.9198 18.3553 9.76845 18.0966C10.6171 17.8379 11.3567 17.4672 11.986 16.9844C12.6152 16.5015 13.1091 15.9198 13.4664 15.2402C13.8236 14.5607 14.0016 13.8001 14.0016 12.9573C14.0016 12.4399 13.9189 11.9737 13.7522 11.5613C13.5855 11.1476 13.3586 10.7732 13.0702 10.4371L13.0665 10.4335Z" fill="url(#paint0_linear_232_176)"/>
<defs>
<linearGradient id="paint0_linear_232_176" x1="-102.223" y1="9.61685" x2="30.2023" y2="9.61685" gradientUnits="userSpaceOnUse">
<stop stop-color="#EC5F8C"/>
<stop offset="0.52" stop-color="#675BFF"/>
<stop offset="1" stop-color="#00E4EB"/>
</linearGradient>
</defs>
</svg>
