<svg width="21" height="9" viewBox="0 0 21 9" fill="none" xmlns="http://www.w3.org/2000/svg">
<path d="M19.2573 5.22129C18.6832 4.93517 18.1041 5.01266 17.5425 5.25109C16.6939 5.61231 15.8189 5.68503 14.9264 5.47998C13.5839 5.17241 12.2488 4.83979 10.9101 4.51791C8.95581 4.04701 7.00407 3.57134 5.0473 3.10759C4.3541 2.94307 3.9279 2.52821 3.68346 1.91186C3.52928 1.52441 3.27606 1.22041 2.88496 1.01655C2.18173 0.650563 1.29298 0.7972 0.750196 1.38374C0.233741 1.94405 0.197386 2.82267 0.664953 3.41875C1.16261 4.05178 2.12281 4.35697 3.03789 3.81573C3.50671 3.53915 4.02567 3.4712 4.55717 3.59519C5.97993 3.92899 7.40018 4.27591 8.82043 4.61806C10.6318 5.05438 12.4444 5.49191 14.2557 5.92943C14.7409 6.04626 15.226 6.15951 15.6647 6.40509C16.2175 6.71386 16.6512 7.13588 17.0361 7.61871C17.7293 8.4866 19.0355 8.49136 19.7562 7.65447C19.8252 7.54479 19.9029 7.43988 19.9618 7.32663C20.3579 6.57676 20.0383 5.61112 19.2573 5.22129Z" fill="url(#paint0_linear_232_180)"/>
<defs>
<linearGradient id="paint0_linear_232_180" x1="-30.2233" y1="4.54653" x2="102.202" y2="4.54653" gradientUnits="userSpaceOnUse">
<stop stop-color="#EC5F8C"/>
<stop offset="0.52" stop-color="#675BFF"/>
<stop offset="1" stop-color="#00E4EB"/>
</linearGradient>
</defs>
</svg>
