<svg width="24" height="11" viewBox="0 0 24 11" fill="none" xmlns="http://www.w3.org/2000/svg">
<path d="M21.1887 7.9032C20.7073 8.16547 20.2172 8.22628 19.6957 8.02719C19.4237 7.92347 19.1454 7.83525 18.8709 7.73868C16.414 6.87675 13.957 6.01363 11.4989 5.1517C9.20114 4.34581 6.90592 3.53634 4.60569 2.74117C3.95887 2.51824 3.54395 2.10218 3.30327 1.50729C2.84197 0.36521 1.30264 0.12797 0.416388 1.15561C0.104259 1.53471 0.00648504 2.04972 0.218332 2.5993C0.571828 3.51607 1.67493 3.89756 2.57873 3.41235C3.15536 3.10239 3.73825 3.05351 4.35624 3.27406C5.4255 3.65436 6.49852 4.02512 7.56904 4.40065C9.6311 5.12309 11.6932 5.84793 13.7565 6.57037C15.3146 7.11638 16.8765 7.65284 18.4309 8.2072C19.3823 8.54577 20.1783 9.08224 20.7111 9.92867C20.8527 10.1528 21.0596 10.3137 21.3065 10.4306C21.9345 10.7298 22.7067 10.5641 23.1567 10.0288C23.6193 9.47923 23.628 8.79732 23.1793 8.26323C22.6829 7.67192 21.8869 7.5229 21.1874 7.90439L21.1887 7.9032Z" fill="url(#paint0_linear_232_179)"/>
<defs>
<linearGradient id="paint0_linear_232_179" x1="-25.2233" y1="5.54035" x2="107.202" y2="5.54035" gradientUnits="userSpaceOnUse">
<stop stop-color="#EC5F8C"/>
<stop offset="0.52" stop-color="#675BFF"/>
<stop offset="1" stop-color="#00E4EB"/>
</linearGradient>
</defs>
</svg>
