<svg width="12" height="5" viewBox="0 0 12 5" fill="none" xmlns="http://www.w3.org/2000/svg">
<path d="M0.838693 3.85728C1.53064 4.37587 2.46954 4.35202 3.09255 3.75118C3.76946 3.09788 4.57547 2.75215 5.52691 2.67347C6.73531 2.57333 7.85596 2.80818 8.90141 3.39949C9.68361 3.84178 10.6388 3.65581 11.1665 2.98105C11.7031 2.29556 11.6191 1.40621 10.9234 0.791063C10.2464 0.192601 9.26619 0.268895 8.67954 0.771984C8.24582 1.14513 7.77323 1.45866 7.23421 1.67921C6.50967 1.97606 5.7563 2.13342 4.96658 2.08931C4.18062 2.0452 3.52 1.70783 2.90201 1.26673C2.16368 0.740991 1.09065 0.895969 0.542861 1.59219C-0.0224814 2.31106 0.106637 3.30889 0.837446 3.85609L0.838693 3.85728Z" fill="url(#paint0_linear_232_171)"/>
<defs>
<linearGradient id="paint0_linear_232_171" x1="-37.2235" y1="2.29675" x2="95.202" y2="2.29675" gradientUnits="userSpaceOnUse">
<stop stop-color="#EC5F8C"/>
<stop offset="0.52" stop-color="#675BFF"/>
<stop offset="1" stop-color="#00E4EB"/>
</linearGradient>
</defs>
</svg>
