<svg width="15" height="18" viewBox="0 0 15 18" fill="none" xmlns="http://www.w3.org/2000/svg">
<path d="M13.5536 14.0851H4.57459V11.7091V5.27866V3.22695H13.2377C13.4408 3.22695 13.5925 3.17331 13.6953 3.06482C13.7968 2.95634 13.847 2.83235 13.847 2.69287V0.645944C13.847 0.475466 13.8031 0.3336 13.7128 0.221537C13.6226 0.109475 13.4734 0.0522461 13.2616 0.0522461H1.51597C1.15872 0.0522461 0.980713 0.237034 0.980713 0.607794V16.7722C0.980713 16.9427 1.03336 17.0655 1.13866 17.143C1.24396 17.2205 1.37056 17.2586 1.51597 17.2586H13.5787C13.936 17.2586 14.114 17.0953 14.114 16.7698V14.6526C14.114 14.4594 14.0776 14.3152 14.0037 14.2222C13.931 14.1292 13.7805 14.0827 13.5524 14.0827L13.5536 14.0851Z" fill="url(#paint0_linear_232_173)"/>
<defs>
<linearGradient id="paint0_linear_232_173" x1="-69.2233" y1="8.65722" x2="63.2023" y2="8.65722" gradientUnits="userSpaceOnUse">
<stop stop-color="#EC5F8C"/>
<stop offset="0.52" stop-color="#675BFF"/>
<stop offset="1" stop-color="#00E4EB"/>
</linearGradient>
</defs>
</svg>
