<svg width="15" height="18" viewBox="0 0 15 18" fill="none" xmlns="http://www.w3.org/2000/svg">
<path d="M13.9401 16.4385L10.7724 10.4944C11.235 10.2631 11.6574 9.97937 12.0397 9.64319C12.4208 9.307 12.7505 8.93028 13.0263 8.51303C13.302 8.09577 13.5176 7.64395 13.6718 7.15755C13.826 6.67115 13.9037 6.1609 13.9037 5.62801C13.9037 4.86265 13.7508 4.14139 13.4462 3.46067C13.1416 2.78115 12.7229 2.18984 12.1914 1.68794C11.6599 1.18604 11.0356 0.787863 10.3211 0.494593C9.60662 0.201323 8.83821 0.0546875 8.0184 0.0546875H0.561139C0.203883 0.0546875 0.0258789 0.235896 0.0258789 0.599503V16.7639C0.0258789 16.9344 0.0747645 17.0596 0.17254 17.1406C0.270315 17.2217 0.399427 17.2623 0.562387 17.2623H3.01179C3.38534 17.2623 3.57212 17.0965 3.57212 16.7639V11.2836H6.25843C6.52168 11.2836 6.72976 11.2812 6.87893 11.2776C7.02936 11.2741 7.16976 11.2717 7.29887 11.2717L10.2472 16.8331C10.3449 17.1192 10.5393 17.2623 10.8313 17.2623H13.658C13.9426 17.2623 14.0842 17.1466 14.0842 16.9141C14.0842 16.8295 14.0642 16.7484 14.0228 16.6709C13.9815 16.5935 13.9539 16.516 13.9376 16.4397L13.9401 16.4385ZM10.108 6.633C9.98268 6.94534 9.80468 7.22311 9.57779 7.46512C9.34965 7.70832 9.07638 7.90264 8.75548 8.04928C8.43457 8.19591 8.08358 8.28055 7.70125 8.30321C7.53829 8.3187 7.38661 8.32705 7.24496 8.32705H3.57212V2.95043H5.97263C6.26471 2.95043 6.54675 2.95282 6.82002 2.9564C7.09204 2.95997 7.37032 2.96593 7.65487 2.97427C8.03594 2.99692 8.38944 3.08633 8.71536 3.24012C9.04003 3.39391 9.32081 3.59539 9.55648 3.84097C9.79214 4.08775 9.97516 4.36671 10.1043 4.67905C10.2334 4.9914 10.2998 5.31328 10.2998 5.6447C10.2998 5.97612 10.2372 6.32065 10.1105 6.633H10.108Z" fill="url(#paint0_linear_232_175)"/>
<defs>
<linearGradient id="paint0_linear_232_175" x1="-86.2234" y1="8.65728" x2="46.2022" y2="8.65728" gradientUnits="userSpaceOnUse">
<stop stop-color="#EC5F8C"/>
<stop offset="0.52" stop-color="#675BFF"/>
<stop offset="1" stop-color="#00E4EB"/>
</linearGradient>
</defs>
</svg>
