<svg width="23" height="11" viewBox="0 0 23 11" fill="none" xmlns="http://www.w3.org/2000/svg">
<path d="M20.9353 8.03742C20.6019 8.26512 20.2634 8.31877 19.8848 8.16975C19.7382 8.11134 19.5852 8.06842 19.4348 8.01835C16.9227 7.19934 14.4094 6.38271 11.8973 5.56251C10.0083 4.94616 8.12294 4.3179 6.22885 3.71705C5.49303 3.48458 5.03048 3.04945 4.79983 2.34607C4.54536 1.56998 3.97501 1.08716 3.13389 0.942907C2.32034 0.804617 1.64594 1.07524 1.08937 1.68204C1.02795 1.77742 0.945217 1.88591 0.883794 2.00512C0.527791 2.69776 0.552862 3.38325 0.997866 4.0282C1.43786 4.66362 2.0734 4.97478 2.88067 4.9402C3.34824 4.91994 3.75062 4.7435 4.12794 4.4848C4.682 4.1057 5.28996 4.02821 5.93804 4.24041C8.16807 4.96882 10.3981 5.69603 12.6294 6.42324C14.9747 7.18742 17.3188 7.95636 19.6705 8.70503C20.0954 8.84094 20.3449 9.06863 20.4865 9.4692C20.7147 10.1165 21.5357 10.4348 22.1913 10.1618C22.8795 9.87572 23.1791 9.1044 22.8432 8.4821C22.4759 7.80019 21.5946 7.58679 20.9365 8.03504L20.9353 8.03742Z" fill="url(#paint0_linear_232_178)"/>
<defs>
<linearGradient id="paint0_linear_232_178" x1="-21.2235" y1="5.58516" x2="111.202" y2="5.58516" gradientUnits="userSpaceOnUse">
<stop stop-color="#EC5F8C"/>
<stop offset="0.52" stop-color="#675BFF"/>
<stop offset="1" stop-color="#00E4EB"/>
</linearGradient>
</defs>
</svg>
