<svg width="18" height="18" viewBox="0 0 18 18" fill="none" xmlns="http://www.w3.org/2000/svg">
<path d="M17.0071 0.0534668H14.4487C14.124 0.0534668 13.9046 0.200102 13.7906 0.493372C13.6038 0.979771 13.3819 1.54962 13.1262 2.20293C12.8705 2.85623 12.5997 3.54648 12.3164 4.27727C12.0319 5.00687 11.7398 5.75435 11.4389 6.51971C11.1381 7.28388 10.8485 8.0266 10.5677 8.74428C10.2869 9.46315 10.025 10.1367 9.78177 10.7662C9.53858 11.3956 9.32673 11.9345 9.14873 12.3827C8.97825 11.9345 8.76892 11.3956 8.52072 10.7662C8.27252 10.1367 8.00426 9.46315 7.71594 8.74428C7.42763 8.02541 7.1318 7.28388 6.82594 6.51971C6.52133 5.75435 6.22425 5.00806 5.93594 4.27727C5.64762 3.54767 5.37561 2.85623 5.11988 2.20293C4.86416 1.54962 4.64605 0.980963 4.46805 0.493372C4.35398 0.200102 4.14338 0.0534668 3.83502 0.0534668H1.22767C0.894231 0.0534668 0.72876 0.177449 0.72876 0.424225C0.72876 0.486217 0.73503 0.538672 0.747566 0.580397C0.760101 0.623315 0.766364 0.655505 0.766364 0.679348L7.16314 15.9163C7.23585 16.0939 7.3098 16.2656 7.38251 16.4325C7.45521 16.5982 7.53669 16.7627 7.62569 16.9248C7.66581 17.0095 7.72472 17.087 7.80244 17.1561C7.88016 17.2253 8.01178 17.261 8.19856 17.261H9.60001C9.85949 17.261 10.0826 17.242 10.2706 17.2026C10.4574 17.1645 10.6078 17.0441 10.7219 16.8438C10.8034 16.6971 10.8761 16.5445 10.9413 16.386C11.0065 16.2274 11.0717 16.0713 11.1368 15.9163L17.5211 0.679348C17.5211 0.66385 17.5273 0.632858 17.5399 0.586364C17.5524 0.53987 17.5574 0.489798 17.5574 0.436151C17.5574 0.18103 17.3744 0.0534668 17.0096 0.0534668H17.0071Z" fill="url(#paint0_linear_232_181)"/>
<defs>
<linearGradient id="paint0_linear_232_181" x1="-50.2235" y1="8.65725" x2="82.202" y2="8.65725" gradientUnits="userSpaceOnUse">
<stop stop-color="#EC5F8C"/>
<stop offset="0.52" stop-color="#675BFF"/>
<stop offset="1" stop-color="#00E4EB"/>
</linearGradient>
</defs>
</svg>
