<svg width="14" height="18" viewBox="0 0 14 18" fill="none" xmlns="http://www.w3.org/2000/svg">
<path d="M13.093 14.2258C13.0203 14.1328 12.8699 14.0863 12.6417 14.0863H3.66269V9.88042H10.3641C10.5433 9.88042 10.6724 9.82678 10.7539 9.71829C10.8354 9.60981 10.8755 9.48702 10.8755 9.34753V7.25053C10.8755 7.0574 10.8266 6.9203 10.7301 6.83924C10.6323 6.75817 10.502 6.72479 10.3403 6.74029H3.66395V3.2294H12.3271C12.5302 3.2294 12.6819 3.17575 12.7846 3.06726C12.8862 2.95878 12.9363 2.83479 12.9363 2.69531V0.648378C12.9363 0.4779 12.8925 0.336034 12.8022 0.223971C12.7119 0.111909 12.5628 0.0546875 12.3509 0.0546875H0.605329C0.248072 0.0546875 0.0700684 0.239468 0.0700684 0.610228V16.7747C0.0700684 16.9451 0.122718 17.0679 0.228015 17.1454C0.333311 17.2229 0.459919 17.2611 0.605329 17.2611H12.6681C13.0253 17.2611 13.2033 17.0977 13.2033 16.7723V14.655C13.2033 14.4619 13.167 14.3176 13.093 14.2246V14.2258Z" fill="url(#paint0_linear_232_177)"/>
<defs>
<linearGradient id="paint0_linear_232_177" x1="-119.224" y1="8.65728" x2="13.2021" y2="8.65728" gradientUnits="userSpaceOnUse">
<stop stop-color="#EC5F8C"/>
<stop offset="0.52" stop-color="#675BFF"/>
<stop offset="1" stop-color="#00E4EB"/>
</linearGradient>
</defs>
</svg>
