<svg width="16" height="6" viewBox="0 0 16 6" fill="none" xmlns="http://www.w3.org/2000/svg">
<path d="M15.2359 3.31072C14.915 3.18793 14.5979 3.22608 14.2958 3.37033C13.7818 3.61472 13.2428 3.68983 12.6737 3.62665C10.3309 3.36676 7.98678 3.11641 5.64393 2.85175C4.76395 2.75161 4.0557 2.36773 3.54676 1.65363C3.39007 1.43547 3.16694 1.23996 2.93128 1.0969C2.09643 0.586658 1.01588 0.82151 0.422962 1.61668C-0.127338 2.35224 0.0418898 3.42637 0.800277 3.9986C0.852925 4.03794 0.905572 4.07967 0.959474 4.11662C0.983291 4.13331 1.01212 4.14524 1.0397 4.15835C1.77302 4.49692 2.48001 4.41466 3.14438 4.00099C3.82004 3.57896 4.53455 3.32504 5.35561 3.41445C7.66211 3.66599 9.96861 3.92946 12.2776 4.16312C13.0159 4.23822 13.6665 4.454 14.2294 4.91537C14.4412 5.08942 14.6994 5.12876 14.9715 5.0918C15.3951 5.03577 15.7461 4.68886 15.8051 4.27518C15.8615 3.87581 15.6208 3.45736 15.2385 3.31192L15.2359 3.31072Z" fill="url(#paint0_linear_232_172)"/>
<defs>
<linearGradient id="paint0_linear_232_172" x1="-22.2233" y1="2.965" x2="110.202" y2="2.965" gradientUnits="userSpaceOnUse">
<stop stop-color="#EC5F8C"/>
<stop offset="0.52" stop-color="#675BFF"/>
<stop offset="1" stop-color="#00E4EB"/>
</linearGradient>
</defs>
</svg>
