<svg width="15" height="18" viewBox="0 0 15 18" fill="none" xmlns="http://www.w3.org/2000/svg">
<path d="M14.2984 9.83269C14.1054 9.48458 13.8747 9.16031 13.6065 8.85989C13.3382 8.55827 13.0374 8.29242 12.7052 8.05995C13.1189 7.65105 13.4435 7.17537 13.6804 6.63413C13.9161 6.0929 14.0339 5.50993 14.0339 4.88405C14.0339 4.20452 13.9023 3.5703 13.6378 2.98376C13.3746 2.39722 13.0123 1.88697 12.5548 1.45422C12.096 1.02147 11.557 0.679323 10.9352 0.428971C10.3147 0.177426 9.65158 0.0522461 8.94585 0.0522461H1.32563C0.960849 0.0522461 0.777832 0.233454 0.777832 0.597062V16.7615C0.777832 16.932 0.827973 17.0571 0.930763 17.1382C1.0323 17.2193 1.16392 17.2598 1.32688 17.2598H9.70925C10.4325 17.2598 11.1107 17.1227 11.7437 16.8485C12.3768 16.5743 12.9271 16.2012 13.3946 15.7303C13.8609 15.2594 14.2307 14.7146 14.5027 14.097C14.7748 13.4795 14.9114 12.8262 14.9114 12.1383C14.9114 11.7294 14.8575 11.3288 14.7509 10.939C14.6444 10.5492 14.494 10.1796 14.2997 9.83269H14.2984ZM4.29775 2.86931H8.29025C8.61617 2.86931 8.91451 2.92176 9.18778 3.02548C9.46105 3.1292 9.6942 3.27464 9.88975 3.45943C10.0853 3.64421 10.2382 3.86476 10.3473 4.11988C10.4576 4.375 10.5128 4.6492 10.5128 4.94247C10.5128 5.23574 10.4551 5.52424 10.3423 5.78293C10.2282 6.04163 10.0715 6.26576 9.87221 6.45531C9.6729 6.64486 9.43472 6.79388 9.15769 6.90118C8.88066 7.00966 8.57982 7.06331 8.2539 7.06331H4.29775V2.86811V2.86931ZM11.1571 12.8631C11.0593 13.1218 10.9227 13.3555 10.7484 13.5641C10.5729 13.7728 10.3686 13.9468 10.1317 14.0851C9.89602 14.2246 9.63905 14.3128 9.36327 14.3521C9.20031 14.3831 9.03735 14.4046 8.87565 14.4165C8.71269 14.4284 8.54597 14.4344 8.37549 14.4344H4.299V9.73016H8.37549C8.54597 9.73016 8.71519 9.7397 8.88191 9.75877C9.04863 9.77785 9.21285 9.7993 9.37581 9.82195C9.65284 9.86845 9.90856 9.95906 10.1442 10.0938C10.3799 10.2285 10.583 10.3966 10.7547 10.598C10.9252 10.7983 11.0593 11.0248 11.1571 11.2764C11.2549 11.5279 11.3037 11.7842 11.3037 12.0465C11.3037 12.3326 11.2549 12.6044 11.1571 12.8631Z" fill="url(#paint0_linear_232_168)"/>
<defs>
<linearGradient id="paint0_linear_232_168" x1="0.776578" y1="8.65722" x2="133.202" y2="8.65722" gradientUnits="userSpaceOnUse">
<stop stop-color="#EC5F8C"/>
<stop offset="0.52" stop-color="#675BFF"/>
<stop offset="1" stop-color="#00E4EB"/>
</linearGradient>
</defs>
</svg>
