<svg width="1728" height="1042" viewBox="0 0 1728 1042" fill="none" xmlns="http://www.w3.org/2000/svg">
<g opacity="0.2" filter="url(#filter0_f_34_283)">
<ellipse cx="1503.72" cy="667.846" rx="305.775" ry="273.074" transform="rotate(180 1503.72 667.846)" fill="#0500FF"/>
</g>
<g opacity="0.2" filter="url(#filter1_f_34_283)">
<ellipse cx="225.635" cy="455.981" rx="319.365" ry="285.815" transform="rotate(180 225.635 455.981)" fill="#0500FF"/>
</g>
<g opacity="0.2" filter="url(#filter2_f_34_283)">
<ellipse cx="254.292" cy="1027.98" rx="319.365" ry="285.815" transform="rotate(180 254.292 1027.98)" fill="#0500FF"/>
</g>
<path d="M571.215 805.29C566.533 845.041 558.926 885.377 548.393 926.298C537.86 967.219 516.501 1001.42 484.316 1028.89C452.131 1056.37 417.021 1078.87 378.984 1096.41C340.948 1113.95 301.449 1131.19 260.486 1148.15C219.524 1165.1 177.976 1167.15 135.844 1154.28C93.7111 1141.42 58.0154 1119.21 28.7566 1087.64C-0.502213 1056.08 -34.735 1031.23 -73.9418 1013.11C-113.149 994.986 -145.333 967.803 -170.496 931.559C-195.658 895.315 -209.703 855.271 -212.628 811.428C-215.554 767.584 -213.799 724.033 -207.362 680.774C-200.925 637.515 -186.003 598.056 -162.596 562.396C-139.189 526.737 -114.319 491.662 -87.986 457.171C-61.6531 422.681 -27.4203 399.882 14.7124 388.775C56.845 377.668 98.0999 372.992 138.477 374.745C178.854 376.499 218.939 377.668 258.731 378.253C298.523 378.838 339.485 384.099 381.618 394.037C423.75 403.975 461.202 423.558 493.971 452.787C526.741 482.016 544.589 519.137 547.515 564.15C550.441 609.163 556.293 650.668 565.07 688.666C573.848 726.663 575.896 765.538 571.215 805.29Z" fill="url(#paint0_radial_34_283)"/>
<path opacity="0.15" d="M571.215 805.29C566.533 845.041 558.926 885.377 548.393 926.298C537.86 967.219 516.501 1001.42 484.316 1028.89C452.131 1056.37 417.021 1078.87 378.984 1096.41C340.948 1113.95 301.449 1131.19 260.486 1148.15C219.524 1165.1 177.976 1167.15 135.844 1154.28C93.7111 1141.42 58.0154 1119.21 28.7566 1087.64C-0.502197 1056.08 -34.735 1031.23 -73.9418 1013.11C-113.149 994.986 -145.333 967.803 -170.496 931.559C-195.658 895.315 -209.703 855.271 -212.628 811.428C-215.554 767.584 -213.799 724.033 -207.362 680.774C-200.925 637.515 -186.003 598.056 -162.596 562.396C-139.189 526.737 -114.319 491.662 -87.986 457.171C-61.6531 422.681 -27.4203 399.882 14.7124 388.775C56.845 377.668 98.0999 372.992 138.477 374.745C178.854 376.499 218.939 377.668 258.731 378.253C298.523 378.838 339.485 384.099 381.618 394.037C423.75 403.975 461.202 423.558 493.971 452.787C526.741 482.016 544.589 519.137 547.515 564.15C550.441 609.163 556.293 650.668 565.07 688.666C573.848 726.663 575.896 765.538 571.215 805.29Z" fill="url(#paint1_radial_34_283)"/>
<defs>
<filter id="filter0_f_34_283" x="1028.07" y="224.897" width="951.3" height="885.898" filterUnits="userSpaceOnUse" color-interpolation-filters="sRGB">
<feFlood flood-opacity="0" result="BackgroundImageFix"/>
<feBlend mode="normal" in="SourceGraphic" in2="BackgroundImageFix" result="shape"/>
<feGaussianBlur stdDeviation="84.9375" result="effect1_foregroundBlur_34_283"/>
</filter>
<filter id="filter1_f_34_283" x="-263.605" y="0.291046" width="978.48" height="911.379" filterUnits="userSpaceOnUse" color-interpolation-filters="sRGB">
<feFlood flood-opacity="0" result="BackgroundImageFix"/>
<feBlend mode="normal" in="SourceGraphic" in2="BackgroundImageFix" result="shape"/>
<feGaussianBlur stdDeviation="84.9375" result="effect1_foregroundBlur_34_283"/>
</filter>
<filter id="filter2_f_34_283" x="-234.948" y="572.291" width="978.48" height="911.379" filterUnits="userSpaceOnUse" color-interpolation-filters="sRGB">
<feFlood flood-opacity="0" result="BackgroundImageFix"/>
<feBlend mode="normal" in="SourceGraphic" in2="BackgroundImageFix" result="shape"/>
<feGaussianBlur stdDeviation="84.9375" result="effect1_foregroundBlur_34_283"/>
</filter>
<radialGradient id="paint0_radial_34_283" cx="0" cy="0" r="1" gradientUnits="userSpaceOnUse" gradientTransform="translate(179.828 768.497) rotate(140.845) scale(2124.29 2095.92)">
<stop offset="0.05" stop-color="#1A1A1A" stop-opacity="0"/>
<stop offset="0.173794" stop-color="#2140DE" stop-opacity="0.53"/>
<stop offset="0.18686" stop-color="#9700FF" stop-opacity="0.73"/>
<stop offset="0.211987" stop-color="#DC9D36" stop-opacity="0.64"/>
<stop offset="0.655" stop-color="#646464"/>
<stop offset="1" stop-color="#808080"/>
</radialGradient>
<radialGradient id="paint1_radial_34_283" cx="0" cy="0" r="1" gradientUnits="userSpaceOnUse" gradientTransform="translate(179.828 768.497) rotate(140.845) scale(2124.29 2095.92)">
<stop offset="0.05" stop-color="#1A1A1A" stop-opacity="0"/>
<stop offset="0.173794" stop-color="#2140DE" stop-opacity="0.53"/>
<stop offset="0.18686" stop-color="#9700FF" stop-opacity="0.73"/>
<stop offset="0.211987" stop-color="#DC9D36" stop-opacity="0.64"/>
<stop offset="0.655" stop-color="#646464"/>
<stop offset="1" stop-color="#808080"/>
</radialGradient>
</defs>
</svg>
