<svg width="1544" height="214" viewBox="0 0 1544 214" fill="none" xmlns="http://www.w3.org/2000/svg">
<g filter="url(#filter0_f_34_581)">
<path fill-rule="evenodd" clip-rule="evenodd" d="M77.298 80.469C75.997 80.469 74.8587 79.9811 73.883 79.0054C73.0699 78.0297 72.6634 76.9727 72.6634 75.8344C72.6634 74.8587 72.826 73.883 73.1513 72.9073L91.4456 25.8299C92.2587 24.2037 93.3157 22.6589 94.6166 21.1953C95.9175 19.7318 97.8689 19 100.471 19H117.302C118.765 19 119.985 19.5692 120.96 20.7075C121.936 21.6832 122.261 22.9841 121.936 24.6103L114.618 72.1756C114.456 74.127 113.643 75.997 112.179 77.7858C110.716 79.5746 108.602 80.469 105.837 80.469H77.298ZM23.6346 80.469C22.3336 80.469 21.1953 79.9811 20.2196 79.0054C19.4065 78.0297 19 76.9727 19 75.8344C19 74.8587 19.1626 73.883 19.4878 72.9073L37.7822 25.8299C38.4327 24.2037 39.4084 22.6589 40.7093 21.1953C42.1728 19.7318 44.2055 19 46.8074 19H63.6382C65.1017 19 66.3214 19.5692 67.2971 20.7075C68.2728 21.6832 68.598 22.9841 68.2728 24.6103L60.955 72.1756C60.6298 74.127 59.7354 75.997 58.2719 77.7858C56.9709 79.5746 54.9382 80.469 52.1737 80.469H23.6346ZM153.947 192.186C152.159 192.186 150.695 191.617 149.557 190.479C148.419 189.341 147.849 187.877 147.849 186.088V140.571L191.512 128.871V160.476H225.661C232.654 160.476 237.939 158.444 241.516 154.378C245.094 150.313 246.883 145.678 246.883 140.474C246.883 134.783 245.013 129.986 241.272 126.083C237.695 122.18 232.491 120.229 225.661 120.229H215.146L206.846 89.2503H223.466C230.133 89.2503 235.093 87.5428 238.345 84.1279C241.76 80.7129 243.468 76.3223 243.468 70.9559C243.468 65.7522 241.76 61.5242 238.345 58.2719C235.093 54.8569 230.133 53.1494 223.466 53.1494H191.512V84.6787L147.849 96.378V27.5374C147.849 25.7486 148.419 24.285 149.557 23.1467C150.695 22.0084 152.159 21.4392 153.947 21.4392H228.344C242.329 21.4392 253.794 23.3906 262.738 27.2934C271.682 31.1962 278.268 36.8065 282.496 44.1242C286.886 51.2794 289.082 59.8167 289.082 69.7363C289.082 75.5905 287.943 80.7942 285.667 85.3475C283.553 89.7381 280.87 93.397 277.617 96.3241C274.527 99.2512 271.6 101.365 268.836 102.666C275.015 105.593 280.463 110.39 285.179 117.058C290.057 123.725 292.497 131.531 292.497 140.474C292.497 151.207 290.057 160.476 285.179 168.282C280.463 175.925 273.471 181.86 264.201 186.088C255.095 190.154 243.874 192.186 230.54 192.186H153.947ZM325.695 192.186C323.906 192.186 322.443 191.617 321.304 190.479C320.166 189.341 319.597 187.877 319.597 186.088V103.683L364.479 129.595V186.088C364.479 187.877 363.91 189.341 362.772 190.479C361.633 191.617 360.17 192.186 358.381 192.186H325.695ZM319.597 27.5374V56.163L320.364 54.8349L364.479 80.3049V27.5374C364.479 25.7486 363.91 24.285 362.772 23.1467C361.633 22.0084 360.17 21.4392 358.381 21.4392H325.695C323.906 21.4392 322.443 22.0084 321.304 23.1467C320.166 24.285 319.597 25.7486 319.597 27.5374ZM395.387 128.835L393.544 132.029C394.572 145.176 397.91 156.285 403.56 165.355C409.74 175.112 418.358 182.429 429.416 187.308C440.474 192.186 453.484 194.626 468.444 194.626C483.405 194.626 496.414 192.186 507.472 187.308C518.53 182.429 527.149 175.112 533.328 165.355C539.43 155.56 542.836 143.387 543.547 128.835H498.116C497.516 139.184 494.618 146.804 489.422 151.695C484.056 156.899 477.063 159.501 468.444 159.501C459.826 159.501 452.833 156.899 447.467 151.695C442.423 146.804 439.534 139.184 438.8 128.835H395.387ZM543.576 86.1485L543.573 86.0793C543.085 71.4438 539.67 59.1662 533.328 49.2466C526.986 39.1644 518.205 31.6028 506.984 26.5617C495.927 21.5206 483.08 19 468.444 19C453.646 19 440.718 21.5206 429.66 26.5617C418.602 31.6028 409.902 39.1644 403.56 49.2466C397.381 59.1662 393.966 71.4438 393.316 86.0793L393.314 86.1485H438.717C439.097 78.8102 440.55 72.8516 443.076 68.2728C445.678 63.3943 449.174 59.8167 453.565 57.5401C457.956 55.2635 462.915 54.1251 468.444 54.1251C474.136 54.1251 479.177 55.2635 483.568 57.5401C487.958 59.8167 491.373 63.3943 493.812 68.2728C496.339 72.8516 497.792 78.8102 498.172 86.1485H543.576ZM666.856 192.186C664.091 192.186 661.896 191.455 660.27 189.991C658.644 188.528 657.506 186.82 656.855 184.869L607.094 28.757C606.769 27.9439 606.607 27.2121 606.607 26.5617C606.607 25.2607 607.094 24.1224 608.07 23.1467C609.208 22.0084 610.509 21.4392 611.973 21.4392H642.22C644.821 21.4392 646.854 22.171 648.318 23.6346C649.781 25.0981 650.676 26.4804 651.001 27.7813L685.394 140.474L720.032 27.7813C720.519 26.4804 721.414 25.0981 722.715 23.6346C724.178 22.171 726.211 21.4392 728.813 21.4392H759.059C760.523 21.4392 761.743 22.0084 762.718 23.1467C763.857 24.1224 764.426 25.2607 764.426 26.5617C764.426 27.2121 764.263 27.9439 763.938 28.757L714.177 184.869C713.527 186.82 712.389 188.528 710.762 189.991C709.299 191.455 707.104 192.186 704.176 192.186H666.856ZM793.297 192.186C791.508 192.186 790.044 191.617 788.906 190.479C787.768 189.341 787.198 187.877 787.198 186.088V90H904.322C905.038 90.3251 905.675 90.807 906.234 91.4456C907.372 92.5839 907.941 94.0475 907.941 95.8362V117.058C907.941 118.684 907.372 120.147 906.234 121.448C905.095 122.587 903.632 123.156 901.843 123.156H829.397V157.061H909.161C910.95 157.061 912.413 157.63 913.551 158.769C914.69 159.907 915.259 161.371 915.259 163.159V186.088C915.259 187.877 914.69 189.341 913.551 190.479C912.413 191.617 910.95 192.186 909.161 192.186H793.297ZM909.972 56H787.198V27.5374C787.198 25.7486 787.768 24.285 788.906 23.1467C790.044 22.0084 791.508 21.4392 793.297 21.4392H907.209C908.998 21.4392 910.462 22.0084 911.6 23.1467C912.738 24.285 913.307 25.7486 913.307 27.5374V50.4663C913.307 52.255 912.738 53.7186 911.6 54.8569C911.116 55.3408 910.573 55.7218 909.972 56ZM949.084 192.186C947.296 192.186 945.832 191.617 944.694 190.479C943.555 189.341 942.986 187.877 942.986 186.088V27.5374C942.986 25.7486 943.555 24.285 944.694 23.1467C945.832 22.0084 947.296 21.4392 949.084 21.4392H1015.43C1036.41 21.4392 1052.91 26.3177 1064.95 36.0747C1077.14 45.6691 1083.24 59.3289 1083.24 77.054C1083.24 88.5998 1080.4 98.3568 1074.71 106.325C1069.18 114.293 1061.86 120.31 1052.75 124.375L1086.41 184.381C1086.9 185.357 1087.15 186.251 1087.15 187.064C1087.15 188.365 1086.58 189.585 1085.44 190.723C1084.46 191.699 1083.24 192.186 1081.78 192.186H1049.58C1046.49 192.186 1044.21 191.455 1042.75 189.991C1041.29 188.365 1040.23 186.901 1039.58 185.6L1029.49 166.126V93.9869C1030.41 93.3801 1031.26 92.6956 1032.02 91.9334C1035.92 88.1933 1037.87 83.0709 1037.87 76.5662C1037.87 70.2242 1036 65.1017 1032.26 61.199C1028.69 57.2962 1022.91 55.3448 1014.94 55.3448H986.649V97.5437H986.802V131.937H986.649V186.088C986.649 187.877 986.08 189.341 984.941 190.479C983.803 191.617 982.339 192.186 980.551 192.186H949.084ZM1175.3 194.626C1159.04 194.626 1145.54 192.349 1134.81 187.796C1124.08 183.08 1115.95 176.982 1110.42 169.501C1104.89 162.021 1101.96 154.053 1101.64 145.597C1101.64 144.296 1102.12 143.158 1103.1 142.182C1104.24 141.044 1105.54 140.474 1107 140.474H1137.74C1140.01 140.474 1141.72 140.881 1142.86 141.694C1144.16 142.507 1145.3 143.564 1146.27 144.865C1147.58 147.304 1149.36 149.662 1151.64 151.939C1154.08 154.216 1157.17 156.086 1160.91 157.549C1164.81 158.85 1169.61 159.501 1175.3 159.501C1184.73 159.501 1191.81 158.037 1196.52 155.11C1201.4 152.183 1203.84 148.199 1203.84 143.158C1203.84 139.58 1202.54 136.653 1199.94 134.376C1197.34 131.937 1193.11 129.823 1187.25 128.034C1181.56 126.083 1173.92 124.131 1164.32 122.18C1151.97 119.578 1141.4 116.245 1132.61 112.179C1124 107.951 1117.41 102.504 1112.86 95.8362C1108.3 89.0064 1106.03 80.5503 1106.03 70.4681C1106.03 60.5485 1108.79 51.6859 1114.32 43.8803C1120.01 36.0747 1127.9 29.9766 1137.98 25.586C1148.06 21.1953 1160.02 19 1173.84 19C1185.06 19 1194.9 20.4635 1203.35 23.3906C1211.97 26.3177 1219.21 30.2205 1225.06 35.099C1230.92 39.9775 1235.31 45.1812 1238.23 50.7102C1241.32 56.0765 1242.95 61.3616 1243.11 66.5653C1243.11 67.8662 1242.62 69.0858 1241.65 70.2242C1240.67 71.1999 1239.45 71.6877 1237.99 71.6877H1205.79C1204 71.6877 1202.46 71.3625 1201.16 70.712C1199.86 70.0615 1198.72 69.0045 1197.74 67.541C1196.77 63.9634 1194.17 60.8737 1189.94 58.2719C1185.87 55.5074 1180.51 54.1251 1173.84 54.1251C1166.68 54.1251 1161.07 55.4261 1157.01 58.0279C1153.1 60.4672 1151.15 64.2887 1151.15 69.4924C1151.15 72.7447 1152.21 75.5905 1154.32 78.0297C1156.6 80.469 1160.26 82.583 1165.3 84.3718C1170.5 86.1606 1177.58 88.0307 1186.52 89.982C1201.32 92.7465 1213.27 96.2428 1222.38 100.471C1231.49 104.536 1238.15 109.903 1242.38 116.57C1246.61 123.074 1248.72 131.287 1248.72 141.206C1248.72 152.264 1245.55 161.858 1239.21 169.989C1233.03 177.958 1224.41 184.056 1213.35 188.284C1202.3 192.512 1189.61 194.626 1175.3 194.626ZM1279.24 192.186C1277.45 192.186 1275.99 191.617 1274.85 190.479C1273.71 189.341 1273.14 187.877 1273.14 186.088V165.424H1401.2V186.088C1401.2 187.877 1400.63 189.341 1399.49 190.479C1398.36 191.617 1396.89 192.186 1395.1 192.186H1279.24ZM1273.14 27.5374V122.738H1390.2C1390.94 122.453 1391.6 122.023 1392.18 121.448C1393.32 120.147 1393.88 118.684 1393.88 117.058V95.8362C1393.88 94.0475 1393.32 92.5839 1392.18 91.4456C1391.04 90.1447 1389.58 89.4942 1387.79 89.4942H1315.34V56.5644H1393.15C1394.94 56.5644 1396.41 55.9952 1397.54 54.8569C1398.68 53.7186 1399.25 52.255 1399.25 50.4663V27.5374C1399.25 25.7486 1398.68 24.285 1397.54 23.1467C1396.41 22.0084 1394.94 21.4392 1393.15 21.4392H1279.24C1277.45 21.4392 1275.99 22.0084 1274.85 23.1467C1273.71 24.285 1273.14 25.7486 1273.14 27.5374ZM1480.4 80.469C1478.93 80.469 1477.71 79.9811 1476.74 79.0054C1475.93 77.8671 1475.6 76.4849 1475.76 74.8587L1483.08 27.2934C1483.41 25.1794 1484.22 23.3093 1485.52 21.6832C1486.98 19.8944 1489.1 19 1491.86 19H1520.4C1521.7 19 1522.76 19.4878 1523.57 20.4635C1524.55 21.4392 1525.04 22.5776 1525.04 23.8785C1525.04 24.8542 1524.87 25.7486 1524.55 26.5617L1506.25 73.6391C1505.6 75.2653 1504.63 76.8101 1503.33 78.2737C1502.03 79.7372 1499.99 80.469 1497.23 80.469H1480.4ZM1426.73 80.469C1425.27 80.469 1424.05 79.9811 1423.08 79.0054C1422.26 77.8671 1421.94 76.4849 1422.1 74.8587L1429.42 27.2934C1429.74 25.1794 1430.56 23.3093 1431.86 21.6832C1433.32 19.8944 1435.43 19 1438.2 19H1466.74C1468.04 19 1469.1 19.4878 1469.91 20.4635C1470.88 21.4392 1471.37 22.5776 1471.37 23.8785C1471.37 24.8542 1471.21 25.7486 1470.88 26.5617L1452.59 73.6391C1451.94 75.2653 1450.96 76.8101 1449.66 78.2737C1448.36 79.7372 1446.33 80.469 1443.57 80.469H1426.73Z" fill="url(#paint0_linear_34_581)"/>
</g>
<path fill-rule="evenodd" clip-rule="evenodd" d="M77.298 80.469C75.997 80.469 74.8587 79.9811 73.883 79.0054C73.0699 78.0297 72.6634 76.9727 72.6634 75.8344C72.6634 74.8587 72.826 73.883 73.1513 72.9073L91.4456 25.8299C92.2587 24.2037 93.3157 22.6589 94.6166 21.1953C95.9175 19.7318 97.8689 19 100.471 19H117.302C118.765 19 119.985 19.5692 120.96 20.7075C121.936 21.6832 122.261 22.9841 121.936 24.6103L114.618 72.1756C114.456 74.127 113.643 75.997 112.179 77.7858C110.716 79.5746 108.602 80.469 105.837 80.469H77.298ZM23.6346 80.469C22.3336 80.469 21.1953 79.9811 20.2196 79.0054C19.4065 78.0297 19 76.9727 19 75.8344C19 74.8587 19.1626 73.883 19.4878 72.9073L37.7822 25.8299C38.4327 24.2037 39.4084 22.6589 40.7093 21.1953C42.1728 19.7318 44.2055 19 46.8074 19H63.6382C65.1017 19 66.3214 19.5692 67.2971 20.7075C68.2728 21.6832 68.598 22.9841 68.2728 24.6103L60.955 72.1756C60.6298 74.127 59.7354 75.997 58.2719 77.7858C56.9709 79.5746 54.9382 80.469 52.1737 80.469H23.6346ZM153.947 192.186C152.159 192.186 150.695 191.617 149.557 190.479C148.419 189.341 147.849 187.877 147.849 186.088V140.571L191.512 128.871V160.476H225.661C232.654 160.476 237.939 158.444 241.516 154.378C245.094 150.313 246.883 145.678 246.883 140.474C246.883 134.783 245.013 129.986 241.272 126.083C237.695 122.18 232.491 120.229 225.661 120.229H215.146L206.846 89.2503H223.466C230.133 89.2503 235.093 87.5428 238.345 84.1279C241.76 80.7129 243.468 76.3223 243.468 70.9559C243.468 65.7522 241.76 61.5242 238.345 58.2719C235.093 54.8569 230.133 53.1494 223.466 53.1494H191.512V84.6787L147.849 96.378V27.5374C147.849 25.7486 148.419 24.285 149.557 23.1467C150.695 22.0084 152.159 21.4392 153.947 21.4392H228.344C242.329 21.4392 253.794 23.3906 262.738 27.2934C271.682 31.1962 278.268 36.8065 282.496 44.1242C286.886 51.2794 289.082 59.8167 289.082 69.7363C289.082 75.5905 287.943 80.7942 285.667 85.3475C283.553 89.7381 280.87 93.397 277.617 96.3241C274.527 99.2512 271.6 101.365 268.836 102.666C275.015 105.593 280.463 110.39 285.179 117.058C290.057 123.725 292.497 131.531 292.497 140.474C292.497 151.207 290.057 160.476 285.179 168.282C280.463 175.925 273.471 181.86 264.201 186.088C255.095 190.154 243.874 192.186 230.54 192.186H153.947ZM325.695 192.186C323.906 192.186 322.443 191.617 321.304 190.479C320.166 189.341 319.597 187.877 319.597 186.088V103.683L364.479 129.595V186.088C364.479 187.877 363.91 189.341 362.772 190.479C361.633 191.617 360.17 192.186 358.381 192.186H325.695ZM319.597 27.5374V56.163L320.364 54.8349L364.479 80.3049V27.5374C364.479 25.7486 363.91 24.285 362.772 23.1467C361.633 22.0084 360.17 21.4392 358.381 21.4392H325.695C323.906 21.4392 322.443 22.0084 321.304 23.1467C320.166 24.285 319.597 25.7486 319.597 27.5374ZM395.387 128.835L393.544 132.029C394.572 145.176 397.91 156.285 403.56 165.355C409.74 175.112 418.358 182.429 429.416 187.308C440.474 192.186 453.484 194.626 468.444 194.626C483.405 194.626 496.414 192.186 507.472 187.308C518.53 182.429 527.149 175.112 533.328 165.355C539.43 155.56 542.836 143.387 543.547 128.835H498.116C497.516 139.184 494.618 146.804 489.422 151.695C484.056 156.899 477.063 159.501 468.444 159.501C459.826 159.501 452.833 156.899 447.467 151.695C442.423 146.804 439.534 139.184 438.8 128.835H395.387ZM543.576 86.1485L543.573 86.0793C543.085 71.4438 539.67 59.1662 533.328 49.2466C526.986 39.1644 518.205 31.6028 506.984 26.5617C495.927 21.5206 483.08 19 468.444 19C453.646 19 440.718 21.5206 429.66 26.5617C418.602 31.6028 409.902 39.1644 403.56 49.2466C397.381 59.1662 393.966 71.4438 393.316 86.0793L393.314 86.1485H438.717C439.097 78.8102 440.55 72.8516 443.076 68.2728C445.678 63.3943 449.174 59.8167 453.565 57.5401C457.956 55.2635 462.915 54.1251 468.444 54.1251C474.136 54.1251 479.177 55.2635 483.568 57.5401C487.958 59.8167 491.373 63.3943 493.812 68.2728C496.339 72.8516 497.792 78.8102 498.172 86.1485H543.576ZM666.856 192.186C664.091 192.186 661.896 191.455 660.27 189.991C658.644 188.528 657.506 186.82 656.855 184.869L607.094 28.757C606.769 27.9439 606.607 27.2121 606.607 26.5617C606.607 25.2607 607.094 24.1224 608.07 23.1467C609.208 22.0084 610.509 21.4392 611.973 21.4392H642.22C644.821 21.4392 646.854 22.171 648.318 23.6346C649.781 25.0981 650.676 26.4804 651.001 27.7813L685.394 140.474L720.032 27.7813C720.519 26.4804 721.414 25.0981 722.715 23.6346C724.178 22.171 726.211 21.4392 728.813 21.4392H759.059C760.523 21.4392 761.743 22.0084 762.718 23.1467C763.857 24.1224 764.426 25.2607 764.426 26.5617C764.426 27.2121 764.263 27.9439 763.938 28.757L714.177 184.869C713.527 186.82 712.389 188.528 710.762 189.991C709.299 191.455 707.104 192.186 704.176 192.186H666.856ZM793.297 192.186C791.508 192.186 790.044 191.617 788.906 190.479C787.768 189.341 787.198 187.877 787.198 186.088V90H904.322C905.038 90.3251 905.675 90.807 906.234 91.4456C907.372 92.5839 907.941 94.0475 907.941 95.8362V117.058C907.941 118.684 907.372 120.147 906.234 121.448C905.095 122.587 903.632 123.156 901.843 123.156H829.397V157.061H909.161C910.95 157.061 912.413 157.63 913.551 158.769C914.69 159.907 915.259 161.371 915.259 163.159V186.088C915.259 187.877 914.69 189.341 913.551 190.479C912.413 191.617 910.95 192.186 909.161 192.186H793.297ZM909.972 56H787.198V27.5374C787.198 25.7486 787.768 24.285 788.906 23.1467C790.044 22.0084 791.508 21.4392 793.297 21.4392H907.209C908.998 21.4392 910.462 22.0084 911.6 23.1467C912.738 24.285 913.307 25.7486 913.307 27.5374V50.4663C913.307 52.255 912.738 53.7186 911.6 54.8569C911.116 55.3408 910.573 55.7218 909.972 56ZM949.084 192.186C947.296 192.186 945.832 191.617 944.694 190.479C943.555 189.341 942.986 187.877 942.986 186.088V27.5374C942.986 25.7486 943.555 24.285 944.694 23.1467C945.832 22.0084 947.296 21.4392 949.084 21.4392H1015.43C1036.41 21.4392 1052.91 26.3177 1064.95 36.0747C1077.14 45.6691 1083.24 59.3289 1083.24 77.054C1083.24 88.5998 1080.4 98.3568 1074.71 106.325C1069.18 114.293 1061.86 120.31 1052.75 124.375L1086.41 184.381C1086.9 185.357 1087.15 186.251 1087.15 187.064C1087.15 188.365 1086.58 189.585 1085.44 190.723C1084.46 191.699 1083.24 192.186 1081.78 192.186H1049.58C1046.49 192.186 1044.21 191.455 1042.75 189.991C1041.29 188.365 1040.23 186.901 1039.58 185.6L1029.49 166.126V93.9869C1030.41 93.3801 1031.26 92.6956 1032.02 91.9334C1035.92 88.1933 1037.87 83.0709 1037.87 76.5662C1037.87 70.2242 1036 65.1017 1032.26 61.199C1028.69 57.2962 1022.91 55.3448 1014.94 55.3448H986.649V97.5437H986.802V131.937H986.649V186.088C986.649 187.877 986.08 189.341 984.941 190.479C983.803 191.617 982.339 192.186 980.551 192.186H949.084ZM1175.3 194.626C1159.04 194.626 1145.54 192.349 1134.81 187.796C1124.08 183.08 1115.95 176.982 1110.42 169.501C1104.89 162.021 1101.96 154.053 1101.64 145.597C1101.64 144.296 1102.12 143.158 1103.1 142.182C1104.24 141.044 1105.54 140.474 1107 140.474H1137.74C1140.01 140.474 1141.72 140.881 1142.86 141.694C1144.16 142.507 1145.3 143.564 1146.27 144.865C1147.58 147.304 1149.36 149.662 1151.64 151.939C1154.08 154.216 1157.17 156.086 1160.91 157.549C1164.81 158.85 1169.61 159.501 1175.3 159.501C1184.73 159.501 1191.81 158.037 1196.52 155.11C1201.4 152.183 1203.84 148.199 1203.84 143.158C1203.84 139.58 1202.54 136.653 1199.94 134.376C1197.34 131.937 1193.11 129.823 1187.25 128.034C1181.56 126.083 1173.92 124.131 1164.32 122.18C1151.97 119.578 1141.4 116.245 1132.61 112.179C1124 107.951 1117.41 102.504 1112.86 95.8362C1108.3 89.0064 1106.03 80.5503 1106.03 70.4681C1106.03 60.5485 1108.79 51.6859 1114.32 43.8803C1120.01 36.0747 1127.9 29.9766 1137.98 25.586C1148.06 21.1953 1160.02 19 1173.84 19C1185.06 19 1194.9 20.4635 1203.35 23.3906C1211.97 26.3177 1219.21 30.2205 1225.06 35.099C1230.92 39.9775 1235.31 45.1812 1238.23 50.7102C1241.32 56.0765 1242.95 61.3616 1243.11 66.5653C1243.11 67.8662 1242.62 69.0858 1241.65 70.2242C1240.67 71.1999 1239.45 71.6877 1237.99 71.6877H1205.79C1204 71.6877 1202.46 71.3625 1201.16 70.712C1199.86 70.0615 1198.72 69.0045 1197.74 67.541C1196.77 63.9634 1194.17 60.8737 1189.94 58.2719C1185.87 55.5074 1180.51 54.1251 1173.84 54.1251C1166.68 54.1251 1161.07 55.4261 1157.01 58.0279C1153.1 60.4672 1151.15 64.2887 1151.15 69.4924C1151.15 72.7447 1152.21 75.5905 1154.32 78.0297C1156.6 80.469 1160.26 82.583 1165.3 84.3718C1170.5 86.1606 1177.58 88.0307 1186.52 89.982C1201.32 92.7465 1213.27 96.2428 1222.38 100.471C1231.49 104.536 1238.15 109.903 1242.38 116.57C1246.61 123.074 1248.72 131.287 1248.72 141.206C1248.72 152.264 1245.55 161.858 1239.21 169.989C1233.03 177.958 1224.41 184.056 1213.35 188.284C1202.3 192.512 1189.61 194.626 1175.3 194.626ZM1279.24 192.186C1277.45 192.186 1275.99 191.617 1274.85 190.479C1273.71 189.341 1273.14 187.877 1273.14 186.088V165.424H1401.2V186.088C1401.2 187.877 1400.63 189.341 1399.49 190.479C1398.36 191.617 1396.89 192.186 1395.1 192.186H1279.24ZM1273.14 27.5374V122.738H1390.2C1390.94 122.453 1391.6 122.023 1392.18 121.448C1393.32 120.147 1393.88 118.684 1393.88 117.058V95.8362C1393.88 94.0475 1393.32 92.5839 1392.18 91.4456C1391.04 90.1447 1389.58 89.4942 1387.79 89.4942H1315.34V56.5644H1393.15C1394.94 56.5644 1396.41 55.9952 1397.54 54.8569C1398.68 53.7186 1399.25 52.255 1399.25 50.4663V27.5374C1399.25 25.7486 1398.68 24.285 1397.54 23.1467C1396.41 22.0084 1394.94 21.4392 1393.15 21.4392H1279.24C1277.45 21.4392 1275.99 22.0084 1274.85 23.1467C1273.71 24.285 1273.14 25.7486 1273.14 27.5374ZM1480.4 80.469C1478.93 80.469 1477.71 79.9811 1476.74 79.0054C1475.93 77.8671 1475.6 76.4849 1475.76 74.8587L1483.08 27.2934C1483.41 25.1794 1484.22 23.3093 1485.52 21.6832C1486.98 19.8944 1489.1 19 1491.86 19H1520.4C1521.7 19 1522.76 19.4878 1523.57 20.4635C1524.55 21.4392 1525.04 22.5776 1525.04 23.8785C1525.04 24.8542 1524.87 25.7486 1524.55 26.5617L1506.25 73.6391C1505.6 75.2653 1504.63 76.8101 1503.33 78.2737C1502.03 79.7372 1499.99 80.469 1497.23 80.469H1480.4ZM1426.73 80.469C1425.27 80.469 1424.05 79.9811 1423.08 79.0054C1422.26 77.8671 1421.94 76.4849 1422.1 74.8587L1429.42 27.2934C1429.74 25.1794 1430.56 23.3093 1431.86 21.6832C1433.32 19.8944 1435.43 19 1438.2 19H1466.74C1468.04 19 1469.1 19.4878 1469.91 20.4635C1470.88 21.4392 1471.37 22.5776 1471.37 23.8785C1471.37 24.8542 1471.21 25.7486 1470.88 26.5617L1452.59 73.6391C1451.94 75.2653 1450.96 76.8101 1449.66 78.2737C1448.36 79.7372 1446.33 80.469 1443.57 80.469H1426.73Z" fill="url(#paint1_linear_34_581)"/>
<defs>
<filter id="filter0_f_34_581" x="0.5" y="0.5" width="1543.04" height="212.626" filterUnits="userSpaceOnUse" color-interpolation-filters="sRGB">
<feFlood flood-opacity="0" result="BackgroundImageFix"/>
<feBlend mode="normal" in="SourceGraphic" in2="BackgroundImageFix" result="shape"/>
<feGaussianBlur stdDeviation="9.25" result="effect1_foregroundBlur_34_581"/>
</filter>
<linearGradient id="paint0_linear_34_581" x1="19" y1="46.6797" x2="1525.04" y2="166.946" gradientUnits="userSpaceOnUse">
<stop stop-color="#8A56F6"/>
<stop offset="0.24" stop-color="#DE78F8"/>
<stop offset="0.555" stop-color="#3080BD"/>
<stop offset="1" stop-color="#14F9A5"/>
</linearGradient>
<linearGradient id="paint1_linear_34_581" x1="19" y1="46.6797" x2="1525.04" y2="166.946" gradientUnits="userSpaceOnUse">
<stop stop-color="#8A56F6"/>
<stop offset="0.24" stop-color="#DE78F8"/>
<stop offset="0.555" stop-color="#3080BD"/>
<stop offset="1" stop-color="#14F9A5"/>
</linearGradient>
</defs>
</svg>
