<svg width="508" height="905" viewBox="0 0 508 905" fill="none" xmlns="http://www.w3.org/2000/svg">
<g style="mix-blend-mode:overlay" clip-path="url(#clip0_2_402)">
<path opacity="0.5" d="M311.49 684.528L374.184 720.754L374.184 793.187L373.934 793.333L311.49 829.414L248.795 793.187L248.795 720.754L249.046 720.608L311.49 684.528ZM373.204 721.318L311.49 685.675L249.776 721.318L249.776 792.602L311.49 828.245L373.204 792.603L373.204 721.318Z" fill="#D0D9DD"/>
<path opacity="0.5" d="M498.091 864.2L560.786 900.427L560.786 972.86L560.535 973.006L498.091 1009.09L435.397 972.86L435.397 900.427L435.648 900.281L498.091 864.2ZM559.805 900.99L498.091 865.348L436.378 900.99L436.378 972.275L498.091 1007.92L559.805 972.275L559.805 900.99Z" fill="#D0D9DD"/>
<path opacity="0.5" d="M498.091 648.593L560.786 684.82L560.786 757.252L560.535 757.398L498.091 793.479L435.397 757.252L435.397 684.82L435.648 684.674L498.091 648.593ZM559.805 685.383L498.091 649.741L436.378 685.383L436.378 756.668L498.091 792.31L559.805 756.668L559.805 685.383Z" fill="#D0D9DD"/>
<path opacity="0.5" d="M498.091 361.158L498.342 361.304L560.786 397.385L560.786 469.818L560.535 469.964L498.091 506.044L435.397 469.817L435.397 397.385L435.648 397.239L498.091 361.158ZM559.805 397.948L498.091 362.306L436.378 397.948L436.378 469.233L498.091 504.876L559.805 469.233L559.805 397.948Z" fill="#D0D9DD"/>
<path opacity="0.5" d="M435.898 900.135L498.592 936.362L498.592 1008.77L498.342 1008.92L435.898 1045L373.203 1008.77L373.203 936.341L373.454 936.195L435.898 900.114L435.898 900.135ZM497.612 936.925L435.898 901.283L374.184 936.925L374.184 1008.21L435.898 1043.85L497.612 1008.21L497.612 936.925Z" fill="#D0D9DD"/>
<path opacity="0.5" d="M435.898 756.397L498.592 792.623L498.592 865.056L498.342 865.202L435.898 901.283L373.203 865.056L373.203 792.623L373.454 792.477L435.898 756.397ZM497.612 793.187L435.898 757.544L374.184 793.187L374.184 864.472L435.898 900.114L497.612 864.472L497.612 793.187Z" fill="#D0D9DD"/>
<path opacity="0.5" d="M435.898 612.679L498.592 648.906L498.592 721.339L498.342 721.485L435.898 757.565L373.203 721.339L373.203 648.906L373.454 648.76L435.898 612.679ZM497.612 649.469L435.898 613.827L374.184 649.469L374.184 720.754L435.898 756.397L497.612 720.754L497.612 649.469Z" fill="#D0D9DD"/>
<path opacity="0.5" d="M435.898 540.81L498.592 577.037L498.592 649.469L498.342 649.616L435.898 685.696L373.203 649.469L373.203 577.037L373.454 576.891L435.898 540.81ZM497.612 577.6L435.898 541.958L374.184 577.6L374.184 648.885L435.898 684.528L497.612 648.885L497.612 577.6Z" fill="#D0D9DD"/>
<path opacity="0.5" d="M311.49 540.81L374.184 577.037L374.184 649.469L373.934 649.616L311.49 685.696L248.795 649.469L248.795 577.037L249.046 576.891L311.49 540.81ZM373.204 577.6L311.49 541.958L249.776 577.6L249.776 648.885L311.49 684.528L373.204 648.885L373.204 577.6Z" fill="#D0D9DD"/>
<path opacity="0.5" d="M435.898 325.224L436.148 325.37L498.592 361.45L498.592 433.883L498.342 434.029L435.898 470.11L373.203 433.883L373.203 361.45L373.454 361.304L435.898 325.224ZM497.612 362.014L435.898 326.371L374.184 362.014L374.184 433.299L435.898 468.941L497.612 433.299L497.612 362.014Z" fill="#D0D9DD"/>
<path opacity="0.5" d="M560.306 325.224L560.556 325.37L623 361.43L623 433.862L622.75 434.008L560.306 470.089L497.612 433.862L497.612 361.43L497.862 361.283L560.306 325.203L560.306 325.224ZM621.999 362.014L560.285 326.371L498.571 362.014L498.571 433.299L560.285 468.941L621.999 433.299L621.999 362.014Z" fill="#D0D9DD"/>
<path opacity="0.5" d="M373.704 864.2L436.398 900.427L436.398 972.86L436.148 973.006L373.704 1009.09L311.01 972.86L311.01 900.427L311.26 900.281L373.704 864.2ZM435.418 900.99L373.704 865.348L311.99 900.99L311.99 972.275L373.704 1007.92L435.418 972.275L435.418 900.99Z" fill="#D0D9DD"/>
<path opacity="0.5" d="M373.704 504.876L436.398 541.102L436.398 613.535L436.148 613.681L373.704 649.762L311.01 613.535L311.01 541.102L311.26 540.956L373.704 504.876ZM435.418 541.666L373.704 506.023L311.99 541.666L311.99 612.951L373.704 648.593L435.418 612.951L435.418 541.666Z" fill="#D0D9DD"/>
<path opacity="0.5" d="M311.49 828.266L374.184 864.492L374.184 936.925L373.934 937.071L311.49 973.152L248.795 936.925L248.795 864.492L249.046 864.346L311.49 828.266ZM373.204 865.056L311.49 829.414L249.776 865.056L249.776 936.341L311.49 971.983L373.204 936.341L373.204 865.056Z" fill="#D0D9DD"/>
<path opacity="0.5" d="M249.296 720.462L311.99 756.689L311.99 829.121L311.74 829.267L249.296 865.348L186.602 829.121L186.602 756.689L186.852 756.543L249.296 720.462ZM311.01 757.252L249.296 721.61L187.582 757.252L187.582 828.537L249.296 864.179L311.01 828.537L311.01 757.252Z" fill="#D0D9DD"/>
<path opacity="0.5" d="M62.694 828.266L125.388 864.492L125.388 936.925L125.138 937.071L62.694 973.152L-0.000187568 936.925L-0.000181236 864.492L0.250086 864.346L62.694 828.266ZM124.408 865.056L62.694 829.414L0.980066 865.056L0.98006 936.341L62.694 971.983L124.408 936.341L124.408 865.056Z" fill="#D0D9DD"/>
<path opacity="0.5" d="M498.091 145.551L498.342 145.697L560.786 181.778L560.786 254.21L560.535 254.356L498.091 290.437L497.841 290.291L435.397 254.21L435.397 181.778L435.648 181.632L498.091 145.551ZM559.805 182.341L498.091 146.699L436.378 182.341L436.378 253.626L498.091 289.268L559.805 253.626L559.805 182.341Z" fill="#D0D9DD"/>
<path opacity="0.5" d="M435.898 252.958L436.148 253.104L498.592 289.185L498.592 361.617L498.342 361.763L435.898 397.844L435.648 397.698L373.204 361.617L373.204 289.185L373.454 289.039L435.898 252.958ZM497.612 289.748L435.898 254.106L374.184 289.748L374.184 361.033L435.898 396.676L497.612 361.033L497.612 289.748Z" fill="#D0D9DD"/>
<path opacity="0.5" d="M435.898 468.941L498.592 505.168L498.592 577.6L498.342 577.746L435.898 613.827L373.203 577.6L373.203 505.168L373.454 505.022L435.898 468.941ZM497.612 505.731L435.898 470.089L374.184 505.731L374.184 577.016L435.898 612.658L497.612 577.016L497.612 505.731Z" fill="#D0D9DD"/>
<path d="M249.296 577.016L312.24 613.368L312.24 686.093L311.865 686.301L249.296 722.445L186.352 686.093L186.352 613.368L186.727 613.159L249.296 577.016ZM310.76 614.244L249.296 578.748L187.832 614.244L187.832 685.237L249.296 720.733L310.76 685.237L310.76 614.244Z" fill="white"/>
<path d="M498.091 504.584L561.036 540.935L561.036 613.66L560.66 613.869L498.091 650.012L435.147 613.66L435.147 540.935L435.522 540.727L498.091 504.584ZM559.555 541.812L498.091 506.316L436.628 541.812L436.628 612.805L498.091 648.301L559.555 612.805L559.555 541.812Z" fill="white"/>
<path d="M498.091 217.107L498.467 217.316L561.036 253.459L561.036 326.184L560.66 326.392L498.091 362.536L497.716 362.327L435.147 326.184L435.147 253.459L435.522 253.25L498.091 217.107ZM559.555 254.335L498.091 218.839L436.628 254.335L436.628 325.328L498.091 360.824L559.555 325.328L559.555 254.335Z" fill="white"/>
<path d="M498.091 720.17L561.036 756.522L561.036 829.247L560.66 829.455L498.091 865.598L435.147 829.247L435.147 756.522L435.522 756.313L498.091 720.17ZM559.555 757.398L498.091 721.902L436.628 757.398L436.628 828.391L498.091 863.887L559.555 828.391L559.555 757.398Z" fill="white"/>
<path d="M435.898 827.974L498.842 864.326L498.842 937.05L498.467 937.259L435.898 973.402L372.953 937.05L372.953 864.326L373.329 864.117L435.898 827.974ZM497.361 865.202L435.898 829.706L374.434 865.202L374.434 936.195L435.898 971.691L497.361 936.195L497.361 865.202Z" fill="white"/>
<path d="M373.704 648.322L436.648 684.674L436.648 757.398L436.273 757.607L373.704 793.75L310.759 757.398L310.759 684.674L311.135 684.465L373.704 648.322ZM435.168 685.55L373.704 650.054L312.24 685.55L312.24 756.543L373.704 792.039L435.168 756.543L435.168 685.55Z" fill="white"/>
<path d="M373.704 432.735L374.079 432.944L436.648 469.087L436.648 541.812L436.273 542.02L373.704 578.164L310.759 541.812L310.759 469.087L311.135 468.878L373.704 432.735ZM435.168 469.964L373.704 434.467L312.24 469.964L312.24 540.956L373.704 576.453L435.168 540.956L435.168 469.964Z" fill="white"/>
<path d="M373.704 288.997L374.079 289.206L436.648 325.349L436.648 398.074L436.273 398.282L373.704 434.426L373.329 434.217L310.759 398.074L310.759 325.349L311.135 325.14L373.704 288.997ZM435.168 326.225L373.704 290.729L312.24 326.225L312.24 397.218L373.704 432.714L435.168 397.218L435.168 326.225Z" fill="white"/>
<path d="M311.49 756.104L374.434 792.456L374.434 865.181L374.059 865.39L311.49 901.533L248.545 865.181L248.545 792.456L248.921 792.248L311.49 756.104ZM372.953 793.333L311.49 757.837L250.026 793.333L250.026 864.326L311.49 899.822L372.953 864.326L372.953 793.333Z" fill="white"/>
<path d="M187.102 827.974L250.047 864.326L250.047 937.05L249.671 937.259L187.102 973.402L124.158 937.05L124.158 864.326L124.533 864.117L187.102 827.974ZM248.566 865.202L187.102 829.706L125.639 865.202L125.639 936.195L187.102 971.691L248.566 936.195L248.566 865.202Z" fill="white"/>
<path d="M124.888 863.908L187.832 900.26L187.832 972.985L187.457 973.193L124.888 1009.34L61.9433 972.985L61.9433 900.26L62.3188 900.051L124.888 863.908ZM186.351 901.136L124.888 865.64L63.4242 901.136L63.4242 972.129L124.888 1007.63L186.351 972.129L186.351 901.136Z" fill="white"/>
<path opacity="0.5" d="M493.628 7.74211L493.628 2.58773L498.091 0.000129308L502.575 2.58773L502.575 7.74211L498.091 10.3297L493.628 7.74211Z" fill="#D0D9DD"/>
<path opacity="0.5" d="M431.434 835.134L431.434 829.98L435.898 827.413L440.361 829.98L440.361 835.134L435.898 837.722L431.434 835.134Z" fill="#D0D9DD"/>
<path opacity="0.5" d="M434.062 761.825L434.062 759.718L435.898 758.653L437.733 759.718L437.733 761.825L435.898 762.889L434.062 761.825Z" fill="#D0D9DD"/>
<path opacity="0.5" d="M431.247 619.861L431.247 614.477L435.898 611.806L440.549 614.477L440.549 619.861L435.898 622.553L431.247 619.861Z" fill="#D0D9DD"/>
<path opacity="0.5" d="M431.101 548.138L431.101 542.608L435.898 539.853L440.695 542.608L440.695 548.138L435.898 550.913L431.101 548.138Z" fill="#D0D9DD"/>
<path opacity="0.5" d="M491.313 441.231L491.313 433.385L498.091 429.462L504.89 433.385L504.89 441.231L498.091 445.155L491.313 441.231Z" fill="#D0D9DD"/>
<path opacity="0.5" d="M492.502 727.977L492.502 721.508L498.091 718.253L503.702 721.508L503.702 727.977L498.091 731.212L492.502 727.977Z" fill="#D0D9DD"/>
<path opacity="0.5" d="M370.534 870.318L370.534 866.666L373.704 864.85L376.853 866.666L376.853 870.318L373.704 872.133L370.534 870.318Z" fill="#D0D9DD"/>
<path opacity="0.5" d="M307.652 834.779L307.652 830.335L311.489 828.123L315.348 830.335L315.348 834.779L311.489 837.012L307.652 834.779Z" fill="#D0D9DD"/>
<path opacity="0.5" d="M307.756 475.747L307.756 471.427L311.49 469.257L315.244 471.427L315.244 475.747L311.49 477.917L307.756 475.747Z" fill="#D0D9DD"/>
<path opacity="0.5" d="M308.153 403.711L308.153 399.85L311.49 397.93L314.847 399.85L314.847 403.711L311.49 405.652L308.153 403.711Z" fill="#D0D9DD"/>
<path opacity="0.5" d="M305.149 261.851L305.149 254.526L311.489 250.874L317.851 254.526L317.851 261.851L311.489 265.523L305.149 261.851Z" fill="#D0D9DD"/>
<path opacity="0.5" d="M371.952 797.76L371.952 795.736L373.704 794.713L375.456 795.736L375.456 797.76L373.704 798.761L371.952 797.76Z" fill="#D0D9DD"/>
<path opacity="0.5" d="M370.409 511.64L370.409 507.842L373.704 505.943L376.999 507.842L376.999 511.64L373.704 513.56L370.409 511.64Z" fill="#D0D9DD"/>
<path opacity="0.5" d="M372.14 367.15L372.14 365.335L373.704 364.437L375.268 365.335L375.268 367.15L373.704 368.068L372.14 367.15Z" fill="#D0D9DD"/>
<path opacity="0.5" d="M369.178 225.353L369.178 220.136L373.704 217.527L378.209 220.136L378.209 225.353L373.704 227.961L369.178 225.353Z" fill="#D0D9DD"/>
<path opacity="0.5" d="M184.516 762.263L184.516 759.279L187.102 757.777L189.688 759.279L189.688 762.263L187.102 763.766L184.516 762.263Z" fill="#D0D9DD"/>
<path opacity="0.5" d="M182.847 691.438L182.847 686.513L187.102 684.05L191.357 686.513L191.357 691.438L187.102 693.9L182.847 691.438Z" fill="#D0D9DD"/>
<path opacity="0.5" d="M182.472 619.84L182.472 614.498L187.102 611.847L191.711 614.498L191.711 619.84L187.102 622.511L182.472 619.84Z" fill="#D0D9DD"/>
<path opacity="0.5" d="M243.894 799.867L243.894 793.628L249.296 790.498L254.698 793.628L254.698 799.867L249.296 802.977L243.894 799.867Z" fill="#D0D9DD"/>
<path opacity="0.5" d="M244.874 727.56L244.874 722.427L249.296 719.881L253.717 722.427L253.717 727.56L249.296 730.106L244.874 727.56Z" fill="#D0D9DD"/>
<path opacity="0.5" d="M246.021 439.896L246.021 436.098L249.296 434.22L252.57 436.098L252.57 439.896L249.296 441.774L246.021 439.896Z" fill="#D0D9DD"/>
<path opacity="0.5" d="M121.738 870.317L121.738 866.666L124.888 864.85L128.037 866.666L128.037 870.317L124.888 872.133L121.738 870.317Z" fill="#D0D9DD"/>
<path opacity="0.5" d="M57.0211 692.252L57.0211 685.699L62.694 682.402L68.3669 685.699L68.3669 692.252L62.694 695.528L57.0211 692.252Z" fill="#D0D9DD"/>
<path opacity="0.5" d="M118.547 728.666L118.547 721.321L124.888 717.648L131.249 721.321L131.249 728.666L124.888 732.339L118.547 728.666Z" fill="#D0D9DD"/>
<path d="M433.666 259.493L433.666 256.905L435.898 255.59L438.15 256.905L438.15 259.493L435.898 260.786L433.666 259.493Z" fill="white"/>
<path d="M431.434 476.164L431.434 471.01L435.898 468.422L440.361 471.01L440.361 476.164L435.898 478.752L431.434 476.164Z" fill="white"/>
<path d="M369.241 440.23L369.241 435.075L373.704 432.488L378.167 435.075L378.167 440.23L373.704 442.817L369.241 440.23Z" fill="white"/>
<path d="M429.119 333.908L429.119 326.061L435.898 322.138L442.697 326.061L442.697 333.908L435.898 337.831L429.119 333.908Z" fill="white"/>
<path d="M432.31 188.479L432.31 184.326L435.898 182.24L439.485 184.326L439.485 188.479L435.898 190.545L432.31 188.479Z" fill="white"/>
<path d="M308.882 546.886L308.882 543.86L311.489 542.357L314.117 543.86L314.117 546.886L311.489 548.409L308.882 546.886Z" fill="white"/>
<path d="M493.565 871.111L493.565 865.873L498.091 863.243L502.638 865.873L502.638 871.111L498.091 873.74L493.565 871.111Z" fill="white"/>
<path d="M494.879 296.366L494.879 292.631L498.091 290.774L501.324 292.631L501.324 296.366L498.091 298.224L494.879 296.366Z" fill="white"/>
<path d="M308.882 762.284L308.882 759.258L311.489 757.756L314.117 759.258L314.117 762.284L311.489 763.787L308.882 762.284Z" fill="white"/>
<path d="M308.069 690.958L308.069 686.993L311.489 685.01L314.931 686.993L314.931 690.958L311.489 692.919L308.069 690.958Z" fill="white"/>
<path d="M306.964 332.614L306.964 327.376L311.489 324.747L316.036 327.376L316.036 332.614L311.489 335.222L306.964 332.614Z" fill="white"/>
<path d="M367.405 728.624L367.405 721.362L373.704 717.71L380.002 721.362L380.002 728.624L373.704 732.276L367.405 728.624Z" fill="white"/>
<path d="M369.011 655.941L369.011 650.537L373.704 647.824L378.376 650.537L378.376 655.941L373.704 658.654L369.011 655.941Z" fill="white"/>
<path d="M368.615 584.427L368.615 578.563L373.704 575.621L378.772 578.563L378.772 584.427L373.704 587.369L368.615 584.427Z" fill="white"/>
<path d="M370.617 296.283L370.617 292.714L373.704 290.941L376.77 292.714L376.77 296.283L373.704 298.057L370.617 296.283Z" fill="white"/>
<path d="M370.2 153.024L370.2 148.976L373.704 146.973L377.187 148.976L377.187 153.024L373.704 155.028L370.2 153.024Z" fill="white"/>
<path d="M182.639 835.134L182.639 829.98L187.102 827.413L191.565 829.98L191.565 835.134L187.102 837.722L182.639 835.134Z" fill="white"/>
<path d="M184.871 546.656L184.871 544.089L187.102 542.816L189.313 544.089L189.313 546.656L187.102 547.929L184.871 546.656Z" fill="white"/>
<path d="M244.103 656.254L244.103 650.244L249.296 647.239L254.489 650.244L254.489 656.254L249.296 659.238L244.103 656.254Z" fill="white"/>
<path d="M246.876 582.904L246.876 580.086L249.296 578.688L251.715 580.086L251.715 582.904L249.296 584.302L246.876 582.904Z" fill="white"/>
<path d="M59.3569 762.702L59.3569 758.841L62.694 756.921L66.031 758.841L66.031 762.702L62.694 764.621L59.3569 762.702Z" fill="white"/>
</g>
<defs>
<clipPath id="clip0_2_402">
<rect width="623" height="905" fill="white" transform="translate(623 905) rotate(-180)"/>
</clipPath>
</defs>
</svg>
