<svg width="342" height="905" viewBox="0 0 342 905" fill="none" xmlns="http://www.w3.org/2000/svg">
<g style="mix-blend-mode:overlay" clip-path="url(#clip0_2_486)">
<path opacity="0.5" d="M30.4897 360.472L93.1838 324.246L93.1838 251.813L92.9336 251.667L30.4897 215.586L-32.2045 251.813L-32.2045 324.246L-31.9543 324.392L30.4897 360.472ZM92.2036 323.682L30.4897 359.325L-31.2243 323.682L-31.2243 252.398L30.4897 216.755L92.2036 252.397L92.2036 323.682Z" fill="#D0D9DD"/>
<path opacity="0.5" d="M217.091 180.8L279.785 144.573L279.785 72.1404L279.535 71.9943L217.091 35.9137L154.397 72.1404L154.397 144.573L154.647 144.719L217.091 180.8ZM278.805 144.01L217.091 179.652L155.377 144.01L155.377 72.7247L217.091 37.0823L278.805 72.7247L278.805 144.01Z" fill="#D0D9DD"/>
<path opacity="0.5" d="M217.091 396.407L279.785 360.18L279.785 287.748L279.535 287.602L217.091 251.521L154.397 287.748L154.397 360.18L154.647 360.326L217.091 396.407ZM278.805 359.617L217.091 395.259L155.377 359.617L155.377 288.332L217.091 252.69L278.805 288.332L278.805 359.617Z" fill="#D0D9DD"/>
<path opacity="0.5" d="M217.091 683.842L217.342 683.696L279.786 647.615L279.786 575.182L279.535 575.036L217.091 538.956L154.397 575.183L154.397 647.615L154.648 647.761L217.091 683.842ZM278.805 647.052L217.091 682.694L155.378 647.052L155.378 575.767L217.091 540.124L278.805 575.767L278.805 647.052Z" fill="#D0D9DD"/>
<path opacity="0.5" d="M154.898 144.865L217.592 108.638L217.592 36.2267L217.342 36.0806L154.898 5.4809e-06L92.2034 36.2267L92.2034 108.659L92.4537 108.805L154.898 144.886L154.898 144.865ZM216.612 108.075L154.898 143.717L93.1837 108.075L93.1837 36.7901L154.898 1.14774L216.612 36.7901L216.612 108.075Z" fill="#D0D9DD"/>
<path opacity="0.5" d="M154.898 288.603L217.592 252.377L217.592 179.944L217.342 179.798L154.898 143.717L92.2034 179.944L92.2034 252.377L92.4537 252.523L154.898 288.603ZM216.612 251.813L154.898 287.456L93.1837 251.813L93.1837 180.528L154.898 144.886L216.612 180.528L216.612 251.813Z" fill="#D0D9DD"/>
<path opacity="0.5" d="M154.898 432.321L217.592 396.094L217.592 323.661L217.342 323.515L154.898 287.435L92.2034 323.661L92.2034 396.094L92.4537 396.24L154.898 432.321ZM216.612 395.531L154.898 431.173L93.1837 395.531L93.1837 324.246L154.898 288.603L216.612 324.246L216.612 395.531Z" fill="#D0D9DD"/>
<path opacity="0.5" d="M154.898 504.19L217.592 467.963L217.592 395.531L217.342 395.384L154.898 359.304L92.2034 395.531L92.2034 467.963L92.4537 468.109L154.898 504.19ZM216.612 467.4L154.898 503.042L93.1837 467.4L93.1837 396.115L154.898 360.472L216.612 396.115L216.612 467.4Z" fill="#D0D9DD"/>
<path opacity="0.5" d="M30.4897 504.19L93.1838 467.963L93.1838 395.531L92.9336 395.385L30.4897 359.304L-32.2045 395.531L-32.2045 467.963L-31.9543 468.109L30.4897 504.19ZM92.2036 467.4L30.4897 503.042L-31.2243 467.4L-31.2243 396.115L30.4897 360.472L92.2036 396.115L92.2036 467.4Z" fill="#D0D9DD"/>
<path opacity="0.5" d="M154.898 719.776L155.148 719.63L217.592 683.55L217.592 611.117L217.342 610.971L154.898 574.89L92.2034 611.117L92.2034 683.55L92.4537 683.696L154.898 719.776ZM216.612 682.986L154.898 718.629L93.1837 682.986L93.1837 611.701L154.898 576.059L216.612 611.701L216.612 682.986Z" fill="#D0D9DD"/>
<path opacity="0.5" d="M279.306 719.776L279.556 719.63L342 683.57L342 611.138L341.75 610.992L279.306 574.911L216.612 611.138L216.612 683.57L216.862 683.717L279.306 719.797L279.306 719.776ZM340.999 682.986L279.285 718.629L217.571 682.986L217.571 611.701L279.285 576.059L340.999 611.701L340.999 682.986Z" fill="#D0D9DD"/>
<path opacity="0.5" d="M92.704 180.8L155.398 144.573L155.398 72.1404L155.148 71.9943L92.704 35.9137L30.0098 72.1404L30.0098 144.573L30.2601 144.719L92.704 180.8ZM154.418 144.01L92.704 179.652L30.9901 144.01L30.9901 72.7247L92.704 37.0823L154.418 72.7247L154.418 144.01Z" fill="#D0D9DD"/>
<path opacity="0.5" d="M92.704 540.124L155.398 503.898L155.398 431.465L155.148 431.319L92.704 395.238L30.0098 431.465L30.0098 503.898L30.2601 504.044L92.704 540.124ZM154.418 503.334L92.704 538.977L30.9901 503.334L30.9901 432.049L92.704 396.407L154.418 432.049L154.418 503.334Z" fill="#D0D9DD"/>
<path opacity="0.5" d="M30.4897 216.734L93.1838 180.508L93.1838 108.075L92.9336 107.929L30.4897 71.8483L-32.2045 108.075L-32.2045 180.508L-31.9543 180.654L30.4897 216.734ZM92.2036 179.944L30.4897 215.586L-31.2243 179.944L-31.2243 108.659L30.4897 73.0169L92.2036 108.659L92.2036 179.944Z" fill="#D0D9DD"/>
<path opacity="0.5" d="M-31.7039 324.538L30.9902 288.311L30.9902 215.879L30.7399 215.733L-31.704 179.652L-94.3982 215.879L-94.3982 288.311L-94.1479 288.457L-31.7039 324.538ZM30.01 287.748L-31.7039 323.39L-93.4179 287.748L-93.4179 216.463L-31.704 180.821L30.01 216.463L30.01 287.748Z" fill="#D0D9DD"/>
<path opacity="0.5" d="M217.091 899.449L217.342 899.303L279.786 863.222L279.786 790.79L279.535 790.644L217.091 754.563L216.841 754.709L154.397 790.79L154.397 863.222L154.648 863.368L217.091 899.449ZM278.805 862.659L217.091 898.301L155.378 862.659L155.378 791.374L217.091 755.732L278.805 791.374L278.805 862.659Z" fill="#D0D9DD"/>
<path opacity="0.5" d="M154.898 792.042L155.148 791.896L217.592 755.815L217.592 683.383L217.342 683.237L154.898 647.156L154.648 647.302L92.2037 683.383L92.2037 755.815L92.4539 755.961L154.898 792.042ZM216.612 755.252L154.898 790.894L93.1839 755.252L93.1839 683.967L154.898 648.325L216.612 683.967L216.612 755.252Z" fill="#D0D9DD"/>
<path opacity="0.5" d="M154.898 576.059L217.592 539.832L217.592 467.4L217.342 467.254L154.898 431.173L92.2034 467.4L92.2034 539.832L92.4537 539.978L154.898 576.059ZM216.612 539.269L154.898 574.911L93.1837 539.269L93.1837 467.984L154.898 432.342L216.612 467.984L216.612 539.269Z" fill="#D0D9DD"/>
<path d="M-31.704 467.984L31.2405 431.632L31.2405 358.907L30.8651 358.699L-31.704 322.555L-94.6485 358.907L-94.6485 431.632L-94.273 431.841L-31.704 467.984ZM29.7597 430.756L-31.704 466.252L-93.1676 430.756L-93.1676 359.763L-31.704 324.267L29.7597 359.763L29.7597 430.756Z" fill="white"/>
<path d="M217.091 540.416L280.036 504.065L280.036 431.34L279.66 431.131L217.091 394.988L154.147 431.34L154.147 504.065L154.522 504.273L217.091 540.416ZM278.555 503.188L217.091 538.684L155.628 503.188L155.628 432.195L217.091 396.699L278.555 432.195L278.555 503.188Z" fill="white"/>
<path d="M217.091 827.893L217.467 827.684L280.036 791.541L280.036 718.816L279.66 718.608L217.091 682.464L216.716 682.673L154.147 718.816L154.147 791.541L154.522 791.75L217.091 827.893ZM278.555 790.665L217.091 826.161L155.628 790.665L155.628 719.672L217.091 684.176L278.555 719.672L278.555 790.665Z" fill="white"/>
<path d="M217.091 324.83L280.036 288.478L280.036 215.753L279.66 215.545L217.091 179.401L154.147 215.753L154.147 288.478L154.522 288.687L217.091 324.83ZM278.555 287.602L217.091 323.098L155.628 287.602L155.628 216.609L217.091 181.113L278.555 216.609L278.555 287.602Z" fill="white"/>
<path d="M154.898 217.026L217.842 180.674L217.842 107.95L217.467 107.741L154.898 71.5978L91.9531 107.95L91.9531 180.674L92.3285 180.883L154.898 217.026ZM216.361 179.798L154.898 215.294L93.4339 179.798L93.4339 108.805L154.898 73.309L216.361 108.805L216.361 179.798Z" fill="white"/>
<path d="M92.704 396.678L155.648 360.326L155.648 287.602L155.273 287.393L92.704 251.25L29.7595 287.602L29.7595 360.326L30.1349 360.535L92.704 396.678ZM154.168 359.45L92.704 394.946L31.2403 359.45L31.2403 288.457L92.704 252.961L154.168 288.457L154.168 359.45Z" fill="white"/>
<path d="M92.704 612.265L93.0794 612.056L155.648 575.913L155.648 503.188L155.273 502.98L92.704 466.836L29.7595 503.188L29.7595 575.913L30.1349 576.122L92.704 612.265ZM154.168 575.036L92.704 610.533L31.2403 575.036L31.2403 504.044L92.704 468.547L154.168 504.044L154.168 575.036Z" fill="white"/>
<path d="M92.704 756.003L93.0794 755.794L155.648 719.651L155.648 646.926L155.273 646.718L92.704 610.574L92.3286 610.783L29.7595 646.926L29.7595 719.651L30.1349 719.86L92.704 756.003ZM154.168 718.775L92.704 754.271L31.2403 718.775L31.2403 647.782L92.704 612.286L154.168 647.782L154.168 718.775Z" fill="white"/>
<path d="M30.4896 288.896L93.4341 252.544L93.4341 179.819L93.0587 179.61L30.4896 143.467L-32.4548 179.819L-32.4548 252.544L-32.0794 252.752L30.4896 288.896ZM91.9533 251.667L30.4896 287.163L-30.9741 251.667L-30.9741 180.674L30.4896 145.178L91.9533 180.674L91.9533 251.667Z" fill="white"/>
<path opacity="0.5" d="M212.628 897.258L212.628 902.412L217.092 905L221.576 902.412L221.576 897.258L217.092 894.67L212.628 897.258Z" fill="#D0D9DD"/>
<path opacity="0.5" d="M150.435 69.8658L150.435 75.0202L154.898 77.5869L159.361 75.0202L159.361 69.8658L154.898 67.2782L150.435 69.8658Z" fill="#D0D9DD"/>
<path opacity="0.5" d="M153.062 143.175L153.062 145.282L154.898 146.347L156.733 145.282L156.733 143.175L154.898 142.111L153.062 143.175Z" fill="#D0D9DD"/>
<path opacity="0.5" d="M150.247 285.139L150.247 290.523L154.898 293.194L159.549 290.523L159.549 285.139L154.898 282.447L150.247 285.139Z" fill="#D0D9DD"/>
<path opacity="0.5" d="M150.101 356.862L150.101 362.392L154.898 365.147L159.695 362.392L159.695 356.862L154.898 354.087L150.101 356.862Z" fill="#D0D9DD"/>
<path opacity="0.5" d="M210.313 463.769L210.313 471.615L217.091 475.538L223.891 471.615L223.891 463.769L217.091 459.845L210.313 463.769Z" fill="#D0D9DD"/>
<path opacity="0.5" d="M272.507 499.286L272.507 507.132L279.306 511.055L286.084 507.132L286.084 499.286L279.306 495.363L272.507 499.286Z" fill="#D0D9DD"/>
<path opacity="0.5" d="M211.502 177.023L211.502 183.492L217.092 186.747L222.702 183.492L222.702 177.023L217.092 173.788L211.502 177.023Z" fill="#D0D9DD"/>
<path opacity="0.5" d="M89.534 34.6825L89.534 38.3344L92.7042 40.1499L95.8535 38.3344L95.8535 34.6825L92.7042 32.867L89.534 34.6825Z" fill="#D0D9DD"/>
<path opacity="0.5" d="M26.6521 70.2205L26.6521 74.6654L30.4897 76.8774L34.3481 74.6654L34.3481 70.2205L30.4897 67.9877L26.6521 70.2205Z" fill="#D0D9DD"/>
<path opacity="0.5" d="M26.7565 429.253L26.7565 433.573L30.4897 435.743L34.2439 433.573L34.2439 429.253L30.4897 427.083L26.7565 429.253Z" fill="#D0D9DD"/>
<path opacity="0.5" d="M27.1528 501.289L27.1528 505.15L30.4898 507.07L33.8477 505.15L33.8477 501.289L30.4898 499.348L27.1528 501.289Z" fill="#D0D9DD"/>
<path opacity="0.5" d="M24.1493 643.149L24.1493 650.474L30.4896 654.126L36.8508 650.474L36.8508 643.149L30.4896 639.477L24.1493 643.149Z" fill="#D0D9DD"/>
<path opacity="0.5" d="M90.9522 107.24L90.9522 109.264L92.7041 110.287L94.4561 109.264L94.4561 107.24L92.7041 106.239L90.9522 107.24Z" fill="#D0D9DD"/>
<path opacity="0.5" d="M89.4089 393.36L89.4089 397.158L92.7042 399.057L95.9995 397.158L95.9995 393.36L92.7042 391.44L89.4089 393.36Z" fill="#D0D9DD"/>
<path opacity="0.5" d="M91.1399 537.85L91.1399 539.665L92.7041 540.563L94.2683 539.665L94.2683 537.85L92.7041 536.932L91.1399 537.85Z" fill="#D0D9DD"/>
<path opacity="0.5" d="M88.1784 679.647L88.1784 684.864L92.7043 687.473L97.2092 684.864L97.2092 679.647L92.7043 677.039L88.1784 679.647Z" fill="#D0D9DD"/>
<path opacity="0.5" d="M273.174 787.534L273.174 794.609L279.306 798.135L285.438 794.609L285.438 787.534L279.306 783.987L273.174 787.534Z" fill="#D0D9DD"/>
<path d="M152.666 645.507L152.666 648.095L154.898 649.41L157.15 648.095L157.15 645.507L154.898 644.214L152.666 645.507Z" fill="white"/>
<path d="M150.435 428.836L150.435 433.99L154.898 436.578L159.361 433.99L159.361 428.836L154.898 426.248L150.435 428.836Z" fill="white"/>
<path d="M88.241 464.77L88.241 469.925L92.7042 472.512L97.1675 469.925L97.1675 464.77L92.7042 462.183L88.241 464.77Z" fill="white"/>
<path d="M274.843 356.988L274.843 362.142L279.306 364.73L283.769 362.142L283.769 356.988L279.306 354.4L274.843 356.988Z" fill="white"/>
<path d="M148.12 571.092L148.12 578.939L154.898 582.862L161.697 578.939L161.697 571.092L154.898 567.169L148.12 571.092Z" fill="white"/>
<path d="M151.311 716.521L151.311 720.674L154.898 722.76L158.485 720.674L158.485 716.521L154.898 714.455L151.311 716.521Z" fill="white"/>
<path d="M27.8825 358.114L27.8825 361.14L30.4895 362.643L33.1174 361.14L33.1174 358.114L30.4895 356.591L27.8825 358.114Z" fill="white"/>
<path d="M212.566 33.8895L212.566 39.1273L217.091 41.7567L221.638 39.1273L221.638 33.8895L217.091 31.2601L212.566 33.8895Z" fill="white"/>
<path d="M274.759 69.8241L274.759 75.0619L279.306 77.6704L283.832 75.0619L283.832 69.8241L279.306 67.1947L274.759 69.8241Z" fill="white"/>
<path d="M213.88 608.634L213.88 612.369L217.091 614.226L220.324 612.369L220.324 608.634L217.091 606.776L213.88 608.634Z" fill="white"/>
<path d="M27.8825 142.716L27.8825 145.742L30.4895 147.244L33.1174 145.742L33.1174 142.716L30.4895 141.213L27.8825 142.716Z" fill="white"/>
<path d="M27.0692 214.042L27.0692 218.007L30.4896 219.99L33.9309 218.007L33.9309 214.042L30.4896 212.081L27.0692 214.042Z" fill="white"/>
<path d="M25.9639 572.386L25.9639 577.624L30.4897 580.253L35.0364 577.624L35.0364 572.386L30.4897 569.778L25.9639 572.386Z" fill="white"/>
<path d="M86.4054 176.376L86.4054 183.638L92.7041 187.29L99.0027 183.638L99.0027 176.376L92.7041 172.724L86.4054 176.376Z" fill="white"/>
<path d="M88.0115 249.059L88.0115 254.463L92.7042 257.176L97.376 254.463L97.376 249.059L92.7042 246.346L88.0115 249.059Z" fill="white"/>
<path d="M274.613 213.333L274.613 218.738L279.306 221.45L283.978 218.738L283.978 213.333L279.306 210.62L274.613 213.333Z" fill="white"/>
<path d="M87.6152 320.573L87.6152 326.437L92.7041 329.379L97.7722 326.437L97.7722 320.573L92.7041 317.631L87.6152 320.573Z" fill="white"/>
<path d="M89.6174 608.717L89.6174 612.286L92.7041 614.059L95.77 612.286L95.77 608.717L92.7041 606.943L89.6174 608.717Z" fill="white"/>
<path d="M89.2004 751.975L89.2004 756.024L92.7042 758.027L96.1873 756.024L96.1873 751.975L92.7042 749.972L89.2004 751.975Z" fill="white"/>
</g>
<defs>
<clipPath id="clip0_2_486">
<rect width="623" height="905" fill="white" transform="matrix(-1 8.74228e-08 8.74228e-08 1 342 0)"/>
</clipPath>
</defs>
</svg>
